<?xml version="1.0" encoding="utf-8"?><svg width="313" height="132" viewBox="0 0 313 132" xmlns="http://www.w3.org/2000/svg" xmlns:xlink="http://www.w3.org/1999/xlink"><svg width="95.06" height="10.69" viewBox="4 4.94 95.06 10.69" id="ico-border-black" xmlns="http://www.w3.org/2000/svg"><path fill="none" stroke="#000" stroke-width="3" stroke-miterlimit="10" d="M4 12.5l7.93-4.19 7.98 4.19 7.84-4.19 8 4.19 7.86-4.19 7.98 4.19 7.87-4.19 7.92 4.19 7.92-4.19 7.95 4.19 7.9-4.19 7.91 4.19"/></svg><svg width="95.06" height="10.69" viewBox="4 4.94 95.06 10.69" id="ico-border-white" x="96" y="11" xmlns="http://www.w3.org/2000/svg"><path fill="none" stroke="#fff" stroke-width="3" stroke-miterlimit="10" d="M4 12.5l7.93-4.19 7.98 4.19 7.84-4.19 8 4.19 7.86-4.19 7.98 4.19 7.87-4.19 7.92 4.19 7.92-4.19 7.95 4.19 7.9-4.19 7.91 4.19"/></svg><svg width="40.7" height="40.7" viewBox="-0.4 -4.4 40.7 40.7" id="ico-close" x="192" y="22" xmlns="http://www.w3.org/2000/svg"><path fill="#ccc" d="M-.4 16L20 36.4 40.4 16 20-4.4-.4 16z"/><path fill="#222" d="M4.2 16L20 31.8 35.8 16 20 .2 4.2 16z"/><path fill="#ccc" d="M20 14l-4.6-4.6-1 1-1 1L18 16l-4.6 4.6 2 2L20 18l4.6 4.6 2-2L22 16l4.6-4.6-2-2L20 14z"/></svg><svg width="51" height="51" viewBox="0 0 51 51" id="ico-double-arrow" x="233" y="63" xmlns="http://www.w3.org/2000/svg"><g fill="#f16058"><path d="M51 12.75V0L25.5 19.125 0 0v12.75l25.5 19.125z"/><path d="M51 31.875v-12.75L25.5 38.25 0 19.125v12.75L25.5 51z"/></g></svg><svg width="28.8" height="17.4" viewBox="5.6 7.3 28.8 17.4" id="ico-eye" x="284" y="114" xmlns="http://www.w3.org/2000/svg"><g fill="#fff"><path d="M19.9 12.6c1.7 0 3.1 1.4 3.1 3.2 0 1.8-1.4 3.2-3.1 3.2s-3.1-1.4-3.1-3.2c0-1.8 1.4-3.2 3.1-3.2m0-1.7c-2.7 0-4.9 2.2-4.9 4.9s2.2 4.9 4.9 4.9 4.9-2.2 4.9-4.9-2.2-4.9-4.9-4.9z"/><path d="M20 9c.8 0 1.6.1 2.4.3 2.4.5 4.8 1.8 7.3 3.8 1.2 1 2.1 1.9 2.8 2.7l.1.1v.2l-.1.1-.9.9c-1.8 1.8-3.6 3.2-5.5 4.2-1.4.8-2.8 1.2-4.1 1.5-.6.1-1.3.2-2 .2-.8 0-1.6-.1-2.4-.3-2.4-.5-4.8-1.8-7.3-3.8-1.2-1-2.1-1.9-2.8-2.7-.1-.1-.1-.2 0-.3.2-.3.5-.6.9-.9 1.8-1.8 3.6-3.2 5.5-4.2 1.4-.8 2.8-1.2 4.1-1.5.6-.2 1.3-.3 2-.3m0-1.7c-.8 0-1.6.1-2.5.2-1.5.3-2.9.8-4.5 1.6-2.1 1.1-4.1 2.6-6 4.5l-1 1c-.6.8-.6 1.7 0 2.5.8 1 1.8 1.9 3.1 3 2.7 2.2 5.4 3.6 8 4.2.9.2 1.9.3 2.8.3.8 0 1.6-.1 2.5-.2 1.5-.3 2.9-.8 4.5-1.6 2.1-1.1 4.1-2.6 6-4.5.3-.3.6-.7.9-1 .2-.2.3-.4.4-.6l.1-.2v-.7l-.1-.3c-.1-.3-.2-.6-.4-.9-.8-.9-1.8-1.9-3-2.9-2.7-2.2-5.4-3.6-8-4.2-.9-.1-1.9-.2-2.8-.2z"/></g></svg></svg>