<?xml version="1.0" encoding="utf-8"?><!DOCTYPE svg PUBLIC "-//W3C//DTD SVG 1.1//EN" "http://www.w3.org/Graphics/SVG/1.1/DTD/svg11.dtd"><svg width="867" height="733" viewBox="0 0 867 733" xmlns="http://www.w3.org/2000/svg" xmlns:xlink="http://www.w3.org/1999/xlink"><svg width="27.3" height="27.3" viewBox="5.9 2.6 27.3 27.3" id="ico-animation" xmlns="http://www.w3.org/2000/svg"><g fill="#fff"><path d="M5.9 2.6h11.7v11.7H5.9zM14.4 19.8h2.2L13 16.3l-3.6 3.5h2.2c.3 4 3.7 7.2 7.9 7.2v-2.6c-2.5 0-4.7-2-5.1-4.6zM25.3 12.3h-2.2l3.6 3.6 3.6-3.6H28c-.3-4-3.7-7.2-7.9-7.2v2.6c2.7 0 4.9 2 5.2 4.6z"/><circle cx="27.4" cy="24" r="5.9"/></g></svg><svg width="32" height="2.78" viewBox="4 11.73 32 2.78" id="ico-border" x="28" y="28" xmlns="http://www.w3.org/2000/svg"><path d="M17.33 13.28l2.65-1.53 2.68 1.53 2.65-1.53 2.68 1.53 2.65-1.53 2.68 1.53 2.67-1.54v1.23l-2.67 1.55-2.68-1.54-2.65 1.54-2.68-1.54-2.65 1.54-2.68-1.54-2.65 1.54-2.67-1.53-2.67 1.53-2.68-1.54-2.65 1.54L4 12.98v-1.23l2.66 1.53 2.65-1.53 2.68 1.53 2.67-1.52 2.67 1.52z"/></svg><svg width="95.06" height="10.69" viewBox="4 4.94 95.06 10.69" id="ico-border-clean" x="60" y="31" xmlns="http://www.w3.org/2000/svg"><path fill="none" stroke="#0B440C" stroke-width="2" stroke-miterlimit="10" d="M4 12.5l7.93-4.19 7.98 4.19 7.84-4.19 8 4.19 7.86-4.19 7.98 4.19 7.87-4.19 7.92 4.19 7.92-4.19 7.95 4.19 7.9-4.19 7.91 4.19"/></svg><svg width="40.7" height="40.7" viewBox="-0.4 -4.4 40.7 40.7" id="ico-close" x="156" y="42" xmlns="http://www.w3.org/2000/svg"><path fill="#ccc" d="M-.4 16L20 36.4 40.4 16 20-4.4-.4 16z"/><path fill="#222" d="M4.2 16L20 31.8 35.8 16 20 .2 4.2 16z"/><path fill="#ccc" d="M20 14l-4.6-4.6-1 1-1 1L18 16l-4.6 4.6 2 2L20 18l4.6 4.6 2-2L22 16l4.6-4.6-2-2L20 14z"/></svg><svg width="86.7" height="86.7" viewBox="6.7 6.7 86.7 86.7" id="ico-design" x="197" y="83" xmlns="http://www.w3.org/2000/svg"><path fill="#fff" d="M93.3 14c0-.5-.2-1-.6-1.4l-5.4-5.4c-.8-.8-2-.8-2.8 0l-3.1 3.1-.9-.9c-.5-.6-1.3-.9-2.1-.9s-1.5.3-2.1.9L64.7 21.1H28V10.6c0-1.6-1.3-2.9-2.9-2.9-1.6 0-2.9 1.3-2.9 2.9v10.5H11.6c-1.6 0-2.9 1.3-2.9 2.9 0 1.6 1.3 2.9 2.9 2.9h10.5v36.7L17 68.9l-.2.1c-.3.3-.5.6-.7 1L7 89.1c-.5 1.1-.3 2.5.6 3.4.6.6 1.3.9 2.1.9.4 0 .9-.1 1.3-.3l19.3-9.2c.3-.1.6-.3.8-.6l5.4-5.4H73v10.5c0 1.6 1.3 2.9 2.9 2.9 1.6 0 2.9-1.3 2.9-2.9V77.9h10.5c1.6 0 2.9-1.3 2.9-2.9 0-1.6-1.3-2.9-2.9-2.9H78.8V35.3l11.7-11.7c1.1-1.1 1.1-3 0-4.2l-.9-.9 3.1-3.1c.4-.4.6-.9.6-1.4zM28 27h30.8L28 57.8V27zM15.9 84.1l4.3-8.9 4.7 4.6-9 4.3zM42.2 72L73 41.2V72H42.2zm31.6-40L33.2 72.6l-.2.2-4.8 4.8-5.9-5.9L68 26.2l10.5-10.5 5.9 5.9L73.8 32zm13.3-16.5l-2.6-2.6 1.5-1.5 2.6 2.6-1.5 1.5z"/></svg><svg width="51" height="51" viewBox="0 0 51 51" id="ico-double-arrow" x="284" y="170" xmlns="http://www.w3.org/2000/svg"><g fill="#f16058"><path d="M51 12.75V0L25.5 19.125 0 0v12.75l25.5 19.125z"/><path d="M51 31.875v-12.75L25.5 38.25 0 19.125v12.75L25.5 51z"/></g></svg><svg width="182.8" height="208.6" viewBox="144 52 182.8 208.6" id="ico-drupal" x="335" y="221" xmlns="http://www.w3.org/2000/svg"><path fill="#fff" d="M299.9 217.4c-9.9-.8-21-23.7-32-23.5-14.4.2-35.5 24.5-59.2 24.1-12.1-.2-25.1-4.6-25.5-23-.3-15.3 14.7-31.3 33.7-30.8 25.3.6 37.8 22.7 50.4 22.8 12.4.1 27-19.3 39.5-19.6 6.7-.2 11.8 6.3 12.3 15.2.8 13.5-7.7 35.7-19.2 34.8m-54.9 9.1c0-1.4.4-2.2 1.4-3.1 5.5-5.5 11.4-8.8 18-8.6 10.6.3 11 2.7 14.1 8.9.6 1.3.3 2.3-.1 3-.2.3-1.4 1.5-1.8 1.5-1 0-1.4-.4-1.8-1.4-2.5-6.3-6.3-6.3-11-6.3-7.3 0-10.4 3.5-14.7 7.1-1.1.9-2.1 1.5-2.9.9-.7-.7-1.2-1.4-1.2-2m37.8 12.2c-11.2 9.4-41.6 14.7-56.1 2.8-1.4-1.2-1.5-3-.5-4 .7-.8 1.3-1.1 2.2-1.6 1.1-.6 2.4-.4 3.3.5 5.7 5.3 32.6 9.7 48.8-1.2.6-.4 1.4-.7 2-.4.5.2.8.5.9 1 .1.9.1 2.3-.6 2.9M308.6 115c-23.3-28.4-42.1-30.9-53.9-37.7-8.5-4.8-16.3-13.4-26.3-25.3-.7 6.4-1.4 12.9-5.6 17.6-8.3 9.3-19.5 15.1-28.7 19.6-23.3 11.4-50.1 38.1-50.1 80.8 0 20.7 8 42.9 23 60 16 18.2 40 30.7 68.4 30.6 25.4-.1 46.3-8.4 62-22 18.4-15.9 29.4-39.1 29.4-68.7 0-21.6-6.4-40.5-18.2-54.9"/></svg><svg width="28.8" height="17.4" viewBox="5.6 7.3 28.8 17.4" id="ico-eye" x="518" y="430" xmlns="http://www.w3.org/2000/svg"><g fill="#fff"><path d="M19.9 12.6c1.7 0 3.1 1.4 3.1 3.2 0 1.8-1.4 3.2-3.1 3.2s-3.1-1.4-3.1-3.2c0-1.8 1.4-3.2 3.1-3.2m0-1.7c-2.7 0-4.9 2.2-4.9 4.9s2.2 4.9 4.9 4.9 4.9-2.2 4.9-4.9-2.2-4.9-4.9-4.9z"/><path d="M20 9c.8 0 1.6.1 2.4.3 2.4.5 4.8 1.8 7.3 3.8 1.2 1 2.1 1.9 2.8 2.7l.1.1v.2l-.1.1-.9.9c-1.8 1.8-3.6 3.2-5.5 4.2-1.4.8-2.8 1.2-4.1 1.5-.6.1-1.3.2-2 .2-.8 0-1.6-.1-2.4-.3-2.4-.5-4.8-1.8-7.3-3.8-1.2-1-2.1-1.9-2.8-2.7-.1-.1-.1-.2 0-.3.2-.3.5-.6.9-.9 1.8-1.8 3.6-3.2 5.5-4.2 1.4-.8 2.8-1.2 4.1-1.5.6-.2 1.3-.3 2-.3m0-1.7c-.8 0-1.6.1-2.5.2-1.5.3-2.9.8-4.5 1.6-2.1 1.1-4.1 2.6-6 4.5l-1 1c-.6.8-.6 1.7 0 2.5.8 1 1.8 1.9 3.1 3 2.7 2.2 5.4 3.6 8 4.2.9.2 1.9.3 2.8.3.8 0 1.6-.1 2.5-.2 1.5-.3 2.9-.8 4.5-1.6 2.1-1.1 4.1-2.6 6-4.5.3-.3.6-.7.9-1 .2-.2.3-.4.4-.6l.1-.2v-.7l-.1-.3c-.1-.3-.2-.6-.4-.9-.8-.9-1.8-1.9-3-2.9-2.7-2.2-5.4-3.6-8-4.2-.9-.1-1.9-.2-2.8-.2z"/></g></svg><svg width="92" height="81" viewBox="4 10.5 92 81" id="ico-integration" x="547" y="448" xmlns="http://www.w3.org/2000/svg"><g fill="#fff"><path d="M42.4 59.4V65l-20-8.7v-4.8l20-8.7v5.7l-14 5.4 14 5.5zM54.8 42.7l-5.6 22.9c-.2.8-.3 1.4-.5 1.8s-.4.8-.6 1c-.3.2-.7.4-1.2.4-1.4 0-2-.6-2-1.8 0-.3.1-1.1.4-2.3l5.6-22.9c.3-1.2.6-2.1.8-2.5.3-.5.8-.7 1.6-.7.7 0 1.2.2 1.5.5.4.3.5.8.5 1.3-.1.5-.2 1.2-.5 2.3zM77.6 56.3l-20 8.7v-5.6l14-5.5-14-5.4v-5.6l20 8.6v4.8z"/><path d="M90.5 10.5h-81C6.5 10.5 4 13 4 16v70c0 3 2.5 5.5 5.5 5.5h81c3.1 0 5.5-2.5 5.5-5.5V16c0-3-2.4-5.5-5.5-5.5zm-13.8 3.7c2 0 3.7 1.7 3.7 3.7s-1.7 3.7-3.7 3.7-3.7-1.7-3.7-3.7c0-2.1 1.7-3.7 3.7-3.7zm-10.1 0c2 0 3.7 1.7 3.7 3.7s-1.7 3.7-3.7 3.7-3.7-1.7-3.7-3.7c0-2.1 1.7-3.7 3.7-3.7zM90.5 86h-81V25.2h81V86zm-3.7-64.5c-2 0-3.7-1.7-3.7-3.7s1.7-3.7 3.7-3.7 3.7 1.7 3.7 3.7c0 2.1-1.6 3.7-3.7 3.7z"/></g></svg><svg width="88.7" height="88.7" viewBox="5.8 6.7 88.7 88.7" id="ico-programmation" x="639" y="529" xmlns="http://www.w3.org/2000/svg"><g fill="#fff"><path d="M94.5 57.8V43.1l-10-3c-.7-2.2-1.4-4.2-2.5-6.2l5.2-9.3-10.4-10.5-9.3 5.1c-2-1-4-1.8-6.2-2.5l-3-10.1H43.5l-3 10.1c-2.2.7-4.2 1.5-6.2 2.5l-9.3-5-10.4 10.3 5.1 9.3c-1 2-2.5 4-3.1 6.2L5.8 43v14.7l10.8 3c.7 2.2 1.8 4.2 2.8 6.2l-5 9.3 10.5 10.4 9.4-5.1c2 1 4.1 2.4 6.2 3l3 10.7h14.7l3-10.7c2.2-.7 4.2-1.8 6.2-2.8l9.3 5 10.4-10.4-5-9.3c1-2 1.7-4.1 2.4-6.2l10-3zm-43.6 20c-15.1 0-27.3-12.2-27.3-27.3 0-15.1 12.2-27.3 27.3-27.3 15.1 0 27.3 12.2 27.3 27.3S66 77.8 50.9 77.8z"/><path d="M52.9 39.7c-1-.3-2 .3-2.2 1.3l-5.2 19c-.3 1 .3 2 1.3 2.2 1 .3 2-.3 2.2-1.3l5.2-19c.2-.9-.4-1.9-1.3-2.2zM40.8 43c.7-.7.7-1.8 0-2.6-.7-.7-1.8-.7-2.6 0l-8 8-1.3 1.3c-.7.7-.7 1.8 0 2.6l1.3 1.3 8 8c.7.7 1.8.7 2.6 0 .7-.7.7-1.8 0-2.6L34 52.3c-.7-.7-.7-1.8 0-2.6l6.8-6.7zM71.4 49.7l-1.3-1.3-8-8c-.7-.7-1.8-.7-2.6 0-.7.7-.7 1.8 0 2.6l6.7 6.7c.7.7.7 1.8 0 2.6L59.6 59c-.7.7-.7 1.8 0 2.6.7.7 1.8.7 2.6 0l8-8 1.3-1.3c.6-.7.6-1.9-.1-2.6z"/></g></svg><svg width="50" height="40" viewBox="0 0 50 40" id="ico-quote" x="728" y="618" xmlns="http://www.w3.org/2000/svg"><path fill="#F16058" d="M12.5 40L0 20 12.5 0h25L50 20 37.5 40z"/><path fill="#FFF" d="M21.7 26.5v-9.7h-5.5c0-3.1 2.5-5.5 5.5-5.5V7.1c-5.4 0-9.7 4.3-9.7 9.7v9.7h9.7zm13.9-9.7H30c0-3.1 2.5-5.5 5.5-5.5V7.1c-5.4 0-9.7 4.3-9.7 9.7v9.7h9.7v-9.7z"/></svg><svg width="88.8" height="74.3" viewBox="5.5 12.8 88.8 74.3" id="ico-responsive" x="778" y="658" xmlns="http://www.w3.org/2000/svg"><g fill="#fff"><path d="M92.3 13.3c-.6-.3-1.3-.5-2-.5H9.6c-.7 0-1.5.2-2 .6-1.2.6-2 1.9-2 3.4v11.7c.2-.1.4-.3.6-.4 1.1-.6 2.3-.9 3.6-.9V17h80.6v46.5H51V83c0 1.4-.5 2.8-1.2 4H66.5c.6 0 1.2-.6 1.2-1.2v-1.1c0-.6-.6-1.2-1.2-1.2h-2.6c-1.4-1.5-2.3-4.5-2.8-7.7h29.1c1 0 1.9-.4 2.7-1 .8-.7 1.4-1.8 1.4-3.1V16.8c.1-1.6-.7-2.8-2-3.5z"/><path d="M45.8 30.8c1.3.8-.5-.3 0 0z"/><path d="M45.8 30.8c-.6-.3-1.3-.5-2-.5H9.6c-.7 0-1.5.2-2 .6-1.2.6-2 1.9-2 3.4v11.8c.2-.1.4-.3.6-.4 1.1-.6 2.3-.9 3.6-.9V34.5h34.1v43.3H32.5V83c0 1.5-.5 2.9-1.3 4.1h12.7c1 0 1.9-.4 2.7-1 .8-.7 1.4-1.8 1.4-3.1V56.8 34.2c0-1.4-.9-2.6-2.2-3.4z"/><path d="M27.3 48.4c1.2.7-.6-.3 0 0z"/><path d="M27.3 48.4c-.6-.3-1.3-.5-2-.5-6.3.1-9.3.1-15.6.1-.7 0-1.5.2-2 .6-1.3.6-2.1 1.8-2.1 3.3V83c0 2.3 1.8 4.2 4.1 4.2h15.6c1 0 1.9-.4 2.7-1 .8-.7 1.4-1.8 1.4-3.1V55.9v-4c-.1-1.5-.9-2.8-2.1-3.5zm-9.9 36c-1 0-1.8-.8-1.8-1.8s.8-1.8 1.8-1.8 1.8.8 1.8 1.8c.1 1-.7 1.8-1.8 1.8zm7.8-6.5H9.7V52h15.5v25.9z"/></g></svg></svg>