<svg xmlns="http://www.w3.org/2000/svg" width="350" height="170" viewBox="0 0 350 170">
  <path fill="#aaa" d="M0 0h350v170H0z"/>
  <path d="M113.52 132.49c-.06-.01-.27-.03-.46-.05-1.75-.18-3.62-.89-5.09-1.95-2.2-1.58-3.75-3.89-4.4-6.54-.34-1.41-.41-2.99-.19-4.44.59-3.89 3.16-7.23 6.73-8.73.89-.37 1.78-.61 2.82-.75.58-.08 1.98-.08 2.57 0 1.23.17 2.28.48 3.36 1 1.18.57 2 1.16 2.99 2.16.87.87 1.4 1.59 2.02 2.73l.13.24-.47.35c-.64.48-2.16 1.55-2.65 1.89l-.41.28-.17-.36c-.21-.45-.35-.72-.59-1.07-.95-1.42-2.47-2.44-4.13-2.76-.88-.17-1.96-.15-2.82.05-.91.21-1.89.69-2.65 1.27-.3.24-.86.79-1.11 1.1-1.33 1.66-1.81 3.78-1.36 5.89.16.73.56 1.69.99 2.32 1.13 1.68 2.85 2.76 4.8 3 .35.04 1.18.04 1.52 0 1.73-.21 3.33-1.11 4.42-2.49.32-.4.55-.75.8-1.25.11-.22.21-.4.22-.4.01 0 .81.56 1.77 1.25l1.75 1.25-.18.34c-.37.7-1 1.57-1.59 2.2-1 1.07-1.98 1.79-3.25 2.42-1.1.54-2.26.88-3.5 1.03-.24.01-1.67.04-1.87.02zm14.96-11.37v-10.95h4.24v7.86h11.08v-7.86h4.24v21.9h-4.24v-9.64h-11.08v9.64h-4.24v-10.95zm23.86 9.01c.47-1.07 2.66-5.99 4.85-10.95l3.99-9h5.96l4.82 10.81c2.65 5.95 4.85 10.87 4.89 10.94l.06.13h-5.08l-.98-2.17-.98-2.17-5.68.01-5.68.01-.97 2.16-.97 2.16h-5.08l.85-1.93zm15.73-6.82c-.02-.08-3.87-8.7-3.89-8.7-.01 0-3.67 8.55-3.73 8.71-.01.02 1.46.03 3.81.03 3.25.01 3.82 0 3.81-.04zm12.26-2.19v-10.95h5.98l4.67 6.56 4.67 6.56.01-6.56.01-6.56h4.28v21.9l-1.72-.01-1.72-.01-5.93-8.23c-3.26-4.53-5.94-8.23-5.95-8.23-.01 0-.02 3.71-.02 8.23v8.24h-4.28v-10.94zm27.34 0v-10.95h15.3v4.4h-11.02v4.38h10.2v4.4h-10.2v4.38h12.6v4.34h-16.88v-10.95zm22.87 0v-10.95h4.28v17.56h11.92v4.34h-16.18v-10.95h-.02zm-73.28-16.51c-4.57-.21-9.66-1.6-13.76-3.75-3.15-1.65-5.65-3.5-8.26-6.12-2.05-2.05-3.56-3.94-4.84-6.05l-.56-.92.79-.42c1.55-.82 8.6-4.43 8.66-4.43.03 0 .32.4.65.88 3.68 5.48 9.43 9.05 16.16 10.02 1.18.17 4.72.14 6-.05 1.43-.21 3.14-.6 4.22-.96.07-.02-.06-.24-.38-.61-2.41-2.84-4.6-6.73-5.83-10.35-2.23-6.55-2.39-13.59-.46-20.2 1.2-4.11 3.27-8.09 5.89-11.35.39-.49.71-.91.71-.95 0-.13-2.04-.67-3.38-.9-2.07-.35-5.31-.39-7.18-.1-3.15.5-6.34 1.68-8.84 3.26-2.78 1.76-5.1 4.03-6.95 6.79l-.82 1.22-1.04-.55c-.57-.3-2.7-1.4-4.72-2.45-2.03-1.05-3.69-1.91-3.7-1.92-.03-.03 1.24-2.04 1.76-2.8 1.58-2.28 4.4-5.3 6.48-6.95 5.44-4.32 11.48-6.75 18.29-7.35 1.26-.11 4.39-.11 5.61 0 4.32.4 8.02 1.44 11.85 3.35l1.83.91.61-.35c.99-.56 2.75-1.38 4.08-1.89 3.75-1.43 7.52-2.12 11.69-2.11 2.91 0 5.34.29 7.97.94 5.95 1.47 11.03 4.3 15.41 8.57 2.37 2.32 4.23 4.68 5.73 7.29l.23.4-3.7 1.91c-2.04 1.05-4.17 2.15-4.73 2.45l-1.03.54-.78-1.18c-3.85-5.8-10.14-9.58-17.02-10.22-2.04-.19-5.07-.01-6.91.4-.95.21-2.48.65-2.48.71 0 .03.25.36.56.74 3.95 4.84 6.41 10.74 7.21 17.26.19 1.56.22 5.53.04 7.07-.72 6.5-3.18 12.5-7.1 17.34-.89 1.1-.85 1.02-.57 1.13.13.05.77.23 1.4.39 3.23.82 6.71.94 9.98.33 5.94-1.1 11.29-4.61 14.74-9.68.32-.47.61-.89.64-.93s.83.31 1.76.78c1.86.93 7.67 3.94 7.73 4 .1.1-1.75 2.85-2.88 4.28-1.08 1.35-3.89 4.17-5.24 5.24-4.87 3.86-10.33 6.21-16.35 7.06-6.91.97-14.22-.33-20.18-3.57l-.84-.46-1.04.55c-5.18 2.73-11.11 4.04-17.11 3.76zm19.3-19c2.88-3.57 4.68-7.89 5.12-12.32.15-1.49.06-4.52-.17-5.87-.64-3.73-2-6.92-4.2-9.84-.41-.55-1.02-1.28-1.34-1.63l-.59-.63-.54.59c-.72.78-1.92 2.37-2.52 3.34-3.06 4.95-4.06 11.04-2.77 16.83.82 3.65 2.69 7.32 5.22 10.22l.58.67.26-.24c.14-.16.56-.65.95-1.12z"/>
</svg>
