<svg xmlns="http://www.w3.org/2000/svg" width="350" height="170" viewBox="0 0 350 170">
  <path fill="none" d="M0 0h350v170H0z"/>
  <path fill="#111" d="M178.01 66.49l-9.2-19.92h-11.88l9.51 19.92m-31.61 0l3.52-9.26 3.86 9.26h11.12l-8.84-19.92h-12.63l-8.04 19.92M97.96 46.57h10.91v19.92H97.96V46.57zm-31.98 0h10.9v19.92h-10.9V46.57zm211.24 19.92c-6.56-3.89-15.47-4.68-15.47-8.87 0-2.19 2.49-3.6 6.42-3.6 3.72 0 7.51 1.09 13.85 3.92V49.4c-5.51-2.37-9.93-3.39-14.81-3.39-10.15 0-16.69 5-16.69 12.57 0 3.4 1.04 5.93 2.67 7.91h24.03zm-83.23 0l9.09-19.92h-11.74l-8.76 19.92m35.85 0l3.52-9.26 3.87 9.26h11.11l-8.85-19.92h-12.63l-8.05 19.92m-2.12 5.28l-7.49 18.58h11.56l7.08-18.58m11.58 0l7.77 18.58h11.75l-8.26-18.58m-70.32 0l9.16 19.14h4.75l8.75-19.14m69.65 0c5.69 2.31 11.52 3.42 11.52 7.08 0 2.58-2.25 4.05-6.42 4.05-4.82 0-8.66-1.47-14.96-5.65v9.44c4.37 2.23 8.16 4.22 15.8 4.22 9.75 0 16.8-4.87 16.8-13.27 0-2.33-.51-4.26-1.4-5.88l-21.34.01zm-163.3-.01h10.91v18.59H97.96V71.76zm-31.98 0h10.9v18.59h-10.9V71.76zm55.71.01l-7.5 18.58h11.56l7.07-18.58m11.6 0l7.77 18.58h11.74l-8.25-18.58m-89.7 28.4h218.03v2.35H65.98v-2.35zm0 23.82v-14.91h3.31l3.93 10.56c.36.98.63 1.72.79 2.21.19-.54.48-1.34.88-2.39l3.97-10.38h2.96v14.91H79.7V111.5l-4.83 12.48h-1.98l-4.8-12.7v12.7h-2.11zm57.58 0v-14.91h8.28v1.76h-6.76v4.57h6.33v1.75h-6.33v5.08h7.03V124l-8.55-.01zm49.94 0v-14.91h4.76c1.07 0 1.89.07 2.46.21.79.2 1.47.55 2.03 1.07.73.66 1.27 1.51 1.64 2.55.36 1.04.54 2.22.54 3.54 0 1.13-.12 2.14-.37 3.01-.24.87-.56 1.6-.94 2.17-.38.57-.8 1.02-1.26 1.35-.45.33-1 .58-1.65.75-.64.17-1.38.25-2.22.25l-4.99.01zm1.83-1.76h2.95c.91 0 1.62-.09 2.14-.28.52-.18.93-.44 1.24-.77.43-.47.77-1.09 1.01-1.89.24-.79.36-1.75.36-2.87 0-1.56-.24-2.76-.71-3.59-.47-.84-1.05-1.4-1.73-1.68-.49-.2-1.28-.31-2.36-.31h-2.9v11.39zm51.66 1.76v-14.91h2v14.91h-2zm42.67 0l5.79-14.91h2.15l6.17 14.91h-2.27l-1.76-4.52h-6.31l-1.66 4.52h-2.11zm4.35-6.12h5.11l-1.57-4.13c-.48-1.25-.84-2.29-1.07-3.09-.19.96-.46 1.91-.81 2.85l-1.66 4.37z"/>
</svg>
