<svg xmlns="http://www.w3.org/2000/svg" width="350" height="170" viewBox="0 0 350 170">
  <path fill="none" d="M0 0h350v170H0z"/>
  <path fill="#111" d="M306.26 65.71c0-.66-.46-1.17-1.08-1.17h-1.11c-.25 0-.35.1-.35.36v1.72c0 .26.1.36.35.36h1.11c.62 0 1.08-.51 1.08-1.17v-.1zm.07 2.23c0 .03 0 .07.03.1l.88 1.83c.03.07.06.13.06.21 0 .18-.13.29-.38.29h-.55c-.13-.02-.25-.1-.31-.23l-.81-1.92c-.02-.08-.13-.15-.31-.24h-.87c-.25 0-.35.11-.35.37V70c0 .26-.1.36-.35.36h-.38c-.25 0-.35-.1-.35-.36v-6.14c0-.26.1-.37.35-.37h2.2c1.33 0 2.2.91 2.2 2.29v.15c0 1.05-1.05 1.56-1.06 2.01zm3.76-1.21c0-3.07-2.07-5.11-5.24-5.11h-.13c-3.17 0-5.24 2.05-5.24 5.11v.74c0 3.07 2.06 5.1 5.24 5.1h.13c3.17 0 5.24-2.03 5.24-5.1v-.74zm-5.23 6.95h-.13c-3.8 0-6.27-2.48-6.27-6.2v-.74c0-3.72 2.47-6.2 6.27-6.2h.13c3.8 0 6.28 2.47 6.28 6.2v.74c.01 3.72-2.47 6.2-6.28 6.2zM64.92 98.61c0 5.39-3.18 8.66-8.69 8.66-5.5 0-8.69-3.27-8.69-8.66V72.49c0-.67-.29-.97-.97-.97h-6.75c-.69 0-.97.28-.97.97v26.48c0 9.73 5.46 16.46 15.12 16.46 7.3 0 9.97-3.76 11.23-3.76.39 0 .67.38.67 1.06v1.18c0 .67.29.96.98.96h5.78c.69 0 .97-.29.97-.96V72.49c0-.67-.28-.97-.95-.97H65.9c-.67 0-.97.28-.97.97v26.12zm22.99-10.82c0-5.39 3.18-8.66 8.69-8.66s8.69 3.27 8.69 8.68v26.12c0 .67.28.96.96.96H113c.67 0 .97-.29.97-.97v-26.5c0-9.73-5.46-16.46-15.12-16.46-7.23 0-9.98 3.78-11.23 3.78-.39 0-.67-.38-.67-1.06V72.5c0-.67-.29-.97-.97-.97H80.2c-.69 0-.97.28-.97.97v41.41c0 .67.28.96.97.96h6.75c.67 0 .97-.29.97-.97l-.01-26.11zm40.72 26.1v-41.4c0-.67-.29-.96-.97-.96h-6.74c-.69 0-.97.28-.97.96v41.41c0 .67.28.96.97.96h6.74c.69 0 .97-.29.97-.97zm45.02-41.02c.29-.67 0-1.35-.87-1.35h-7.05c-.64-.01-1.21.37-1.45.97l-10.99 30.33-11-30.33c-.24-.6-.82-.98-1.45-.97h-7.06c-.87 0-1.15.66-.87 1.35l16.21 41.03c.2.48.78.96 1.55.96h5.22c.76 0 1.35-.48 1.54-.97l16.22-41.02zm26.81 26.29c0 5.39-4.44 8.56-10.13 8.56-4.44 0-7.53-1.44-7.53-5.38 0-3.46 2.42-5.48 7.14-5.48h9.56c.57 0 .96.38.96.97v1.33zm0-10.2c0 .68-.28.97-.96.97h-10.43c-8.98 0-15.25 4.71-15.25 12.62 0 6.92 4.92 12.8 13.89 12.8 7.84 0 11.68-3.67 12.94-3.67.38 0 .67.38.67 1.06v1.18c0 .67.29.96.95.96h5.8c.67 0 .97-.29.97-.97V84.44c0-8.56-6.73-13.88-16.83-13.88-7.25 0-13.55 3.37-16.26 9.06-.28.57-.08 1.06.49 1.35l5.79 3.09c.38.2.87.2 1.16-.29 1.64-3.08 4.47-5.39 9.02-5.39 4.99 0 8.04 2.45 8.04 6.48l.01 4.1zm39.23 9.83c0 5.38-3.17 8.66-8.67 8.66s-8.68-3.28-8.68-8.66V87.6c0-5.38 3.18-8.66 8.68-8.66 5.51 0 8.67 3.28 8.67 8.66v11.19zm-10.94 16.64c7.41 0 9.97-3.76 11.23-3.76.38 0 .67.38.67 1.06v1.18c0 .67.29.96.96.96h5.79c.67 0 .96-.29.96-.97V55.16c0-.67-.29-.97-.96-.97h-6.75c-.67 0-.97.29-.97.97v18.12c0 .67-.28 1.06-.67 1.06-1.26 0-3.01-3.39-10.26-3.39-9.65 0-15.12 6.74-15.12 16.46v11.55c.01 9.74 5.47 16.47 15.12 16.47zm34.84-1.54v-41.4c0-.67-.29-.96-.97-.96h-6.77c-.67 0-.96.28-.96.96v41.41c0 .67.28.96.96.96h6.77c.68 0 .97-.29.97-.97zm38.75-12.51c0-15.71-23.84-8.75-23.84-17.05V83c0-3.37 3.18-4.64 7.33-4.64s6.87 1.8 8.51 4.88c.29.48.78.48 1.16.29l5.8-3.09c.57-.28.76-.76.47-1.34-2.69-5.69-9.09-8.55-15.94-8.55-9.84 0-16.41 5.03-16.41 13.21v1.15c0 15.71 23.66 9.43 23.66 17.05v1.44c0 3.47-3.26 4.62-7.51 4.62-4.15 0-7.62-2.3-9.27-5.4-.29-.48-.87-.48-1.26-.28l-5.89 3.08c-.56.29-.76.78-.48 1.35 2.8 5.67 9.93 9.05 16.88 9.05 10.14 0 16.78-4.43 16.78-13.19l.01-1.25z"/>
</svg>
