<svg xmlns="http://www.w3.org/2000/svg" width="350" height="170" viewBox="0 0 350 170">
  <path fill="none" d="M0 0h350v170H0z"/>
  <path fill="#111" d="M210.54 89.01c-3.4 0-5.08 1.16-5.08 4.88v11.98h10.08V94.03c0-4.06-1.98-5.02-5-5.02zm-17.65.06c-3.53 0-5.06 1.22-5.06 5v11.78h10.13V94.01c.01-3.78-1.91-4.94-5.07-4.94zM73.14 94.54h17.55v11.33H73.14V94.54zm51.62-.33c0-3.85-3.79-6.35-7.89-6.35-3.92 0-7.63 2.57-7.63 6.35 0 3.91 3.14 6.93 7.63 6.93 4.94-.01 7.89-2.89 7.89-6.93zm115.3 7.12c2.9-1.16 5.77-4.16 5.51-5-.26-.71-4.24-1.16-7.24-.25-2.18.71-4.88 1.92-4.31 3.91.64 2.36 3.92 2.24 6.04 1.34z"/>
  <path fill="#111" d="M52.74 43.04v62.83h12.9V75.93h7.51v11.75H90.7V75.93h7.51v29.94h10.86c-4.39-2.42-7.07-6.84-7.07-11.66 0-7.12 7.12-13.08 14.88-13.08 8.08 0 14.95 6.29 14.95 13.08 0 4.86-2.67 9.25-7.06 11.66h13.47V91.9h-3.92v-6.74h3.98v-1.67c0-4.18 3.33-7.57 7.44-7.9 3.21-.26 4.62-.26 7.57.77v5.83s-2.18-.71-4.81-.51c-3.14.18-2.76 3.46-2.76 3.46h7.51v6.74h-7.51v14h15.01V91.9h-3.91v-6.74h3.98v-1.67c0-4.18 3.33-7.57 7.44-7.9 3.21-.26 4.62-.26 7.57.77v5.83s-2.18-.71-4.81-.51c-3.14.18-2.76 3.46-2.76 3.46h7.51v6.74h-7.51v14h12.13v-23.4h7.38v1.61h.32c1.98-1.35 5.59-1.74 8.91-1.74 3.02 0 5.33.96 7 1.8 2.12-1.02 5.2-1.8 8.2-1.8 8.59 0 10.86 3.92 10.86 9.63v13.91h7c-1.85-1-3.09-2.8-3.09-6.07 0-11.29 19.06-8.08 19.06-9.04 0-2.7-1.92-3.78-5.2-3.78-2.43 0-4.04.32-4.62 1.67h-7.44c.71-5.08 4.36-6.74 11.67-6.74 9.37 0 10.08 2.69 11.37 4.61.63.96.77 3.66.77 3.66v15.7h5.01V82.54h7.45v1.61h.32c1.98-1.34 5.59-1.73 8.92-1.73 8.67 0 10.84 3.92 10.84 9.63v13.83H297V43.04H52.74z"/>
  <path fill="#111" d="M245.45 104.41c-.91.55-1.95 1.03-2.99 1.45h2.99v-1.45zm26.31-15.47c-2.82 0-6.67.51-6.67 5.2v11.72h12.51V94.07c-.01-3.84-3.15-5.13-5.84-5.13zM70.59 123.22c0 .4 0 .84.46.84.1 0 .22-.01.38-.04v.43c-.15.02-.28.05-.43.05-.82 0-.94-.45-.94-1.01v-.36h-.02c-.33.83-1.27 1.55-2.58 1.55s-2.32-.5-2.32-1.96c0-1.63 1.41-1.96 2.56-2.06 2.3-.16 2.4-.32 2.4-1.45 0-.3-.35-1.36-1.93-1.36-1.24 0-2.07.66-2.14 1.86h-.53c.07-1.53 1.01-2.3 2.65-2.3 1.22 0 2.43.38 2.43 1.81l.01 4zm-.51-2.66c-.4.46-1.52.4-2.52.54-1.22.13-1.91.57-1.91 1.62 0 .84.61 1.51 1.83 1.51 2.35 0 2.6-2.01 2.6-2.37v-1.3zm16.04-3.01v6.6c0 .55 0 3.11-3.01 3.02-1.5 0-2.64-.56-2.73-2.17h.51c.11 1.23 1.08 1.72 2.23 1.72 2.43 0 2.48-2 2.48-2.45v-1.6h-.02c-.49 1.03-1.34 1.58-2.52 1.58-2.04 0-3.01-1.51-3.01-3.45 0-1.84 1.05-3.42 3.01-3.42 1.08 0 2.14.57 2.52 1.61h.02v-1.45l.52.01zm-5.55 3.26c0 1.64.85 2.99 2.49 2.99 1.69 0 2.53-1.42 2.53-2.99 0-1.56-.83-2.98-2.53-2.98-1.68 0-2.49 1.51-2.49 2.98zm15.13.28c-.02 1.64.84 3.13 2.56 3.13 1.31 0 2.25-.79 2.5-2.07h.51c-.27 1.62-1.35 2.52-3.01 2.52-2.03 0-3.1-1.59-3.08-3.52-.02-1.91.97-3.76 3.08-3.76 2.18 0 3.15 1.72 3.06 3.71l-5.62-.01zm5.11-.43c-.02-1.46-.95-2.81-2.54-2.81-1.55 0-2.46 1.44-2.56 2.81h5.1zm9.3-3.11h.51v1.5h.02c.35-1.05 1.41-1.65 2.5-1.65 2.45 0 2.48 1.96 2.48 2.81v4.31h-.51v-4.4c0-.72-.08-2.28-1.97-2.28-1.56 0-2.51 1.21-2.51 2.91v3.76h-.51l-.01-6.96zm19.86 2.16c-.1-1.23-1.1-1.88-2.36-1.88-1.75 0-2.68 1.55-2.68 3.13 0 1.89.88 3.26 2.68 3.26 1.3 0 2.25-.89 2.42-2.17h.51c-.23 1.67-1.44 2.62-2.95 2.62-2.26 0-3.2-1.78-3.2-3.71s1.14-3.58 3.2-3.58c1.51 0 2.73.73 2.87 2.31l-.49.02zm9.58 1.38c-.02 1.64.84 3.13 2.56 3.13 1.31 0 2.25-.79 2.49-2.07h.51c-.27 1.62-1.35 2.52-3 2.52-2.03 0-3.1-1.59-3.08-3.52-.02-1.91.97-3.76 3.08-3.76 2.18 0 3.15 1.72 3.07 3.71l-5.63-.01zm5.11-.43c-.02-1.46-.95-2.81-2.54-2.81-1.55 0-2.45 1.44-2.56 2.81h5.1zm20.93-3.11h.51v1.5h.03c.35-1.05 1.41-1.65 2.49-1.65 2.45 0 2.48 1.96 2.48 2.81v4.31h-.51v-4.4c0-.72-.08-2.28-1.97-2.28-1.56 0-2.51 1.21-2.51 2.91v3.76h-.51l-.01-6.96zm20.14 6.96h-.51v-1.5h-.03c-.35 1.05-1.41 1.66-2.49 1.66-2.46 0-2.48-1.96-2.48-2.81v-4.31h.51v4.41c0 .72.08 2.28 1.97 2.28 1.56 0 2.51-1.21 2.51-2.91v-3.77h.51l.01 6.95zm9.11-6.96h.51v1.42h.02c.22-.88 1.14-1.58 2.18-1.58 1.33 0 1.95.75 2.1 1.47h.03c.4-.95 1.08-1.47 2.2-1.47 1.27 0 2.18.73 2.18 2.37v4.75h-.51v-4.77c0-1.78-1.27-1.91-1.67-1.91-1.27 0-2.18.9-2.18 2.56v4.11h-.51v-4.77c0-1.75-1.19-1.91-1.64-1.91-.99 0-2.2.77-2.2 2.56v4.11h-.51v-6.94zm18.56 3.54c-.02 1.64.84 3.13 2.56 3.13 1.32 0 2.25-.79 2.5-2.07h.51c-.27 1.62-1.35 2.52-3.01 2.52-2.03 0-3.1-1.59-3.08-3.52-.03-1.91.97-3.76 3.08-3.76 2.18 0 3.15 1.72 3.07 3.71l-5.63-.01zm5.1-.43c-.02-1.46-.95-2.81-2.54-2.81-1.55 0-2.46 1.44-2.56 2.81h5.1zm-1.7-6.05h.69l-1.81 1.9h-.5l1.62-1.9zm11.52 4.49h.04c.27-.91 1.41-1.64 2.67-1.58v.51c-.55-.07-1.3.06-1.92.68-.51.52-.73.96-.78 2.01v3.81h-.51v-6.96h.51l-.01 1.53zm10.97-2.86v-1.4h.51v1.4h-.51zm0 8.27v-6.96h.51v6.96h-.51zm15.12-1.55h-.02c-.37 1.1-1.44 1.72-2.57 1.72-2.11 0-3.1-1.59-3.1-3.66 0-1.92.9-3.63 3.01-3.63 1.24 0 2.09.56 2.67 1.66h.02v-1.5h.51V127h-.51l-.01-4.04zm-.02-1.94c0-1.59-.82-3.19-2.57-3.19-1.79 0-2.6 1.55-2.6 3.19 0 1.68.74 3.21 2.59 3.21 1.78-.01 2.58-1.59 2.58-3.21zm15.27 3.49h-.51v-1.5h-.02c-.35 1.05-1.41 1.66-2.5 1.66-2.46 0-2.48-1.96-2.48-2.81v-4.31h.51v4.41c0 .72.09 2.28 1.97 2.28 1.56 0 2.51-1.21 2.51-2.91v-3.77h.51l.01 6.95zm9.31-3.42c-.02 1.64.84 3.13 2.56 3.13 1.31 0 2.25-.79 2.5-2.07h.51c-.27 1.62-1.35 2.52-3.01 2.52-2.03 0-3.1-1.59-3.08-3.52-.02-1.91.97-3.76 3.08-3.76 2.18 0 3.15 1.72 3.07 3.71l-5.63-.01zm5.11-.43c-.02-1.46-.95-2.81-2.54-2.81-1.55 0-2.45 1.44-2.56 2.81h5.1z"/>
</svg>
