<svg xmlns="http://www.w3.org/2000/svg" width="350" height="170" viewBox="0 0 350 170">
  <path fill="none" d="M0 0h350v170H0z"/>
  <path fill="#111" d="M36.04 100.31v-6.99h2.97v-13.3h-2.97v-7.03h16.82v7.03h-2.97v13.29h5.36v-5.73h8.48v12.72H36.04zm29.43 0v-6.99h2.97v-13.3h-2.97v-7.03h29.17v12.76h-8.48v-5.73h-6.84v4.1h5v5.07h-5v4.13h6.84V87.6h8.48v12.72H65.47v-.01zm46.34.69c-2.75 0-5.76-1.09-7.1-2.9v2.21h-8.26v-9.89h8.12c0 2.71 1.92 4.02 4.42 4.02 1.38 0 2.29-.87 2.29-2.07 0-3.26-14.82-.72-14.82-11.31 0-4.74 5.03-8.77 11.27-8.77 2.75 0 5.03 1.16 6.27 2.9l.04-2.21h7.5v9.53h-7.39c0-2.71-1.81-4.02-4.31-4.02-1.38 0-2.29.87-2.29 2.06 0 3.26 14.82 1.09 14.82 11.67-.02 4.75-4.33 8.78-10.56 8.78zm20.5-.69v-6.99h2.97v-13.3h-2.97v-7.03h29.17v12.76h-8.47v-5.73h-6.85v4.1h5v5.07h-5v4.13h6.85V87.6h8.48v12.72h-29.18v-.01zm59.85-20.29l-8.12 20.3h-9.96l-8.12-20.3h-2.79v-7.03h16.63v7.03h-2.21l3.12 9.93 3.15-9.93h-2.22v-7.03h12.9v7.03h-2.38zm13.5 20.29v-6.99h2.21l-.61-2.1h-5.07l-.58 2.1h2.21v6.99h-12.93v-6.99h2.39l7.39-20.33h11.45l7.39 20.33h2.75v6.99h-16.6zm-.94-17.68l-1.33 4.64h2.71l-1.38-4.64zm35.7 17.68h-16.46v-6.99h2.97v-13.3h-2.97v-7.03h16.46c7.93 0 14.35 5.18 14.35 13.66s-6.4 13.66-14.35 13.66zm2.61-16.74c0-2.03-.72-3.55-2.61-3.55h-2.61v13.29h2.61c1.88 0 2.61-1.56 2.61-3.58v-6.16zm13.01 16.74v-6.99h2.97v-13.3h-2.97v-7.03h29.17v12.76h-8.48v-5.73h-6.85v4.1h5v5.07h-5v4.13h6.85V87.6h8.48v12.72h-29.17v-.01zm46.31.69c-2.75 0-5.76-1.09-7.1-2.9v2.21h-8.26v-9.89h8.12c0 2.71 1.92 4.02 4.42 4.02 1.38 0 2.28-.87 2.28-2.07 0-3.26-14.82-.72-14.82-11.31 0-4.74 5.03-8.77 11.27-8.77 2.75 0 5.04 1.16 6.26 2.9l.04-2.21h7.5v9.53h-7.39c0-2.71-1.81-4.02-4.32-4.02-1.38 0-2.28.87-2.28 2.06 0 3.26 14.82 1.09 14.82 11.67 0 4.75-4.31 8.78-10.54 8.78zM132.29 68.07h29.22v3h-29.22v-3zM255.99 68.07h29.22v3h-29.22v-3z"/>
</svg>
