<svg xmlns="http://www.w3.org/2000/svg" width="350" height="170" viewBox="-14.46 -4.5 350 170">
  <path fill="#FFF" d="M22.54 20.5h276v120h-276z"/>
  <path d="M190.12 85.85c-2.79 0-4.17.95-4.17 4.01v9.84h8.28v-9.73c0-3.33-1.63-4.12-4.11-4.12zM175.62 85.9c-2.9 0-4.16 1-4.16 4.11v9.68h8.32v-9.73c.01-3.11-1.57-4.06-4.16-4.06zM77.23 90.39h14.42v9.31H77.23zM119.64 90.12c0-3.16-3.11-5.22-6.48-5.22-3.22 0-6.27 2.11-6.27 5.22 0 3.21 2.58 5.69 6.27 5.69 4.06 0 6.48-2.37 6.48-5.69zM214.37 95.97c2.38-.95 4.74-3.42 4.53-4.11-.21-.58-3.48-.95-5.95-.21-1.79.58-4.01 1.58-3.54 3.21.53 1.95 3.22 1.85 4.96 1.11z"/>
  <path d="M60.47 48.08V99.7h10.6V75.1h6.17v9.65h14.42V75.1h6.17v24.6h8.92c-3.61-1.99-5.81-5.62-5.81-9.58 0-5.85 5.85-10.75 12.23-10.75 6.64 0 12.28 5.17 12.28 10.75 0 3.99-2.19 7.6-5.8 9.58h11.07V88.22h-3.22v-5.54h3.27v-1.37c0-3.43 2.74-6.22 6.11-6.49 2.64-.21 3.8-.21 6.22.63v4.79s-1.79-.58-3.95-.42c-2.58.15-2.27 2.84-2.27 2.84h6.17v5.54h-6.17v11.5h12.33V88.22H146v-5.54h3.27v-1.37c0-3.43 2.74-6.22 6.11-6.49 2.64-.21 3.8-.21 6.22.63v4.79s-1.79-.58-3.95-.42c-2.58.15-2.27 2.84-2.27 2.84h6.17v5.54h-6.17v11.5h9.97V80.47h6.06v1.32h.26c1.63-1.11 4.59-1.43 7.32-1.43 2.48 0 4.38.79 5.75 1.48 1.74-.84 4.27-1.48 6.74-1.48 7.06 0 8.92 3.22 8.92 7.91V99.7h5.75c-1.52-.82-2.54-2.3-2.54-4.99 0-9.28 15.66-6.64 15.66-7.43 0-2.22-1.58-3.11-4.27-3.11-2 0-3.32.26-3.8 1.37h-6.11c.58-4.17 3.58-5.54 9.59-5.54 7.7 0 8.28 2.21 9.34 3.79.52.79.63 3.01.63 3.01v12.9h4.12V80.53h6.12v1.32h.26c1.63-1.1 4.59-1.42 7.33-1.42 7.12 0 8.91 3.22 8.91 7.91V99.7h9.77V48.08H60.47z"/>
  <path d="M218.8 98.5c-.75.45-1.6.85-2.46 1.19h2.46V98.5zM240.42 85.79c-2.32 0-5.48.42-5.48 4.27v9.63h10.28v-9.68c-.01-3.16-2.59-4.22-4.8-4.22z"/>
  <g>
    <path d="M75.13 113.96c0 .33 0 .69.38.69.08 0 .18-.01.31-.03v.35c-.12.02-.23.04-.35.04-.67 0-.77-.37-.77-.83v-.3h-.02c-.27.68-1.04 1.27-2.12 1.27s-1.91-.41-1.91-1.61c0-1.34 1.16-1.61 2.1-1.69 1.89-.13 1.97-.26 1.97-1.19 0-.25-.29-1.12-1.59-1.12-1.02 0-1.7.54-1.76 1.53h-.42c.06-1.26.83-1.89 2.18-1.89 1 0 2 .31 2 1.49v3.29zm-.42-2.19c-.33.38-1.25.33-2.07.44-1 .11-1.57.47-1.57 1.33 0 .69.5 1.24 1.5 1.24 1.93 0 2.14-1.65 2.14-1.95v-1.06zM87.89 109.3v5.42c0 .45 0 2.56-2.47 2.48-1.23 0-2.17-.46-2.24-1.78h.42c.09 1.01.89 1.41 1.83 1.41 2 0 2.04-1.64 2.04-2.01v-1.31h-.02c-.4.85-1.1 1.3-2.07 1.3-1.68 0-2.47-1.24-2.47-2.83 0-1.51.86-2.81 2.47-2.81.89 0 1.76.47 2.07 1.32h.02v-1.19h.42zm-4.56 2.68c0 1.35.7 2.46 2.05 2.46 1.39 0 2.08-1.17 2.08-2.46 0-1.28-.68-2.45-2.08-2.45-1.38 0-2.05 1.24-2.05 2.45zM95.76 112.21c-.02 1.35.69 2.57 2.1 2.57 1.08 0 1.85-.65 2.05-1.7h.42c-.22 1.33-1.11 2.07-2.47 2.07-1.67 0-2.55-1.31-2.53-2.89-.02-1.57.8-3.09 2.53-3.09 1.79 0 2.59 1.41 2.51 3.05l-4.61-.01zm4.2-.36c-.02-1.2-.78-2.31-2.09-2.31-1.27 0-2.02 1.18-2.1 2.31h4.19zM107.6 109.3h.42v1.23h.02c.29-.86 1.16-1.36 2.05-1.36 2.01 0 2.04 1.61 2.04 2.31v3.54h-.42v-3.62c0-.59-.07-1.87-1.62-1.87-1.28 0-2.06.99-2.06 2.39v3.09h-.42l-.01-5.71zM123.92 111.07c-.08-1.01-.9-1.54-1.94-1.54-1.44 0-2.2 1.27-2.2 2.57 0 1.55.72 2.68 2.2 2.68 1.07 0 1.85-.73 1.99-1.78h.42c-.19 1.37-1.18 2.15-2.42 2.15-1.86 0-2.63-1.46-2.63-3.05 0-1.59.94-2.94 2.63-2.94 1.24 0 2.24.6 2.36 1.9l-.41.01zM131.79 112.21c-.02 1.35.69 2.57 2.1 2.57 1.08 0 1.85-.65 2.05-1.7h.42c-.22 1.33-1.11 2.07-2.47 2.07-1.67 0-2.55-1.31-2.53-2.89-.02-1.57.8-3.09 2.53-3.09 1.79 0 2.59 1.41 2.52 3.05l-4.62-.01zm4.2-.36c-.02-1.2-.78-2.31-2.09-2.31-1.27 0-2.01 1.18-2.1 2.31h4.19zM153.19 109.3h.42v1.23h.02c.29-.86 1.16-1.36 2.05-1.36 2.01 0 2.04 1.61 2.04 2.31v3.54h-.42v-3.62c0-.59-.07-1.87-1.62-1.87-1.28 0-2.06.99-2.06 2.39v3.09h-.42l-.01-5.71zM169.73 115.02h-.42v-1.23h-.02c-.29.86-1.16 1.36-2.05 1.36-2.02 0-2.04-1.61-2.04-2.31v-3.54h.42v3.62c0 .59.07 1.87 1.62 1.87 1.28 0 2.06-.99 2.06-2.39v-3.1h.42l.01 5.72zM177.22 109.3h.42v1.17h.02c.18-.72.94-1.3 1.79-1.3 1.09 0 1.6.62 1.73 1.21h.02c.33-.78.89-1.21 1.81-1.21 1.04 0 1.79.6 1.79 1.95v3.9h-.42v-3.92c0-1.46-1.04-1.57-1.37-1.57-1.04 0-1.79.74-1.79 2.1v3.38h-.42v-3.92c0-1.44-.98-1.57-1.35-1.57-.81 0-1.81.63-1.81 2.1V115h-.42v-5.7zM192.47 112.21c-.02 1.35.69 2.57 2.1 2.57 1.08 0 1.85-.65 2.05-1.7h.42c-.22 1.33-1.11 2.07-2.47 2.07-1.67 0-2.55-1.31-2.53-2.89-.02-1.57.8-3.09 2.53-3.09 1.79 0 2.59 1.41 2.52 3.05l-4.62-.01zm4.19-.36c-.02-1.2-.78-2.31-2.09-2.31-1.27 0-2.02 1.18-2.1 2.31h4.19zm-1.4-4.97h.57l-1.49 1.56h-.41l1.33-1.56zM204.73 110.57h.03c.22-.75 1.16-1.35 2.19-1.3v.42c-.45-.06-1.07.05-1.58.56-.42.43-.6.79-.64 1.65v3.13h-.42v-5.72h.42v1.26zM213.74 108.22v-1.15h.42v1.15h-.42zm0 6.8v-5.72h.42v5.72h-.42zM226.16 113.74h-.02c-.3.9-1.18 1.41-2.11 1.41-1.73 0-2.55-1.31-2.55-3.01 0-1.58.74-2.98 2.47-2.98 1.02 0 1.72.46 2.19 1.36h.02v-1.23h.42v7.77h-.42v-3.32zm-.01-1.59c0-1.31-.67-2.62-2.11-2.62-1.47 0-2.14 1.27-2.14 2.62 0 1.38.61 2.64 2.13 2.64 1.46-.01 2.12-1.31 2.12-2.64zM238.69 115.02h-.42v-1.23h-.02c-.29.86-1.16 1.36-2.05 1.36-2.02 0-2.04-1.61-2.04-2.31v-3.54h.42v3.62c0 .59.07 1.87 1.62 1.87 1.28 0 2.06-.99 2.06-2.39v-3.1h.42l.01 5.72zM246.34 112.21c-.02 1.35.69 2.57 2.1 2.57 1.08 0 1.85-.65 2.05-1.7h.42c-.22 1.33-1.11 2.07-2.47 2.07-1.67 0-2.55-1.31-2.53-2.89-.02-1.57.8-3.09 2.53-3.09 1.79 0 2.59 1.41 2.52 3.05l-4.62-.01zm4.2-.36c-.02-1.2-.78-2.31-2.09-2.31-1.27 0-2.01 1.18-2.1 2.31h4.19z"/>
  </g>
</svg>
