<svg baseProfile="tiny" xmlns="http://www.w3.org/2000/svg" width="283.144" height="90.362" viewBox="0 0 283.144 90.362" overflow="scroll">
  <g id="first-word-part1" fill="#12100B">
    <path d="M71.623 57.168l.536-7.63.91-22.29.1-4.337c.02-1.37.02-2.44.02-3.21 1.33.02 2.44.03 3.33.03.73 0 1.75-.01 3.06-.02l2.91 4.83 17.66 27.36 1.12-32.2 2.38.03 2.35-.02-.59 9.61-.72 16.94-.32 10.93c-1.05-.03-2.08-.05-3.1-.05-.93 0-2 .02-3.23.06l-2.44-4.06-18.09-27.86c-.07 1.03-.15 2.64-.22 4.83l-.75 19.41-.16 7.66c-1.16-.03-1.94-.05-2.33-.05-.29 0-1.11.02-2.46.06zm62.85-4.364c-.212 1.007-.426 2.287-.64 3.843-1.71.44-3.19.736-4.445.892s-2.505.23-3.75.23c-2.226 0-4.224-.28-5.995-.83-1.77-.55-3.29-1.51-4.552-2.87s-2.17-2.93-2.72-4.68c-.55-1.76-.83-3.62-.83-5.57 0-2.73.51-5.26 1.53-7.59s2.54-4.17 4.58-5.51 4.62-2.01 7.76-2.01c1.62 0 3.17.24 4.65.72 1.48.48 2.71 1.22 3.69 2.21s1.74 2.21 2.27 3.66c.53 1.45.8 3.04.8 4.76 0 .66-.05 1.3-.16 1.92h-20.37c-.07 1-.11 1.77-.11 2.3 0 1.92.4 3.69 1.18 5.31.79 1.62 1.94 2.84 3.47 3.68s3.3 1.25 5.29 1.25c2.3 0 5.09-.59 8.38-1.76zM116.48 39.738h15.91c-.017-1.153-.088-2.05-.212-2.69-.125-.64-.356-1.304-.694-1.99-.338-.686-.796-1.28-1.375-1.784-.58-.503-1.28-.887-2.09-1.153-.81-.26-1.69-.39-2.63-.39-1.02 0-1.98.15-2.9.44-.92.29-1.73.7-2.43 1.21-.71.52-1.3 1.12-1.79 1.8-.49.69-.86 1.35-1.1 1.99-.24.64-.48 1.5-.71 2.58zm38.356-11.008c1.87 0 3.648.275 5.34.824 1.69.55 3.154 1.418 4.392 2.608s2.176 2.69 2.816 4.5.96 3.725.96 5.738c0 2.178-.342 4.264-1.026 6.26-.686 1.993-1.646 3.687-2.884 5.077s-2.75 2.41-4.538 3.06c-1.79.65-3.707.975-5.754.975-1.904 0-3.702-.293-5.393-.878-1.7-.586-3.16-1.5-4.4-2.745-1.24-1.25-2.18-2.77-2.82-4.57-.64-1.81-.96-3.7-.96-5.67 0-2.98.58-5.67 1.76-8.06s2.9-4.17 5.18-5.36c2.28-1.18 4.71-1.77 7.31-1.77zm-.12 3.487c-1.813 0-3.48.467-5 1.4s-2.644 2.338-3.37 4.213c-.73 1.876-1.094 3.92-1.094 6.135 0 1.94.302 3.683.906 5.23.604 1.545 1.6 2.794 2.986 3.745 1.386.952 3.057 1.428 5.012 1.428 1.333 0 2.595-.233 3.786-.7 1.19-.467 2.23-1.24 3.12-2.32.888-1.078 1.545-2.4 1.972-3.965.426-1.565.64-3.207.64-4.928 0-1.61-.214-3.12-.64-4.53-.427-1.408-1.08-2.538-1.96-3.39-.88-.85-1.875-1.45-2.985-1.797-1.12-.347-2.24-.52-3.38-.52z"></path>
  </g>
  <g id="first-word-part2" fill="#FFF">
    <path d="M174.03 57.168c.407-4.722.757-10.49 1.05-17.307s.475-13.53.546-20.16c1.23.02 2.164.03 2.806.03l2.485-.02-.853 17.39-.64 16.4 5.072.03c3.772 0 6.43-.01 7.968-.04 1.54-.03 3.03-.08 4.472-.18-.107 1.16-.196 2.45-.268 3.87-4.04-.03-7.608-.05-10.706-.05l-11.933.06z"></path>
    <path d="M196.055 69.877c-.124-1.545-.275-2.854-.454-3.925.9.438 1.72.736 2.49.892.77.155 1.42.233 1.95.233.7 0 1.38-.13 2.03-.386.66-.25 1.2-.59 1.61-1.02.41-.42.84-1 1.3-1.75.46-.74.94-1.62 1.45-2.62s1-2.12 1.46-3.35l-5.69-16.66-4.17-11.91c1.3.04 2.16.06 2.59.06.5 0 1.31-.01 2.43-.05.29 1.28.53 2.26.73 2.94.2.68.63 2.06 1.29 4.15l4.04 12.59c.45 1.43.9 2.97 1.34 4.61l3.02-7.57 5.59-13.41c.16-.4.32-.82.47-1.25.15-.43.39-1.11.71-2.04 1.14.04 1.92.06 2.37.06.38 0 1.2-.01 2.47-.05-.69 1.63-2.37 5.43-5.04 11.39l-9.89 22.63c-.7 1.52-1.33 2.67-1.9 3.46-.46.62-.96 1.16-1.49 1.62-.42.39-.91.72-1.44.99-.66.33-1.37.59-2.14.77-.83.19-1.69.28-2.56.28-1.38 0-2.87-.2-4.49-.6zm31.075-12.71c.853-11.473 1.295-20.74 1.33-27.805l2.406.027c.588 0 1.363-.01 2.325-.03l-.35 5.49c.45-.77.8-1.36 1.07-1.77.27-.42.63-.85 1.07-1.31.45-.46.97-.89 1.58-1.28s1.32-.73 2.14-.99c.82-.27 1.65-.46 2.5-.59.85-.13 1.69-.19 2.53-.19 1.53 0 3.01.19 4.43.57 1.43.38 2.6 1.01 3.51 1.88s1.53 1.84 1.85 2.92c.32 1.08.47 2.24.47 3.48 0 .24-.01.69-.02 1.37-.02.67-.05 1.56-.1 2.66l-.53 11.5c-.03 1.1-.06 2.44-.08 4.03-.8-.04-1.56-.06-2.27-.06-.87 0-1.69.02-2.46.05.18-2.22.31-4.35.4-6.4l.35-6.4c.11-2.2.17-3.85.17-4.97 0-1.61-.27-2.9-.8-3.86s-1.39-1.71-2.56-2.23c-1.17-.52-2.49-.78-3.95-.78-2.062 0-3.84.5-5.32 1.51-1.35.93-2.4 2.26-3.15 3.98-.52 1.23-.88 3.04-1.094 5.43-.27 2.87-.46 7.437-.57 13.696-.99-.034-1.763-.05-2.31-.05-.55 0-1.384.02-2.5.054zm33.186 0l.452-7.437.56-14.246.293-11.94c.02-1.738.03-3.02.03-3.843l2.49.03c.48 0 1.26-.01 2.33-.02-.23 2.95-.51 8.67-.84 17.17-.33 8.5-.52 15.27-.57 20.3-1.1-.03-1.88-.05-2.32-.05-.49 0-1.3.02-2.4.06zm5.5-15.52l5.448-5.978c1.904-2.09 3.702-4.19 5.394-6.31 1.228.02 2.117.02 2.67.02.692 0 1.645-.01 2.853-.03l-11.54 12.31c2.16 2.89 6.33 8.06 12.51 15.49-1.1-.04-1.99-.06-2.66-.06s-1.59.02-2.74.05l-3.93-5.36c-.37-.5-1.2-1.54-2.48-3.13l-4.14-5.2-1.36-1.84z"></path>
  </g>
  <g id="first-word-part3" fill="#000">
    <path d="M1.578 84.287c.185-2.04.344-4.534.478-7.48.133-2.947.216-5.853.248-8.717.56.01.984.013 1.275.013l1.12-.013-.39 7.517-.29 7.09 2.3.012c1.71 0 2.92-.01 3.62-.02s1.37-.04 2.03-.08c-.05.5-.09 1.06-.12 1.67-1.84-.02-3.46-.03-4.87-.03l-5.42.02zm12.682 0l.21-2.99.234-5.103.1-3.928 1.117.013 1.1-.02c-.09 1.23-.17 2.52-.25 3.87-.07 1.35-.13 2.82-.18 4.42s-.07 2.84-.07 3.72c-.51-.02-.87-.03-1.09-.03-.2 0-.59 0-1.16.02zm.558-14.606c.024-.74.036-1.3.036-1.68.445.02.837.03 1.177.03.43 0 .82 0 1.17-.02-.01.25-.04.81-.07 1.69-.43 0-.81-.01-1.13-.01s-.71.01-1.17.02zm5.498 14.61c.387-4.96.588-8.96.604-12.02l1.093.01c.267 0 .62 0 1.057-.01l-.16 2.38c.202-.33.364-.59.485-.76.12-.18.283-.36.485-.56.203-.2.44-.38.716-.55s.6-.31.97-.43c.373-.11.75-.2 1.136-.25s.768-.1 1.148-.1c.69 0 1.36.09 2.01.25.64.17 1.18.44 1.59.82.414.38.693.8.835 1.27.142.47.212.97.212 1.51 0 .11-.006.3-.014.6s-.024.68-.048 1.15l-.24 4.97c-.02.48-.03 1.06-.04 1.74-.364-.01-.71-.02-1.032-.02-.397 0-.77.01-1.12.03.084-.95.145-1.88.186-2.76l.16-2.77c.04-.95.07-1.67.07-2.15 0-.7-.13-1.26-.37-1.67-.25-.42-.63-.74-1.17-.96s-1.14-.34-1.8-.34c-.94 0-1.75.22-2.42.65-.62.4-1.1.98-1.44 1.72-.24.53-.4 1.31-.5 2.35-.12 1.24-.21 3.22-.26 5.92-.45-.02-.81-.03-1.05-.03s-.63.01-1.14.02zm15.68 0l.206-3.21.254-6.15.133-5.16c0-.75.01-1.3.01-1.66l1.13.02c.21 0 .57 0 1.05-.01-.11 1.28-.23 3.75-.38 7.43-.15 3.67-.24 6.6-.26 8.77-.51-.01-.86-.02-1.06-.02-.23 0-.59.01-1.1.02zm2.5-6.71L40.973 75c.866-.9 1.683-1.81 2.452-2.727.558.01.962.013 1.213.013.315 0 .748-.005 1.297-.014l-5.25 5.32c.98 1.25 2.876 3.484 5.687 6.7-.5-.017-.905-.024-1.21-.024s-.724.008-1.25.023l-1.782-2.32c-.17-.21-.546-.66-1.13-1.35l-1.88-2.24-.622-.79zm23.048 5.15c-.09.39-.186.91-.29 1.55-.55.13-.988.21-1.312.24-.324.04-.63.05-.922.05-.72 0-1.3-.09-1.74-.27s-.78-.46-1.014-.85c-.235-.39-.352-.92-.352-1.59 0-.08.004-.24.012-.46s.05-.99.124-2.31l.296-5.31h-1.62c.03-.33.06-.81.084-1.42h1.654c.04-.44.082-1.2.122-2.26.758-.14 1.4-.28 1.924-.4-.056 1.17-.088 2.06-.096 2.67h3.372c-.04.5-.064.98-.073 1.43h-3.36l-.323 6.68-.012.51c0 .58.066 1.01.2 1.3s.333.5.6.63c.267.13.545.19.836.19.202 0 .42-.02.654-.05.234-.03.647-.12 1.236-.27zM70.04 72c.85 0 1.658.117 2.427.354.768.235 1.434.61 1.996 1.126.562.513.99 1.162 1.28 1.944.29.785.437 1.61.437 2.48 0 .94-.156 1.845-.467 2.707s-.748 1.6-1.31 2.2c-.563.61-1.25 1.05-2.064 1.33s-1.69.42-2.62.42c-.87 0-1.69-.12-2.45-.38-.77-.25-1.44-.64-2-1.18-.57-.54-.99-1.19-1.28-1.97-.29-.77-.44-1.59-.44-2.45 0-1.29.26-2.45.8-3.48.53-1.03 1.32-1.8 2.35-2.31s2.14-.76 3.32-.76zm-.055 1.506c-.824 0-1.58.204-2.272.607s-1.202 1.01-1.533 1.82-.497 1.696-.497 2.653c0 .837.137 1.59.412 2.26.275.668.727 1.208 1.357 1.62.63.41 1.39.616 2.278.616.606 0 1.18-.102 1.72-.303.542-.21 1.015-.54 1.418-1.01s.703-1.04.896-1.72c.194-.68.29-1.39.29-2.13 0-.7-.096-1.35-.29-1.96-.194-.61-.49-1.1-.89-1.47-.4-.37-.853-.63-1.357-.78s-1.015-.23-1.532-.23zm15.46 10.562l-.074-.872c0-.096-.03-.398-.09-.907 1.25.53 2.4.79 3.45.79.55 0 1.02-.07 1.4-.22.38-.15.67-.36.86-.64s.29-.57.29-.87c0-.17-.02-.33-.08-.5-.05-.17-.13-.33-.23-.48-.1-.15-.26-.32-.46-.51-.21-.19-.63-.54-1.29-1.05-.65-.52-1.14-.92-1.48-1.21-.33-.29-.62-.59-.86-.89-.24-.31-.41-.61-.53-.92-.11-.31-.16-.62-.16-.94 0-.51.17-1 .49-1.47s.8-.83 1.42-1.07c.62-.23 1.35-.35 2.18-.35.93 0 1.95.1 3.07.32.03.62.07 1.18.12 1.7-.9-.37-1.8-.55-2.68-.55-.47 0-.92.06-1.33.18-.4.12-.7.3-.89.55s-.28.51-.28.8c0 .19.04.37.1.54.07.18.18.36.35.56.17.2.37.4.6.6.24.194.71.57 1.41 1.112s1.18.95 1.44 1.21.48.53.67.81c.186.27.32.55.41.82.084.273.13.552.13.84 0 .553-.17 1.07-.507 1.54-.335.48-.835.844-1.5 1.105-.66.26-1.406.39-2.23.39-.35 0-.76-.02-1.227-.065-.47-.04-.87-.092-1.2-.15-.33-.06-.74-.15-1.22-.27zm22.597.225c-.397-.016-.737-.023-1.02-.023-.324 0-.66.007-1.008.022l.06-2.29c-.194.354-.362.63-.503.823-.14.196-.31.386-.52.57-.21.188-.42.344-.65.47-.22.127-.48.24-.78.34-.3.1-.65.18-1.05.25s-.82.1-1.28.1c-.98 0-1.83-.147-2.53-.44-.7-.292-1.23-.707-1.59-1.245-.36-.538-.54-1.273-.54-2.207 0-.14.01-.382.03-.722.02-.34.04-.78.07-1.33l.21-3.95.04-1.27c.01-.29.01-.66.01-1.11l1.12.02c.23 0 .58 0 1.05-.01-.11 1.39-.22 2.9-.32 4.55s-.15 2.7-.15 3.16c0 .7.12 1.25.35 1.67.23.42.62.74 1.16.96.54.23 1.15.34 1.83.34.6 0 1.18-.1 1.73-.31.47-.18.87-.42 1.19-.73.35-.34.64-.78.87-1.31.17-.4.3-.91.39-1.53.06-.45.12-1.26.17-2.43.07-1.42.11-2.87.14-4.34l1.13.02c.24 0 .58 0 1.02-.01-.11 1.43-.25 3.59-.4 6.49-.09 1.6-.15 3.44-.17 5.53zm12.924-1.804c-.017.12-.06.36-.127.7-.07.34-.13.68-.18 1.01-.59.13-1.16.22-1.71.27-.55.05-1.03.07-1.44.07-.88 0-1.68-.11-2.42-.34s-1.39-.61-1.94-1.14-.96-1.18-1.22-1.96-.39-1.6-.39-2.46c0-1.17.21-2.27.63-3.31.42-1.05 1.08-1.86 1.99-2.46.91-.6 2.14-.89 3.7-.89 1.15 0 2.27.15 3.36.45.05.67.09 1.22.13 1.66-.77-.24-1.4-.4-1.88-.48-.49-.08-.94-.13-1.35-.13-.71 0-1.35.12-1.91.38-.57.25-1.05.61-1.44 1.08s-.69 1.02-.86 1.66-.26 1.29-.26 1.96c0 .89.14 1.67.42 2.35.28.67.78 1.19 1.49 1.56.7.36 1.5.55 2.38.55.86 0 1.85-.19 2.99-.56zm12.33 0c-.016.12-.06.36-.126.7-.07.34-.127.68-.176 1.01-.59.13-1.16.22-1.705.27-.55.05-1.03.07-1.44.07-.88 0-1.68-.11-2.42-.34s-1.39-.61-1.94-1.14-.96-1.18-1.22-1.96-.39-1.6-.39-2.46c0-1.17.21-2.27.63-3.31.42-1.05 1.08-1.86 1.99-2.46.9-.6 2.14-.89 3.7-.89 1.15 0 2.27.15 3.36.45.05.67.09 1.22.13 1.66-.77-.24-1.4-.4-1.88-.48-.49-.08-.94-.13-1.35-.13-.71 0-1.35.12-1.91.38-.57.25-1.04.61-1.44 1.08s-.68 1.02-.86 1.66-.26 1.29-.26 1.96c0 .89.14 1.67.42 2.35.28.67.78 1.19 1.48 1.56.71.36 1.5.55 2.38.55.85 0 1.85-.19 2.98-.56zm13.35-.09c-.096.43-.193.99-.29 1.66-.777.19-1.45.32-2.02.38s-1.14.1-1.706.1c-1.01 0-1.92-.12-2.724-.36-.805-.24-1.495-.65-2.07-1.24-.574-.59-.986-1.27-1.237-2.03-.26-.76-.38-1.57-.38-2.41 0-1.18.23-2.27.69-3.28.46-1.01 1.15-1.8 2.08-2.38s2.1-.87 3.52-.87c.73 0 1.44.1 2.11.31.67.21 1.23.53 1.67.95.44.42.79.95 1.03 1.58.24.63.36 1.31.36 2.06 0 .28-.03.56-.07.83h-9.26c-.04.43-.05.77-.05 1 0 .83.18 1.59.53 2.29s.88 1.23 1.58 1.59 1.49.54 2.4.54c1.04 0 2.31-.26 3.81-.76zm-8.18-5.65h7.234c-.01-.5-.04-.89-.098-1.16-.057-.28-.162-.57-.315-.86-.154-.3-.362-.56-.625-.77-.263-.22-.58-.39-.947-.5-.368-.12-.766-.17-1.195-.17-.46 0-.9.06-1.317.19-.417.12-.785.3-1.104.52-.32.22-.6.48-.82.78-.23.29-.39.58-.5.86-.11.27-.22.65-.32 1.11zm11.362 7.31l-.072-.87c0-.1-.033-.4-.098-.91 1.246.53 2.395.79 3.446.79.55 0 1.016-.07 1.396-.21.38-.15.665-.36.855-.64s.285-.57.285-.87c0-.17-.026-.33-.08-.5-.052-.17-.13-.33-.235-.48-.105-.15-.26-.32-.467-.51-.207-.19-.636-.53-1.287-1.05-.65-.51-1.14-.91-1.48-1.2-.33-.29-.62-.59-.86-.89-.23-.31-.41-.61-.52-.92-.11-.31-.17-.62-.17-.94 0-.51.17-1 .49-1.47.33-.48.8-.83 1.42-1.07.62-.23 1.35-.35 2.18-.35.93 0 1.96.1 3.07.32.03.62.07 1.18.12 1.7-.9-.37-1.8-.55-2.68-.55-.47 0-.92.06-1.32.18-.41.12-.71.31-.9.55s-.28.52-.28.81c0 .19.03.37.1.54.07.18.18.37.35.57.17.2.37.4.6.6.24.19.71.57 1.41 1.11s1.18.95 1.44 1.21.48.53.67.81c.19.27.32.55.41.82.09.27.13.55.13.84 0 .55-.17 1.06-.5 1.54-.33.47-.83.84-1.5 1.1-.66.26-1.4.39-2.23.39-.35 0-.76-.02-1.22-.07-.47-.04-.87-.09-1.19-.15-.33-.06-.74-.15-1.22-.27zm10.486 0l-.072-.87c0-.1-.033-.4-.098-.91 1.246.53 2.395.79 3.446.79.55 0 1.016-.07 1.396-.21.38-.15.665-.36.855-.64s.29-.57.29-.87c0-.17-.02-.33-.08-.5-.05-.17-.13-.33-.23-.48-.1-.15-.26-.32-.46-.51s-.63-.53-1.28-1.05c-.65-.51-1.14-.91-1.48-1.2-.33-.29-.62-.59-.86-.89-.24-.31-.41-.61-.53-.92-.11-.31-.17-.62-.17-.94 0-.51.17-1 .49-1.47.33-.48.8-.83 1.42-1.07.62-.23 1.35-.35 2.18-.35.93 0 1.96.1 3.07.32.03.62.08 1.18.12 1.7-.9-.37-1.8-.55-2.68-.55-.48 0-.92.06-1.33.18-.41.12-.7.31-.89.55s-.28.52-.28.81c0 .19.03.37.1.54.07.18.18.37.35.57.17.2.37.4.6.6.24.19.7.57 1.4 1.11s1.18.95 1.44 1.21.48.53.67.81c.19.27.32.55.41.82.09.27.13.55.13.84 0 .55-.17 1.06-.5 1.54-.33.47-.83.84-1.5 1.1-.66.26-1.4.39-2.23.39-.35 0-.75-.02-1.22-.07-.47-.04-.87-.09-1.19-.15-.33-.06-.74-.15-1.22-.27z"></path>
  </g>
  <g fill="none">
    <path d="M28.858 5.678H12.146c-2.73 0-4.938 2.208-4.938 4.94V27.34c0 2.718 2.207 4.94 4.938 4.94h9.123v-5.495c0-3.886 3.16-7.047 7.04-7.047h5.49v-9.12c0-2.733-2.22-4.94-4.96-4.94zM33.81 27.34v-1.92h-1.907c-2.732 0-4.952 2.22-4.952 4.95v1.912h1.91c2.73 0 4.95-2.222 4.95-4.94zm5.68 3.575c0 3.9-3.16 7.047-7.046 7.047H26.95v9.118c0 2.72 2.22 4.938 4.953 4.938H48.61c2.73 0 4.94-2.217 4.94-4.938V30.368c0-2.73-2.21-4.95-4.94-4.95h-9.12v5.497z"></path>
  </g>
  <g id="logo-part1" fill="#fff">
    <path d="M12.146 32.28c-2.73 0-4.938-2.222-4.938-4.94V10.62c0-2.732 2.207-4.94 4.938-4.94h16.712c2.73 0 4.95 2.208 4.95 4.94v16.72c0 2.718-2.22 4.94-4.95 4.94H26.95v5.682h5.493c3.886 0 7.047-3.147 7.047-7.047V7.045C39.49 3.148 36.33 0 32.443 0H8.577c-3.9 0-7.06 3.148-7.06 7.046v23.868c0 3.9 3.16 7.047 7.06 7.047H21.27v-5.68h-9.124z"></path>
  </g>
  <g id="logo-part2" fill="#000">
    <path d="M52.184 19.738H39.49v5.68h9.122c2.73 0 4.938 2.22 4.938 4.95V47.08c0 2.72-2.208 4.938-4.938 4.938h-16.71c-2.73 0-4.95-2.217-4.95-4.938V30.367c0-2.73 2.22-4.95 4.95-4.95h1.908v-5.68h-5.493c-3.884 0-7.047 3.162-7.047 7.047V50.65c0 3.9 3.164 7.048 7.047 7.048h23.867c3.9 0 7.047-3.147 7.047-7.047V26.79c0-3.886-3.14-7.048-7.04-7.048z"></path>
  </g>
</svg>