<svg width="164" height="25" viewBox="0 0 164 25" xmlns="http://www.w3.org/2000/svg">
  <g fill="none" fill-rule="evenodd">
    <path d="M103.438 20.584c-6.446 0-6.087-3.824-5.673-6.042h4.317c-.028.495-.193 1.254.055 1.693.166.32.61.79 2.048.79 1.135 0 2.407-.207 2.656-1.636.084-.44-.082-.762-.525-.936-.803-.29-1.854-.468-2.712-.673-3.32-.786-4.925-1.778-4.37-4.73.718-3.94 3.983-4.815 7.137-4.815 2.85 0 5.423.932 5.452 4.145 0 .525-.03.262-.112 1.05h-4.344c.056-1.168-.166-1.606-1.715-1.606-.802 0-1.797.234-1.963 1.11-.056.35-.084.583.36.76.885.38 2.184.67 3.126.904 2.96.673 4.594 1.783 4.04 4.848-.665 3.62-3.544 5.138-7.775 5.138zm15.85-.088c-1.493 0-2.516-.377-3.042-1.372l-1.078 5.87h-4.483l3.763-20.38h4.26l-.277 1.518c.804-1.17 2.19-1.897 3.93-1.897 4.54 0 5.45 3.795 4.622 8.32-.804 4.263-2.822 7.94-7.693 7.94zm14.63.088c-4.787 0-6.862-2.54-5.84-8.057 1.19-6.426 4.788-8.292 8.992-8.292 4.898 0 6.863 2.597 5.837 8.146-.884 4.79-3.4 8.204-8.99 8.204zM120.95 7.854c-1.69 0-2.988 1.196-3.57 4.44-.525 2.83-.165 4.73 1.88 4.73 1.47 0 2.63-1.957 3.128-4.643.526-2.804-.11-4.526-1.438-4.526zm15.624-.144c-2.16 0-3.237 1.02-3.903 4.64-.607 3.388-.108 4.79 1.773 4.79 2.544 0 3.347-1.75 3.956-5.08.525-2.892.055-4.35-1.826-4.35zm16.66-3.066h.39l-.718 3.89h-.89c-2.02 0-2.655 1.42-2.99 3.26l-1.547 8.383h-4.565l2.877-15.563h4.038l-.36 1.926c.897-1.63 2.52-1.896 3.764-1.896zm7.507 3.885l-1.253 6.886c-.167.935-.167 1.08.414 1.08h1.633l-.692 3.767h-2.572c-3.127 0-4.123-.7-3.486-4.146l1.395-7.588h-1.45v.005h-.52l.72-3.896c.19 0 .386-.004.61-.004v.003h1.376l.83-4.64h4.565l-.83 4.614h2.268l-.736 3.915h-2.27z" fill="#EE098F"/>
    <path d="M85.98 7.603h.074V4.89h-2.4V0H79.77v4.89H77.85v2.713h1.923v8.836c0 .946.03 2.388.783 3.123.754.736 2.18.764 3.238.764h2.264v-3.122h-1.256c-.335 0-.67 0-.894-.235-.25-.266-.25-.617-.25-1.384V7.603h2.327l4.373 12.714h3.684l5.28-15.427H95.21l-2.96 10.963L89.266 4.89h-4.217l.933 2.713zM16.367 7.047c-1.37 0-4.69 0-4.69 4.8v8.563h-2.4V4.983h2.344V7.99c.838-3.446 3.24-3.418 4.496-3.418.278 0 .892.03 1.34.09v2.385h-1.09zm14.265 13.406c-1.843 0-2.344-.442-2.68-1.945-.81 1.18-1.73 2.328-5.11 2.328-3.63 0-4.886-1.563-4.886-4.627 0-3.094 1.284-4.213 8.99-5.276.836-.116.836-1.442.836-1.885 0-2.06-.947-2.416-3.35-2.416-3.125 0-3.575.854-3.575 3.123h-2.314c0-2.152 0-5.185 6.226-5.185 3.99 0 5.472 1.327 5.472 5.008v7.6c0 1.3.502 1.328 1.396 1.328v1.912c-.336 0-.672.033-1.006.033zm12.7-.043v-9.798c0-2.327-.192-3.92-2.958-3.92-2.236 0-4.244.973-4.244 4.775v8.943h-2.4V4.983h2.4V7.37c.502-1.207 1.396-2.798 4.69-2.798 4.804 0 4.914 3.093 4.914 5.333V20.41h-2.4zm11.696.426c-3.293 0-6.92-1.24-6.92-8.073 0-5.804 2.566-8.19 7.117-8.19 5 0 5.95 3.092 6.09 5.242H58.94c-.25-1.504-.755-3.18-3.8-3.18-3.293 0-4.578 1.854-4.578 6.185 0 3.89 1.005 5.954 4.553 5.954 3.574 0 3.713-1.944 3.907-3.684h2.373c0 2.033-.836 5.746-6.367 5.746zm21.72-7.277H65.75c0 2.237.253 5.214 4.467 5.214 2.846 0 3.686-1.002 4.02-2.977H76.5c-.17 2.417-1.285 5.04-6.424 5.04-4.105 0-6.867-2.034-6.867-7.75 0-6.275 2.43-8.515 7.173-8.515 1.732 0 6.396-.028 6.396 7.806 0 .384-.03.796-.03 1.18zM4.436 7.575v12.826H2.02V7.576H0V4.978h2.02V3.85c0-2.1.424-3.85 3.705-3.85.45 0 .955.028 1.405.058v2.134c-.226 0-.504-.03-.73-.03-1.965 0-1.965.712-1.965 1.81v1.006H7.13v2.598H4.435zm65.698-.943c-3.575 0-4.13 2.358-4.383 4.862h8.487c0-2.918-.67-4.862-4.104-4.862zm-42.295 5.894c-1.34.47-2.373.647-3.265.766-4.02.56-4.13 1.504-4.13 3.182 0 1.767 1.227 2.3 2.902 2.3 2.93 0 4.493-1.387 4.493-4.42v-1.828z" fill="#17191B"/>
  </g>
</svg>