<svg xmlns="http://www.w3.org/2000/svg" width="350" height="170" viewBox="0 0 350 170">
  <path fill="none" d="M0 0h350v170H0z"/>
  <path fill="#111" d="M69.78 61.47l1.3 11.58s-3.54-10.87-15.25-10.87c-11.82 0-12.3 12.05-12.3 13 0 1.07.59 12.65 12.42 12.65s15.49-10.41 15.49-10.41L69.55 89.6s-.24-2.96-2.25-2.49c-2.01.48-6.15 2.01-11.59 2.01-5.32 0-19.98-2.01-19.98-14.07 0-12.05 14.55-14.3 19.98-14.3 5.44 0 10.87 2.01 10.87 2.01s2.37 1.19 3.2-1.29m6.03 0H90.7s-3.9.83-3.9 3.2v9.1h18.45v-8.64s-.48-3.78-3.78-3.78h14.67s-3.78 1.42-3.78 3.78v20.1s.48 3.19 3.78 3.19h-14.67s3.78-1.06 3.78-3.07V75.07H86.68v10.17s.12 3.42 3.78 3.42H75.81s3.78-.46 3.78-3.07V65.02c.01 0-.12-3.55-3.78-3.55m41.97 26.95s3.78-.7 5.91-4.37c1.89-3.56 11.47-22.59 11.47-22.59h5.67l12.06 23.42s2.49 3.66 5.32 3.66H140.6s4.96-1.65 4.14-3.66c-.83-2.01-2.25-4.85-2.25-4.85h-14.31l-2.49 4.5s-1.65 4.14 4.73 4.14H118v-.24h-.23v-.01zm10.76-9.81h12.88l-6.51-13.01-6.37 13.01zm42.44-17.14h-14.9s3.9 1.3 3.9 3.54v13.95s-.12 10.51 15.13 10.51 14.54-9.34 14.54-9.34V65.02s.24-3.54 4.14-3.54h-9.8s3.91.24 4.14 3.44v15.25s.12 7.56-10.63 7.56-10.29-7.44-10.29-7.44V65.02c-.13 0-.13-3.55 3.77-3.55m24.82 0h10.87l11.7 19.51 11.84-19.51h9.93s-3.78.71-3.78 3.2v20.58s0 3.43 4.14 3.43h-14.9s3.66-.71 3.66-3.43V66.22L215.32 89.5l-13.61-23.29v18.91s.24 3.44 3.78 3.44h-9.94s4.38-.48 4.38-3.44V64.55c-.11 0-.11-2.36-4.13-3.08m76.26 0l2.25 8.99s-3.07-7.21-8.76-7.56h-9.34v11.11h7.33s4.38-.48 4.38-5.44v12.06s-1.18-5.32-4.38-5.32h-7.45v12.06h10.17s8.15-.12 9.81-7.34l-1.88 8.64h-29.57s4.14-.83 4.14-3.2V64.9s-.59-3.56-3.78-3.56h27.07v.13zm7.57 0h32.86L314.27 72s-3.43-8.63-6.75-9.23h-7.91v22.47s.12 3.42 4.14 3.42h-15.38s4.14-1.07 4.14-3.07V62.9h-7.56s-3.9 0-6.87 9.1l1.55-10.53zm-135.02 41.37v-3.89h4.5c1.3 0 2.01.7 2.01 1.89 0 1.18-.59 2.01-2.37 2.01h-4.14v-.01zm-1.77 6.27h1.77v-4.72h4.38c2.49 0 3.78-1.42 3.78-3.66 0-2.25-1.3-3.43-3.9-3.43h-6.15V109h.12v.11zm19.98-4.96h-4.5l2.25-5.08 2.25 5.08zm2.25 4.96h1.89l-5.32-11.7h-2.01l-5.32 11.7h1.89l1.42-3.42h5.67l1.78 3.42zm7.68-6.61v-3.66h4.96c1.42 0 2.01.7 2.01 1.89 0 .83-.46 1.89-2.25 1.89h-4.84v-.12h.12zm-1.77 6.61h1.77v-4.96h4.48c1.42 0 2.25.59 2.37 2.83.12 1.43.12 1.9.23 2.25h1.9c-.47-.48-.47-1.06-.6-3.2 0-1.29-.7-2.37-1.77-2.49 1.3-.46 2.01-1.42 2.01-2.95 0-1.43-.83-3.08-3.19-3.08h-7.33c.13-.09.13 11.6.13 11.6zm16.08-11.69h1.77v11.7h-1.77v-11.7zm8.62 7.68c0 2.01 2.01 2.59 3.78 2.59 1.89 0 3.19-.71 3.19-2.01 0-1.06-.83-1.42-2.24-1.77l-2.6-.48c-1.43-.24-3.55-.71-3.55-3.08 0-2.24 1.77-3.54 4.73-3.54 2.37 0 4.85.83 4.96 3.66h-1.77c-.12-.83-.71-2.25-3.54-2.25-1.29 0-2.83.59-2.83 1.89 0 .7.48 1.31 1.88 1.65l2.96.48c.83.12 3.54.58 3.54 2.95 0 2.96-2.59 3.78-5.08 3.78-2.61 0-5.44-.83-5.44-4.14h1.88v.24h.12v.03z"/>
</svg>
