<svg xmlns="http://www.w3.org/2000/svg" width="350" height="170" viewBox="0 0 350 170">
  <path fill="none" d="M0 0h350v170H0z"/>
  <path fill="#111" d="M104.47 99.6l.54-7.63.91-22.29.1-4.34c.02-1.37.02-2.44.02-3.21 1.33.02 2.44.03 3.33.03.73 0 1.75-.01 3.06-.02l2.91 4.83L133 94.33l1.12-32.2 2.38.03 2.35-.02-.59 9.61-.72 16.94-.32 10.93c-1.05-.03-2.08-.05-3.1-.05-.93 0-2 .02-3.23.06l-2.44-4.06-18.09-27.86c-.07 1.03-.15 2.64-.22 4.83l-.75 19.41-.16 7.66c-1.16-.03-1.94-.05-2.33-.05-.29 0-1.11.02-2.46.06l.03-.02zm62.85-4.37c-.21 1.01-.43 2.29-.64 3.84-1.71.44-3.19.74-4.44.89-1.26.16-2.51.23-3.75.23-2.23 0-4.22-.28-6-.83-1.77-.55-3.29-1.51-4.55-2.87-1.26-1.36-2.17-2.93-2.72-4.68-.55-1.76-.83-3.62-.83-5.57 0-2.73.51-5.26 1.53-7.59s2.54-4.17 4.58-5.51 4.62-2.01 7.76-2.01c1.62 0 3.17.24 4.65.72 1.48.48 2.71 1.22 3.69 2.21s1.74 2.21 2.27 3.66c.53 1.45.8 3.04.8 4.76 0 .66-.05 1.3-.16 1.92h-20.37c-.07 1-.11 1.77-.11 2.3 0 1.92.4 3.69 1.18 5.31.79 1.62 1.94 2.84 3.47 3.68s3.3 1.25 5.29 1.25c2.3 0 5.09-.59 8.38-1.76l-.03.05zm-17.99-13.06h15.91c-.02-1.15-.09-2.05-.21-2.69-.12-.64-.36-1.3-.69-1.99-.34-.69-.8-1.28-1.38-1.78-.58-.5-1.28-.89-2.09-1.15-.81-.26-1.69-.39-2.63-.39-1.02 0-1.98.15-2.9.44s-1.73.7-2.43 1.21c-.71.52-1.3 1.12-1.79 1.8-.49.69-.86 1.35-1.1 1.99-.24.64-.48 1.5-.71 2.58l.02-.02zm38.35-11.01c1.87 0 3.65.28 5.34.82 1.69.55 3.15 1.42 4.39 2.61 1.24 1.19 2.18 2.69 2.82 4.5.64 1.81.96 3.72.96 5.74 0 2.18-.34 4.26-1.03 6.26-.69 1.99-1.65 3.69-2.88 5.08-1.24 1.39-2.75 2.41-4.54 3.06-1.79.65-3.71.97-5.75.97-1.9 0-3.7-.29-5.39-.88-1.7-.59-3.16-1.5-4.4-2.75-1.24-1.25-2.18-2.77-2.82-4.57-.64-1.81-.96-3.7-.96-5.67 0-2.98.58-5.67 1.76-8.06 1.18-2.39 2.9-4.17 5.18-5.36 2.28-1.18 4.71-1.77 7.31-1.77l.01.02zm-.12 3.49c-1.81 0-3.48.47-5 1.4-1.52.93-2.64 2.34-3.37 4.21-.73 1.88-1.09 3.92-1.09 6.13 0 1.94.3 3.68.91 5.23.6 1.55 1.6 2.79 2.99 3.75 1.39.95 3.06 1.43 5.01 1.43 1.33 0 2.59-.23 3.79-.7 1.19-.47 2.23-1.24 3.12-2.32.89-1.08 1.54-2.4 1.97-3.96.43-1.57.64-3.21.64-4.93 0-1.61-.21-3.12-.64-4.53-.43-1.41-1.08-2.54-1.96-3.39-.88-.85-1.88-1.45-2.99-1.8-1.12-.35-2.24-.52-3.38-.52z"/>
  <g fill="#888">
    <path d="M206.88 99.6c.41-4.72.76-10.49 1.05-17.31.29-6.82.48-13.53.55-20.16 1.23.02 2.16.03 2.81.03l2.48-.02-.85 17.39-.64 16.4 5.07.03c3.77 0 6.43-.01 7.97-.04s3.03-.08 4.47-.18c-.11 1.16-.2 2.45-.27 3.87-4.04-.03-7.61-.05-10.71-.05l-11.93.06v-.02z"/>
    <path d="M228.9 112.31c-.12-1.54-.28-2.85-.45-3.92.9.44 1.72.74 2.49.89.77.16 1.42.23 1.95.23.7 0 1.38-.13 2.03-.39.66-.25 1.2-.59 1.61-1.02.41-.42.84-1 1.3-1.75.46-.74.94-1.62 1.45-2.62s1-2.12 1.46-3.35l-5.69-16.66-4.17-11.91c1.3.04 2.16.06 2.59.06.5 0 1.31-.01 2.43-.05.29 1.28.53 2.26.73 2.94.2.68.63 2.06 1.29 4.15l4.04 12.59c.45 1.43.9 2.97 1.34 4.61l3.02-7.57 5.59-13.41c.16-.4.32-.82.47-1.25.15-.43.39-1.11.71-2.04 1.14.04 1.92.06 2.37.06.38 0 1.2-.01 2.47-.05-.69 1.63-2.37 5.43-5.04 11.39L243 105.87c-.7 1.52-1.33 2.67-1.9 3.46-.46.62-.96 1.16-1.49 1.62-.42.39-.91.72-1.44.99-.66.33-1.37.59-2.14.77-.83.19-1.69.28-2.56.28-1.38 0-2.87-.2-4.49-.6l-.08-.08zm31.08-12.71c.85-11.47 1.29-20.74 1.33-27.81l2.41.03c.59 0 1.36-.01 2.33-.03l-.35 5.49c.45-.77.8-1.36 1.07-1.77.27-.42.63-.85 1.07-1.31.45-.46.97-.89 1.58-1.28.61-.39 1.32-.73 2.14-.99.82-.27 1.65-.46 2.5-.59.85-.13 1.69-.19 2.53-.19 1.53 0 3.01.19 4.43.57 1.43.38 2.6 1.01 3.51 1.88s1.53 1.84 1.85 2.92c.32 1.08.47 2.24.47 3.48 0 .24-.01.69-.02 1.37-.02.67-.05 1.56-.1 2.66l-.53 11.5c-.03 1.1-.06 2.44-.08 4.03-.8-.04-1.56-.06-2.27-.06-.87 0-1.69.02-2.46.05.18-2.22.31-4.35.4-6.4l.35-6.4c.11-2.2.17-3.85.17-4.97 0-1.61-.27-2.9-.8-3.86s-1.39-1.71-2.56-2.23c-1.17-.52-2.49-.78-3.95-.78-2.06 0-3.84.5-5.32 1.51-1.35.93-2.4 2.26-3.15 3.98-.52 1.23-.88 3.04-1.09 5.43-.27 2.87-.46 7.44-.57 13.7-.99-.03-1.76-.05-2.31-.05s-1.38.02-2.5.05l-.08.07zm33.19 0l.45-7.44.56-14.25.29-11.94c.02-1.74.03-3.02.03-3.84l2.49.03c.48 0 1.26-.01 2.33-.02-.23 2.95-.51 8.67-.84 17.17s-.52 15.27-.57 20.3c-1.1-.03-1.88-.05-2.32-.05-.49 0-1.3.02-2.4.06l-.02-.02zm5.5-15.52l5.45-5.98c1.9-2.09 3.7-4.19 5.39-6.31 1.23.02 2.12.02 2.67.02.69 0 1.65-.01 2.85-.03l-11.54 12.31c2.16 2.89 6.33 8.06 12.51 15.49-1.1-.04-1.99-.06-2.66-.06s-1.59.02-2.74.05l-3.93-5.36c-.37-.5-1.2-1.54-2.48-3.13l-4.14-5.2-1.36-1.84-.02.04z"/>
  </g>
  <path fill="#111" d="M34.43 126.72c.19-2.04.34-4.53.48-7.48.13-2.95.22-5.85.25-8.72.56.01.98.01 1.27.01l1.12-.01-.39 7.52-.29 7.09 2.3.01c1.71 0 2.92-.01 3.62-.02.7-.01 1.37-.04 2.03-.08-.05.5-.09 1.06-.12 1.67-1.84-.02-3.46-.03-4.87-.03l-5.42.02.02.02zm12.68 0l.21-2.99.23-5.1.1-3.93 1.12.01 1.1-.02c-.09 1.23-.17 2.52-.25 3.87-.07 1.35-.13 2.82-.18 4.42-.05 1.6-.07 2.84-.07 3.72-.51-.02-.87-.03-1.09-.03-.2 0-.59 0-1.16.02l-.01.03zm.56-14.61c.02-.74.04-1.3.04-1.68.44.02.84.03 1.18.03.43 0 .82 0 1.17-.02-.01.25-.04.81-.07 1.69-.43 0-.81-.01-1.13-.01-.32 0-.71.01-1.17.02l-.02-.03zm5.5 14.61c.39-4.96.59-8.96.6-12.02l1.09.01c.27 0 .62 0 1.06-.01l-.16 2.38c.2-.33.36-.59.49-.76.12-.18.28-.36.48-.56.2-.2.44-.38.72-.55.28-.17.6-.31.97-.43.37-.11.75-.2 1.14-.25s.77-.1 1.15-.1c.69 0 1.36.09 2.01.25.64.17 1.18.44 1.59.82.41.38.69.8.83 1.27s.21.97.21 1.51c0 .11-.01.3-.01.6-.01.3-.02.68-.05 1.15l-.25 4.97c-.02.48-.03 1.06-.04 1.74-.36-.01-.71-.02-1.03-.02-.4 0-.77.01-1.12.03.08-.95.15-1.88.19-2.76l.16-2.77c.04-.95.07-1.67.07-2.15 0-.7-.13-1.26-.37-1.67-.25-.42-.63-.74-1.17-.96s-1.14-.34-1.8-.34c-.94 0-1.75.22-2.42.65-.62.4-1.1.98-1.44 1.72-.24.53-.4 1.31-.5 2.35-.12 1.24-.21 3.22-.26 5.92-.45-.02-.81-.03-1.05-.03s-.63.01-1.14.02l.05-.01zm15.67 0l.21-3.21.25-6.15.13-5.16c0-.75.01-1.3.01-1.66l1.13.02c.21 0 .57 0 1.05-.01-.11 1.28-.23 3.75-.38 7.43-.15 3.67-.24 6.6-.26 8.77-.51-.01-.86-.02-1.06-.02-.23 0-.59.01-1.1.02l.02-.03zm2.5-6.71l2.48-2.58c.87-.9 1.68-1.81 2.45-2.73.56.01.96.01 1.21.01.31 0 .75 0 1.3-.01l-5.25 5.32c.98 1.25 2.88 3.48 5.69 6.7-.5-.02-.91-.02-1.21-.02s-.72.01-1.25.02l-1.78-2.32c-.17-.21-.55-.66-1.13-1.35l-1.88-2.24-.63-.8zm23.05 5.15c-.09.39-.19.91-.29 1.55-.55.13-.99.21-1.31.24-.32.04-.63.05-.92.05-.72 0-1.3-.09-1.74-.27-.44-.18-.78-.46-1.01-.85-.24-.39-.35-.92-.35-1.59 0-.08 0-.24.01-.46.01-.22.05-.99.12-2.31l.3-5.31h-1.62c.03-.33.06-.81.08-1.42h1.65c.04-.44.08-1.2.12-2.26.76-.14 1.4-.28 1.92-.4-.06 1.17-.09 2.06-.1 2.67h3.37c-.04.5-.06.98-.07 1.43H91.2l-.32 6.68-.01.51c0 .58.07 1.01.2 1.3.13.29.33.5.6.63.27.13.54.19.84.19.2 0 .42-.02.65-.05.23-.03.65-.12 1.24-.27v-.06zm8.5-10.73c.85 0 1.66.12 2.43.35.77.24 1.43.61 2 1.13.56.51.99 1.16 1.28 1.94.29.79.44 1.61.44 2.48 0 .94-.16 1.85-.47 2.71-.31.86-.75 1.6-1.31 2.2-.56.61-1.25 1.05-2.06 1.33s-1.69.42-2.62.42c-.87 0-1.69-.12-2.45-.38-.77-.25-1.44-.64-2-1.18-.57-.54-.99-1.19-1.28-1.97-.29-.77-.44-1.59-.44-2.45 0-1.29.26-2.45.8-3.48.53-1.03 1.32-1.8 2.35-2.31s2.14-.76 3.32-.76l.01-.03zm-.06 1.51c-.82 0-1.58.2-2.27.61-.69.4-1.2 1.01-1.53 1.82-.33.81-.5 1.7-.5 2.65 0 .84.14 1.59.41 2.26.28.67.73 1.21 1.36 1.62.63.41 1.39.62 2.28.62.61 0 1.18-.1 1.72-.3.54-.21 1.01-.54 1.42-1.01s.7-1.04.9-1.72.29-1.39.29-2.13c0-.7-.1-1.35-.29-1.96-.19-.61-.49-1.1-.89-1.47-.4-.37-.85-.63-1.36-.78-.5-.15-1.02-.23-1.53-.23v.02zm15.46 10.56l-.07-.87c0-.1-.03-.4-.09-.91 1.25.53 2.4.79 3.45.79.55 0 1.02-.07 1.4-.22.38-.15.67-.36.86-.64s.29-.57.29-.87c0-.17-.02-.33-.08-.5-.05-.17-.13-.33-.23-.48-.1-.15-.26-.32-.46-.51-.21-.19-.63-.54-1.29-1.05-.65-.52-1.14-.92-1.48-1.21-.33-.29-.62-.59-.86-.89-.24-.31-.41-.61-.53-.92-.11-.31-.16-.62-.16-.94 0-.51.17-1 .49-1.47.32-.47.8-.83 1.42-1.07.62-.23 1.35-.35 2.18-.35.93 0 1.95.1 3.07.32.03.62.07 1.18.12 1.7-.9-.37-1.8-.55-2.68-.55-.47 0-.92.06-1.33.18-.4.12-.7.3-.89.55-.19.25-.28.51-.28.8 0 .19.04.37.1.54.07.18.18.36.35.56s.37.4.6.6c.24.19.71.57 1.41 1.11s1.18.95 1.44 1.21.48.53.67.81c.19.27.32.55.41.82.08.27.13.55.13.84 0 .55-.17 1.07-.51 1.54-.33.48-.83.84-1.5 1.1-.66.26-1.41.39-2.23.39-.35 0-.76-.02-1.23-.06-.47-.04-.87-.09-1.2-.15-.33-.06-.74-.15-1.22-.27l-.07.07zm22.6.22c-.4-.02-.74-.02-1.02-.02-.32 0-.66.01-1.01.02l.06-2.29c-.19.35-.36.63-.5.82-.14.2-.31.39-.52.57-.21.19-.42.34-.65.47-.22.13-.48.24-.78.34-.3.1-.65.18-1.05.25s-.82.1-1.28.1c-.98 0-1.83-.15-2.53-.44-.7-.29-1.23-.71-1.59-1.25-.36-.54-.54-1.27-.54-2.21 0-.14.01-.38.03-.72.02-.34.04-.78.07-1.33l.21-3.95.04-1.27c.01-.29.01-.66.01-1.11l1.12.02c.23 0 .58 0 1.05-.01-.11 1.39-.22 2.9-.32 4.55s-.15 2.7-.15 3.16c0 .7.12 1.25.35 1.67.23.42.62.74 1.16.96.54.23 1.15.34 1.83.34.6 0 1.18-.1 1.73-.31.47-.18.87-.42 1.19-.73.35-.34.64-.78.87-1.31.17-.4.3-.91.39-1.53.06-.45.12-1.26.17-2.43.07-1.42.11-2.87.14-4.34l1.13.02c.24 0 .58 0 1.02-.01-.11 1.43-.25 3.59-.4 6.49-.09 1.6-.15 3.44-.17 5.53l-.06-.05zm12.92-1.8c-.02.12-.06.36-.13.7-.07.34-.13.68-.18 1.01-.59.13-1.16.22-1.71.27s-1.03.07-1.44.07c-.88 0-1.68-.11-2.42-.34-.74-.23-1.39-.61-1.94-1.14s-.96-1.18-1.22-1.96-.39-1.6-.39-2.46c0-1.17.21-2.27.63-3.31.42-1.05 1.08-1.86 1.99-2.46.91-.6 2.14-.89 3.7-.89 1.15 0 2.27.15 3.36.45.05.67.09 1.22.13 1.66-.77-.24-1.4-.4-1.88-.48-.49-.08-.94-.13-1.35-.13-.71 0-1.35.12-1.91.38-.57.25-1.05.61-1.44 1.08-.39.47-.69 1.02-.86 1.66-.17.64-.26 1.29-.26 1.96 0 .89.14 1.67.42 2.35.28.67.78 1.19 1.49 1.56.7.36 1.5.55 2.38.55.86 0 1.85-.19 2.99-.56l.04.03zm12.33 0c-.02.12-.06.36-.13.7-.07.34-.13.68-.18 1.01-.59.13-1.16.22-1.71.27-.55.05-1.03.07-1.44.07-.88 0-1.68-.11-2.42-.34-.74-.23-1.39-.61-1.94-1.14s-.96-1.18-1.22-1.96-.39-1.6-.39-2.46c0-1.17.21-2.27.63-3.31.42-1.05 1.08-1.86 1.99-2.46.9-.6 2.14-.89 3.7-.89 1.15 0 2.27.15 3.36.45.05.67.09 1.22.13 1.66-.77-.24-1.4-.4-1.88-.48-.49-.08-.94-.13-1.35-.13-.71 0-1.35.12-1.91.38-.57.25-1.04.61-1.44 1.08-.4.47-.68 1.02-.86 1.66-.18.64-.26 1.29-.26 1.96 0 .89.14 1.67.42 2.35.28.67.78 1.19 1.48 1.56.71.36 1.5.55 2.38.55.85 0 1.85-.19 2.98-.56l.06.03zm13.36-.09c-.1.43-.19.99-.29 1.66-.78.19-1.45.32-2.02.38-.57.06-1.14.1-1.71.1-1.01 0-1.92-.12-2.72-.36-.8-.24-1.5-.65-2.07-1.24-.57-.59-.99-1.27-1.24-2.03-.26-.76-.38-1.57-.38-2.41 0-1.18.23-2.27.69-3.28s1.15-1.8 2.08-2.38 2.1-.87 3.52-.87c.73 0 1.44.1 2.11.31s1.23.53 1.67.95c.44.42.79.95 1.03 1.58s.36 1.31.36 2.06c0 .28-.03.56-.07.83h-9.26c-.04.43-.05.77-.05 1 0 .83.18 1.59.53 2.29.35.7.88 1.23 1.58 1.59.7.36 1.49.54 2.4.54 1.04 0 2.31-.26 3.81-.76l.03.04zm-8.19-5.65h7.23c-.01-.5-.04-.89-.1-1.16-.06-.28-.16-.57-.32-.86-.15-.3-.36-.56-.62-.77-.26-.22-.58-.39-.95-.5-.37-.12-.77-.17-1.19-.17-.46 0-.9.06-1.32.19-.42.12-.79.3-1.1.52-.32.22-.6.48-.82.78-.23.29-.39.58-.5.86-.1.27-.21.65-.31 1.11zm11.37 7.31l-.07-.87c0-.1-.03-.4-.1-.91 1.25.53 2.39.79 3.45.79.55 0 1.02-.07 1.4-.21.38-.15.67-.36.86-.64.19-.28.29-.57.29-.87 0-.17-.03-.33-.08-.5-.05-.17-.13-.33-.24-.48-.11-.15-.26-.32-.47-.51-.21-.19-.64-.53-1.29-1.05-.65-.51-1.14-.91-1.48-1.2-.33-.29-.62-.59-.86-.89-.23-.31-.41-.61-.52-.92-.11-.31-.17-.62-.17-.94 0-.51.17-1 .49-1.47.33-.48.8-.83 1.42-1.07.62-.23 1.35-.35 2.18-.35.93 0 1.96.1 3.07.32.03.62.07 1.18.12 1.7-.9-.37-1.8-.55-2.68-.55-.47 0-.92.06-1.32.18-.41.12-.71.31-.9.55-.19.24-.28.52-.28.81 0 .19.03.37.1.54.07.18.18.37.35.57s.37.4.6.6c.24.19.71.57 1.41 1.11.7.54 1.18.95 1.44 1.21s.48.53.67.81c.19.27.32.55.41.82.09.27.13.55.13.84 0 .55-.17 1.06-.5 1.54-.33.47-.83.84-1.5 1.1-.66.26-1.4.39-2.23.39-.35 0-.76-.02-1.22-.07-.47-.04-.87-.09-1.19-.15-.33-.06-.74-.15-1.22-.27l-.07.04zm10.48 0l-.07-.87c0-.1-.03-.4-.1-.91 1.25.53 2.39.79 3.45.79.55 0 1.02-.07 1.4-.21.38-.15.67-.36.85-.64.19-.28.29-.57.29-.87 0-.17-.02-.33-.08-.5-.05-.17-.13-.33-.23-.48-.1-.15-.26-.32-.46-.51s-.63-.53-1.28-1.05c-.65-.51-1.14-.91-1.48-1.2-.33-.29-.62-.59-.86-.89-.24-.31-.41-.61-.53-.92-.11-.31-.17-.62-.17-.94 0-.51.17-1 .49-1.47.33-.48.8-.83 1.42-1.07.62-.23 1.35-.35 2.18-.35.93 0 1.96.1 3.07.32.03.62.08 1.18.12 1.7-.9-.37-1.8-.55-2.68-.55-.48 0-.92.06-1.33.18-.41.12-.7.31-.89.55-.19.24-.28.52-.28.81 0 .19.03.37.1.54.07.18.18.37.35.57s.37.4.6.6c.24.19.7.57 1.4 1.11.7.54 1.18.95 1.44 1.21s.48.53.67.81c.19.27.32.55.41.82.09.27.13.55.13.84 0 .55-.17 1.06-.5 1.54-.33.47-.83.84-1.5 1.1-.66.26-1.4.39-2.23.39-.35 0-.75-.02-1.22-.07-.47-.04-.87-.09-1.19-.15-.33-.06-.74-.15-1.22-.27l-.07.04z"/>
  <path fill="#888" d="M45 74.71c-2.73 0-4.94-2.22-4.94-4.94V53.05c0-2.73 2.21-4.94 4.94-4.94h16.71c2.73 0 4.95 2.21 4.95 4.94v16.72c0 2.72-2.22 4.94-4.95 4.94H59.8v5.68h5.49c3.89 0 7.05-3.15 7.05-7.05V49.47c0-3.9-3.16-7.04-7.05-7.04H41.43c-3.9 0-7.06 3.15-7.06 7.05v23.87c0 3.9 3.16 7.05 7.06 7.05h12.69v-5.68L45 74.71z"/>
  <path fill="#111" d="M85.03 62.17H72.34v5.68h9.12c2.73 0 4.94 2.22 4.94 4.95v16.71c0 2.72-2.21 4.94-4.94 4.94H64.75c-2.73 0-4.95-2.22-4.95-4.94V72.8c0-2.73 2.22-4.95 4.95-4.95h1.91v-5.68h-5.49c-3.88 0-7.05 3.16-7.05 7.05v23.87c0 3.9 3.16 7.05 7.05 7.05h23.87c3.9 0 7.05-3.15 7.05-7.05V69.22c-.01-3.89-3.15-7.05-7.06-7.05z"/>
</svg>
