<svg xmlns="http://www.w3.org/2000/svg" width="350" height="170" viewBox="0 0 350 170">
  <path fill="none" d="M0 0h350v170H0z"/>
  <path fill="#111" d="M156.7 22.42v87.07h-11.21V22.42h-16.17v100.14c0 1.67 1.35 3.02 3.02 3.02h37.5c1.67 0 3.02-1.35 3.02-3.02V22.42H156.7zM193.19 125.58V38.51h11.2v87.07h16.17V25.44c0-1.67-1.35-3.02-3.02-3.02h-37.5c-1.67 0-3.02 1.35-3.02 3.02v100.14h16.17z"/>
  <g>
    <path fill="#111" d="M131.58 138.28c.02-.08.03-.16.04-.23s.02-.14.02-.22c0-.36-.11-.58-.32-.65-.21-.08-.61-.12-1.19-.12v-.35l1.85-.36 2-.37c.04-.01.08.01.11.06.03.05.05.1.04.15l-.04.21-2.42 8.41c-.06.21-.1.37-.12.49-.02.12-.04.2-.04.25 0 .19.05.34.16.45.11.11.25.16.43.16.5 0 1.12-.44 1.86-1.31.74-.87 1.41-1.78 1.99-2.72.52-.84 1-1.77 1.44-2.8.27-.64.66-1.66 1.16-3.06h1.88l-2.45 8.84c-.04.17-.08.32-.11.46s-.05.26-.05.35c0 .11.03.2.08.28.05.08.13.12.26.12.12 0 .25-.05.38-.14.13-.1.29-.24.49-.44.09-.09.25-.29.49-.59.15-.18.37-.46.67-.83l.35.24c-.38.63-.77 1.17-1.19 1.63-.81.91-1.57 1.37-2.27 1.37-.36 0-.66-.1-.89-.3-.23-.2-.35-.51-.35-.93 0-.21.02-.45.06-.71.04-.26.11-.55.2-.87.15-.58.35-1.31.59-2.18l.33-1.17h-.09c-1.16 1.94-2.07 3.31-2.73 4.11-1.15 1.38-2.24 2.07-3.26 2.07-.28 0-.53-.06-.75-.17-.44-.23-.65-.65-.65-1.25 0-.17.01-.32.03-.42.02-.11.05-.26.09-.45l1.92-7.01zM146.05 132.17c.04-.11.05-.21.06-.32.01-.11.01-.2.01-.26 0-.28-.11-.46-.34-.52-.23-.06-.68-.09-1.35-.08v-.41c.38-.05.81-.11 1.3-.17.49-.06.81-.11.96-.14.47-.08 1.04-.21 1.7-.38.06 0 .12.04.17.12l-4.15 14.97c-.09.36-.15.57-.16.65-.02.08-.02.15-.02.23 0 .16.03.29.09.4.06.11.17.17.32.17.3 0 .69-.27 1.17-.8s.89-1.05 1.22-1.54l.34.24c-.72 1.05-1.27 1.79-1.67 2.19-.69.69-1.39 1.03-2.09 1.03-.3 0-.57-.07-.8-.22-.36-.22-.54-.61-.54-1.15 0-.21.03-.49.1-.83.05-.21.1-.45.18-.72l3.5-12.46zM149.28 146.22c.01-.09.02-.18.05-.27l2.41-8.69h-1.89c0-.22.02-.37.05-.43.03-.06.12-.11.25-.17.84-.36 1.5-.7 1.96-1.04.46-.33 1.1-.97 1.9-1.93l.2-.24c.02-.03.05-.06.09-.08.04-.02.08-.03.12-.03.09.02.14.03.18.05.02.06.04.11.04.16s0 .09-.01.14l-.73 2.71h2.05l-.15.85h-2.15l-2.3 8.37c-.04.15-.03.29.04.43.06.14.18.21.34.21.22 0 .52-.22.91-.65.23-.23.6-.69 1.13-1.38l.32.19-.17.26c-.71 1.07-1.35 1.82-1.89 2.23-.55.42-1.06.63-1.55.63-.42 0-.73-.11-.92-.33-.19-.22-.29-.48-.29-.76 0-.06 0-.14.01-.23zM160.76 136.01c.03.04.04.1.04.16-.01.08-.01.15-.02.19l-1.27 4.86.29-.58c.6-1.17 1.3-2.24 2.1-3.21.8-.97 1.56-1.45 2.28-1.45.39 0 .69.13.9.39.21.26.32.55.32.88 0 .37-.11.68-.32.93s-.5.37-.88.37c-.26 0-.45-.05-.58-.15-.13-.1-.24-.21-.31-.35l-.15-.27c-.03-.05-.07-.09-.12-.12-.04-.03-.1-.04-.17-.04-.32 0-.79.46-1.4 1.36-.61.9-1.16 1.88-1.64 2.94-.29.64-.61 1.49-.97 2.54-.22.66-.52 1.61-.9 2.83h-1.91l2.08-7.5c.12-.43.21-.82.28-1.16.07-.34.11-.62.11-.84 0-.25-.06-.44-.19-.57-.12-.13-.34-.2-.65-.2-.1 0-.22.01-.37.03-.15.02-.33.04-.54.06v-.41l.5-.1c.65-.13 1.36-.27 2.12-.42s1.17-.22 1.21-.22c.08-.02.13 0 .16.05zM174.68 136.49c.19.18.34.42.45.72l.06.17.28-.94c.04-.11.06-.18.09-.22.03-.03.08-.06.18-.07l1.44-.16c.07 0 .12.01.13.04.02.03.01.08 0 .16-.04.11-.06.19-.08.25-.02.06-.04.15-.08.27l-1.23 4.46c-.27.97-.5 1.81-.68 2.51-.31 1.27-.46 2-.46 2.19 0 .11.03.2.09.25s.14.08.23.08c.07 0 .16-.02.25-.07s.2-.12.33-.23l.22-.17.24-.21c.09-.08.19-.18.31-.29l.81-.8.3.26c-.89 1.1-1.6 1.86-2.14 2.25-.54.39-1.05.59-1.53.59-.32 0-.56-.11-.73-.32-.17-.22-.25-.49-.25-.81 0-.3.06-.73.17-1.29.11-.56.22-1.03.33-1.41-.15.25-.4.61-.75 1.09-.35.48-.78.94-1.3 1.39-.61.54-1.18.92-1.74 1.15-.43.15-.85.22-1.24.22-.67 0-1.28-.28-1.83-.83-.55-.55-.82-1.34-.82-2.35 0-1.74.79-3.57 2.37-5.46 1.63-1.97 3.31-2.96 5.06-2.96.64.03 1.16.2 1.52.54zm-.41.47c-.28-.28-.61-.42-1.01-.42-1.37 0-2.64 1.04-3.81 3.12-1.03 1.83-1.55 3.4-1.55 4.73 0 .66.14 1.15.43 1.45.28.3.64.46 1.06.46 1.25 0 2.46-1.01 3.62-3.03 1.12-1.84 1.68-3.5 1.68-4.98 0-.6-.14-1.04-.42-1.33zM178.54 147.28l2.13-7.7c.18-.65.29-1.04.32-1.18.03-.13.04-.29.04-.44 0-.24-.07-.43-.21-.57-.13-.14-.4-.21-.8-.21-.1 0-.2.01-.29.02-.09.01-.2.03-.32.04v-.41c.54-.08.92-.15 1.14-.19.23-.04.47-.09.74-.15l2.21-.49c.05.03.08.07.1.11l-1.65 5.36c1.02-1.55 1.88-2.7 2.56-3.46 1.21-1.34 2.28-2.01 3.24-2.01.37 0 .69.07.95.21.51.27.76.77.76 1.48 0 .2-.02.41-.06.62-.04.21-.1.45-.16.7l-1.64 5.96c-.03.12-.07.28-.11.45-.04.18-.06.31-.06.38 0 .12.03.24.09.33.06.1.15.15.28.15.21 0 .45-.13.72-.38.27-.25.71-.79 1.32-1.63l.36.32c-.67.92-1.2 1.57-1.59 1.94-.67.66-1.31.98-1.92.98-.28 0-.54-.09-.8-.28-.26-.19-.39-.53-.39-1.02 0-.14.01-.29.03-.45.02-.16.05-.3.08-.41l1.59-6.05c.08-.33.14-.6.17-.82.03-.21.04-.36.04-.45 0-.2-.05-.37-.14-.52-.1-.14-.27-.22-.51-.22-.63 0-1.43.56-2.38 1.69-.56.67-1.14 1.47-1.72 2.4-.43.72-.77 1.42-1.02 2.11s-.65 1.93-1.19 3.74h-1.91zM201.89 137.09c.57.74.86 1.62.86 2.63 0 1.76-.78 3.49-2.33 5.18-1.61 1.76-3.31 2.64-5.13 2.64-1.15 0-2.06-.33-2.75-1s-1.04-1.6-1.04-2.8c0-1.82.77-3.56 2.32-5.22 1.58-1.7 3.29-2.55 5.12-2.55 1.4.01 2.38.38 2.95 1.12zm-7.71 9.22c.35.45.85.68 1.51.68 1.35 0 2.55-1.02 3.6-3.06.89-1.75 1.33-3.36 1.33-4.83 0-.62-.07-1.13-.22-1.51-.29-.72-.82-1.08-1.59-1.08-1.27 0-2.46.95-3.57 2.85-1.04 1.78-1.57 3.52-1.57 5.24-.01.69.16 1.26.51 1.71zM209.37 135.99c.04.03.06.06.05.11l-2.51 8.89c-.12.47-.18.75-.18.84 0 .13.03.23.07.32.04.1.15.15.31.15.28 0 .66-.24 1.12-.74.28-.29.61-.71 1.01-1.25l.32.27-.12.17c-.62.87-1.14 1.5-1.54 1.88-.64.6-1.26.9-1.87.9-.36 0-.65-.15-.89-.45-.24-.3-.36-.65-.36-1.06 0-.24.02-.45.05-.63.03-.18.1-.44.19-.79l1.77-6.4c.03-.1.05-.19.06-.28.02-.08.03-.16.03-.25 0-.3-.11-.48-.33-.55-.22-.07-.65-.11-1.3-.11v-.41c.69-.08 1.18-.15 1.48-.19.3-.04.61-.09.91-.14.39-.07.77-.14 1.12-.23.37-.06.57-.08.61-.05zm-1.17-3.12c-.24-.27-.36-.59-.36-.96 0-.39.12-.71.36-.97.24-.27.53-.4.87-.4.34 0 .63.13.88.4.24.27.37.59.37.97s-.12.7-.37.96-.54.39-.88.39c-.34.01-.63-.13-.87-.39zM216.04 136.01c.03.04.04.1.04.16-.01.08-.02.15-.02.19l-1.27 4.86.29-.58c.6-1.17 1.3-2.24 2.1-3.21.8-.97 1.56-1.45 2.29-1.45.39 0 .69.13.9.39.21.26.32.55.32.88 0 .37-.11.68-.31.93-.21.25-.5.37-.88.37-.26 0-.45-.05-.59-.15-.13-.1-.23-.21-.31-.35l-.15-.27c-.03-.05-.07-.09-.12-.12-.04-.03-.1-.04-.17-.04-.32 0-.79.46-1.4 1.36-.61.9-1.16 1.88-1.64 2.94-.29.64-.62 1.49-.97 2.54-.22.66-.53 1.61-.9 2.83h-1.91l2.08-7.5c.12-.43.21-.82.28-1.16.07-.34.11-.62.11-.84 0-.25-.06-.44-.19-.57-.12-.13-.34-.2-.65-.2-.1 0-.22.01-.37.03-.15.02-.33.04-.54.06v-.41l.5-.1c.65-.13 1.36-.27 2.12-.42.77-.15 1.17-.22 1.21-.22.06-.02.12 0 .15.05z"/>
  </g>
</svg>
