<?xml version="1.0" encoding="utf-8"?>
<!-- Generator: Adobe Illustrator 16.0.0, SVG Export Plug-In . SVG Version: 6.00 Build 0)  -->
<!DOCTYPE svg PUBLIC "-//W3C//DTD SVG 1.1//EN" "http://www.w3.org/Graphics/SVG/1.1/DTD/svg11.dtd">
<svg version="1.1" id="Layer_1" xmlns="http://www.w3.org/2000/svg" xmlns:xlink="http://www.w3.org/1999/xlink" x="0px" y="0px"
	 width="331.2px" height="122.16px" viewBox="0 0 331.2 122.16" enable-background="new 0 0 331.2 122.16" xml:space="preserve">
<g>
	<g>
		<path fill="#FEFEFE" d="M0.24,91.2c0-29.99,0-59.99-0.02-89.98c0-0.77,0.09-1.01,0.96-1.01c109.77,0.03,219.55,0.03,329.32,0
			c0.86,0,0.96,0.23,0.96,1c-0.02,27.67-0.02,55.35-0.02,83.02c-1.12,0.39-1.59,0.14-1.76-0.95c-0.09-0.55-0.05-1.12-0.05-1.68
			c0-1.88,0.02-3.76-0.01-5.64c-0.02-1.3-0.15-1.43-1.47-1.44c-3.6-0.02-7.2,0-10.8-0.01c-1.9-0.01-2.11-0.22-2.12-2.16
			c-0.01-1.6,0.01-3.2-0.01-4.8c-0.02-1.27-0.12-1.38-1.35-1.43c-0.86-0.03-1.62-0.08-2.12-1.01c-0.38-0.7-1.22-0.47-1.87-0.36
			c-0.78,0.13-0.62,0.84-0.62,1.36c-0.02,6.68-0.01,13.36-0.01,20.04c0,1.28,0.04,2.56-0.02,3.84c-0.05,1.23-0.44,1.57-1.63,1.54
			c-1.07-0.03-1.41-0.34-1.47-1.45c-0.06-1.08-0.04-2.16-0.02-3.24c0.01-0.82-0.25-1.31-1.15-1.3c-0.9,0.02-1.42-0.42-1.52-1.33
			c-0.02-0.16-0.08-0.43-0.16-0.43c-1.62-0.08-1.79-2.1-3.25-2.39c-0.62-0.12-0.8-0.6-0.84-1.16c-0.06-0.72-0.02-1.44-0.04-2.16
			c-0.03-1.29-0.12-1.38-1.36-1.39c-0.52-0.01-1.04,0.02-1.56,0c-0.87-0.04-1.57,0.05-1.75,1.14c-0.11,0.69-0.76,0.74-1.33,0.77
			c-1.16,0.05-2.32,0.04-3.48,0.01c-0.89-0.02-1.32,0.3-1.31,1.25c0.01,0.69,0.22,1.6-0.62,1.91c-1.02,0.38-2.14,0.38-3.17-0.04
			c-0.55-0.23-0.51-0.86-0.52-1.38c-0.04-1.56,0-3.12-0.02-4.68c-0.01-1.51-0.11-1.6-1.66-1.61c-0.16,0-0.32,0-0.48,0
			c-2,0-3.12,1.07-3.11,3.11c0.02,3.95-0.81,7.86-0.5,11.83c0.02,0.24-0.02,0.48-0.08,0.71c-0.09,0.37-0.26,0.68-0.69,0.73
			c-0.45,0.04-0.77-0.16-0.96-0.56c-0.23-0.49-0.2-1.02-0.2-1.53c-0.01-2.8,0-5.6-0.01-8.4c-0.01-1.44-0.04-1.46-1.46-1.56
			c-1.4-0.1-1.63-0.32-1.65-1.77c-0.04-2.63,0.34-2.55-2.66-2.54c-1.81,0.01-1.88,0.08-1.89,1.9c0,0.92,0,1.84,0,2.76
			c0,0.56,0.05,1.12-0.01,1.68c-0.09,0.8,0.37,2.06-0.93,2.09c-1.35,0.04-0.91-1.24-0.98-2.03c-0.07-0.83-0.03-1.68-0.01-2.52
			c0.02-0.89-0.01-1.66-1.16-1.87c-0.74-0.13-0.74-0.87-0.75-1.47c-0.01-0.76-0.08-1.43-1-1.65c-0.44-0.1-0.58-0.51-0.64-0.93
			c-0.07-0.48-0.05-0.96-0.05-1.44c0-6.6,0-13.2,0-19.8c0-1.66,0.05-1.98-1.7-1.95c-0.94,0.01-1.38-0.48-1.4-1.41
			c-0.01-0.52-0.04-1.04-0.01-1.56c0.05-1-0.04-1.8-1.33-1.94c-0.83-0.09-0.78-0.89-0.82-1.53c-0.11-1.41-0.14-1.45-1.57-1.46
			c-2.4-0.01-4.8-0.02-7.2,0c-0.99,0.01-1.8-0.28-2.39-1.1c-0.19-0.26-0.39-0.54-0.65-0.7c-1.7-1.01-1.82-2.68-1.85-4.39
			c-0.03-1.17,0.06-2.35-0.04-3.53c-0.04-0.16-0.21,0.08-0.07-0.01c0.05-0.03,0.08-0.01,0.08,0.08c0.04,1.88,0.11,3.75-0.2,5.61
			c-0.08,0.48-0.15,0.97-0.57,1.28c-1.43,1.06-2.36,2.61-3.68,3.77c-0.94,0.82-1.3,1.82-1.29,3.08c0.04,5.16,0.02,10.32,0.01,15.48
			c0,2.07-0.18,2.24-2.27,2.25c-2.64,0.01-5.28-0.01-7.92,0.01c-1.46,0.01-1.56,0.11-1.57,1.58c-0.01,8.2,0,16.4-0.01,24.6
			c0,0.56,0.04,1.12-0.08,1.67c-0.08,0.37-0.22,0.71-0.69,0.69c-0.39-0.02-0.52-0.33-0.6-0.65c-0.11-0.47-0.09-0.95-0.09-1.43
			c0-4.76-0.08-9.52,0.03-14.28c0.06-2.66-1.48-3.21-3.35-3.04c-0.36,0.03-0.71,0.12-1.06,0.21c-0.65,0.16-0.98-0.15-1.08-0.77
			c-0.08-0.52-0.06-1.04-0.06-1.56c0-10.04-0.02-20.08,0.02-30.12c0.01-1.54-0.59-2.98-0.56-4.5c0.01-0.5-0.38-0.72-0.82-0.68
			c-1.86,0.21-2.96-0.94-4-2.2c-0.25-0.31-0.52-0.61-0.82-0.87c-0.83-0.72-2.11-0.75-2.98-0.07c-0.41,0.32-0.76,0.72-1.07,1.13
			c-0.97,1.26-2.09,2.21-3.82,2.02c-0.16-0.02-0.31,0.06-0.47,0.25c0.56,0.75,0.7,1.63,0.58,2.56c-0.13,1.02-0.63,1.3-1.58,0.92
			c-0.15-0.06-0.27-0.17-0.42-0.23c-1.38-0.55-2.04-0.11-2.04,1.38c-0.01,7.88,0,15.76-0.01,23.64c0,1.2,0.3,2.52-1.32,3.1
			c-0.47,0.17-0.32,0.85-0.36,1.32c-0.12,1.28-0.34,1.49-1.63,1.56c-0.28,0.01-0.56,0.01-0.84,0.01c-1.81-0.02-1.97-0.14-2.1-1.94
			c-0.05-0.68-0.21-1.17-1.02-1.17c-0.73,0.01-1.4-0.05-1.64,0.95c-0.32,1.33-1.51,1.57-2.52,0.6c-0.58-0.55-2.35-0.82-3.02-0.48
			c-0.29,0.15-0.39,0.41-0.41,0.68c-0.08,1.11-0.79,1.36-1.74,1.35c-1.12-0.01-2.24,0.01-3.36,0c-0.72,0-1.35,0.07-1.62,0.9
			c-0.17,0.52-0.64,0.68-1.14,0.74c-0.6,0.06-1.2,0.02-1.8,0.04c-0.99,0.02-1.63-0.33-1.68-1.41c-0.03-0.7-0.46-0.96-1.11-0.97
			c-1.72-0.02-3.44,0-5.16-0.01c-0.82-0.01-1.14,0.37-1.14,1.17c0,1.6,0,3.2,0,4.8c0,0.77-0.04,1.52-0.8,2.01
			c-0.42,0.27-0.38,0.77-0.43,1.2c-0.1,0.87-0.64,1.13-1.42,1.1c-0.79-0.03-1.14-0.49-1.17-1.23c-0.07-1.64-0.01-3.28-0.04-4.92
			c-0.02-1.34-0.13-1.46-1.43-1.47c-1.44-0.02-2.88-0.02-4.32,0c-1.3,0.02-1.42,0.14-1.42,1.47c-0.01,4.52,0,9.04-0.01,13.56
			c0,0.48,0.02,0.96-0.06,1.44c-0.08,0.53-0.33,0.91-0.93,0.9c-0.61-0.01-0.82-0.42-0.9-0.93c-0.07-0.44-0.05-0.88-0.05-1.32
			c0-2.92,0-5.84,0-8.76c0-1.32,0.14-1.87-1.59-1.83c-0.36,0.01-0.78-0.05-0.98-0.37c-0.52-0.83-1.3-0.8-2.11-0.8
			c-1.72,0.01-3.44,0-5.16,0c-1.33,0-1.41,0.07-1.42,1.44c-0.01,2.92,0.01,5.84-0.01,8.76c-0.01,1.88-0.49,2.38-2.29,2.46
			c-1.33,0.06-2.18-0.8-2.26-2.37c-0.04-0.78-0.05-1.48-0.93-1.88c-0.58-0.26-0.51-0.95-0.52-1.5c-0.02-1.88-0.01-3.76-0.01-5.64
			c0-7.24,0-14.48,0-21.72c0-0.93,0.18-1.8,0.45-2.69c0.52-1.74,0.31-3.57,0.39-5.36c0.04-0.8,0.02-1.6,0.04-2.4
			c0.01-0.49,0.09-1.05,0.52-1.29c1.16-0.65,0.74-1.75,0.84-2.68c0.06-0.55-0.48-0.71-0.88-0.85c-1.25-0.45-1.7-1.33-1.6-2.61
			c0.07-0.91-0.06-1.84,0.17-2.75c0.04-0.15,0.09-0.32,0.02-0.47c-1.25-3.03-1.08-6.24-1.13-9.41c-0.06-3.28-0.39-6.55-0.25-9.83
			c0.09-2.02,0.23-4.04-0.01-5.69c0.04,1.36,0.05,3.09,0.05,4.82c0.01,4.56-0.39,9.11-0.28,13.67c0.04,1.73-0.16,3.51-0.62,5.09
			c-0.49,1.65-0.24,3.21-0.3,4.8c-0.05,1.08-0.39,1.79-1.37,2.3c-1.29,0.66-1.51,2.24-0.53,3.28c0.93,0.98,1.03,2.2,0.96,3.44
			c-0.11,2.11-0.32,4.22,0.44,6.27c0.21,0.58,0.24,1.17,0.24,1.77c0,6.48,0.01,12.96,0,19.44c0,1.54-0.29,2.05-1.13,1.97
			c-1.27-0.11-0.96-1.15-1.05-1.93c-0.04-0.36-0.05-0.72-0.06-1.08c-0.08-1.66-0.08-1.67-1.69-1.67c-0.92-0.01-1.84-0.01-2.76,0
			c-1.33,0.02-1.45,0.13-1.45,1.44c-0.02,3.08,0,6.16-0.01,9.24c0,0.44,0.02,0.88-0.08,1.32c-0.08,0.37-0.21,0.71-0.67,0.71
			c-0.42,0.01-0.64-0.27-0.79-0.62c-0.06-0.15-0.11-0.31-0.11-0.47c0.05-1.15-0.16-2.19-1.08-3.03c-0.35-0.32-0.34-0.88-0.36-1.36
			c-0.17-6.04,0.06-12.07,0.39-18.09c0.08-1.39-0.08-1.61-1.5-1.62c-3-0.01-6-0.02-9,0c-1.35,0.01-1.7,0.4-1.32,1.69
			c0.33,1.1,0.35,2.2,0.35,3.32c0,3.48,0.02,6.96-0.01,10.44c-0.01,1.7-0.38,2.06-2.06,2.04c-0.68-0.01-1.26,0.04-1.64,0.71
			c-0.14,0.25-0.42,0.4-0.71,0.41c-1.09,0.03-1.37,0.64-1.39,1.64c-0.03,1.18-0.44,1.51-1.66,1.56c-1.4,0.06-2.8,0.01-4.2,0.02
			c-0.64,0-1.26,0.07-1.87,0.33c-0.89,0.38-1.45,0.12-1.51-0.84c-0.08-1.29-0.78-1.44-1.82-1.42c-2.09,0.04-2.09,0-2.09,2.14
			c0,1.56,0,3.12,0,4.68c0,0.36,0.02,0.72-0.04,1.08c-0.07,0.43-0.09,0.96-0.68,0.97c-0.6,0.02-0.66-0.5-0.7-0.94
			c-0.09-0.88-0.05-1.76-0.04-2.64c0.01-0.81-0.13-1.42-1.11-1.5c-0.81-0.07-1.01-0.68-1.03-1.38c-0.04-1.36-0.04-2.72-0.01-4.08
			c0.02-0.93-0.26-1.55-1.26-1.69c-0.83-0.11-1.11-0.68-1.13-1.45c-0.03-1.24-0.03-2.48-0.01-3.72c0.01-0.88-0.29-1.34-1.24-1.32
			c-1.52,0.03-3.04,0.01-4.56,0.01c-0.81,0-1.15,0.37-1.14,1.17c0.01,1.36,0,2.72-0.01,4.08c-0.01,1-0.49,1.47-1.47,1.46
			c-0.16,0-0.32,0.01-0.48,0.01c-2.6,0.05-2.81-0.15-2.86-2.72c-0.03-1.52-0.1-1.59-1.66-1.6c-0.48,0-0.96,0.01-1.44-0.01
			c-1.39-0.05-1.66-0.31-1.68-1.74c-0.04-2,0.01-4-0.02-6c-0.01-1.14-1.24-2.69-2.35-3.02c-0.11-0.03-0.24-0.04-0.34-0.11
			c-2.02-1.52-4.19-2.85-5.77-4.89c-0.23-0.3-0.38-0.63-0.37-1c0.06-2.39-0.26-4.79-0.08-6.87c-0.29,1.44,0.08,3.2,0.06,4.96
			c-0.02,1.74-0.54,3.12-1.83,4.37c-2.97,2.88-2.48,1.83-2.5,6.01c-0.02,8.04-0.01,16.08-0.01,24.12c0,0.4-0.02,0.8,0,1.2
			c0.12,1.91-0.82,2.15-2.7,1.79c-0.52-0.1-0.77-0.53-0.86-1.05c-0.09-0.52-0.07-1.04-0.07-1.56c0-10.32,0-20.64,0-30.96
			c0-0.92-0.02-1.83,0.52-2.66c0.31-0.48,0.2-1.09,0.2-1.65c0-3.75,0.03-7.5,0.01-11.25c-0.01,1.35,0,2.71-0.01,4.06
			c-0.01,1.96-0.72,2.4-2.43,1.43c-3.02-1.7-6.25-2.83-9.61-3.6c-1.63-0.38-3.28-0.72-4.97-0.62c-0.35,0.02-0.81-0.05-0.95,0.35
			c-0.13,0.39,0.24,0.65,0.51,0.87c1.05,0.83,2.27,1.33,3.48,1.85c0.44,0.19,0.9,0.34,1.31,0.59c0.43,0.25,0.58,0.62,0.13,0.94
			c-0.58,0.41-0.62,0.97-0.67,1.58c-0.1,1.2-0.35,1.42-1.57,1.48c-0.56,0.03-1.12,0.02-1.68,0.02c-0.69,0-1.03,0.32-1.04,1.02
			c0,0.4-0.01,0.8-0.01,1.2c0,8.8,0,17.6,0,26.4c0,0.44,0.01,0.88-0.01,1.32c-0.05,1.41-0.31,1.67-1.7,1.73
			c-2.37,0.1-2.19,0.14-2.7,2.45c-0.52,2.39-0.29,4.77-0.4,7.16c-0.04,0.74-0.07,1.46-1.05,1.62c-1.17,0.19-1.77-0.23-1.82-1.42
			c-0.07-1.48-0.03-2.96-0.02-4.44c0.01-0.74-0.24-1.06-1.03-1.11c-1.28-0.07-1.57-0.42-1.6-1.74c-0.05-2.2-0.01-4.4-0.02-6.6
			c-0.01-1.59-0.08-1.67-1.72-1.67c-3.56-0.01-7.12,0.01-10.68-0.01c-1.76-0.01-1.98-0.25-2-2.04c-0.01-1.64,0.01-3.28-0.01-4.92
			c-0.01-1.27-0.12-1.39-1.35-1.43c-0.86-0.03-1.6-0.1-2.12-1c-0.42-0.73-1.3-0.5-1.98-0.33c-0.68,0.16-0.51,0.83-0.51,1.32
			C6.84,73.48,6.85,80.84,6.85,88.2c0,3.58,0.12,3.4-3.44,3.35C2.35,91.54,1.24,91.85,0.24,91.2z"/>
		<path fill-rule="evenodd" clip-rule="evenodd" fill="#014095" d="M0.24,91.2c1.72,0,3.44-0.05,5.16,0.02
			c0.88,0.04,1.15-0.18,1.15-1.1c-0.03-7.96-0.01-15.92,0-23.88c0-1.98,0-1.98,2.04-1.98c0.28,0,0.56-0.02,0.84,0.01
			c0.14,0.02,0.39,0.13,0.38,0.19c-0.2,2.09,1.39,1.24,2.25,1.25c0.97,0.02,1.3,0.22,1.25,1.25c-0.09,2.08,0.01,4.16-0.04,6.24
			c-0.02,0.8,0.25,0.99,1.02,0.99c4.04-0.04,8.08,0.02,12.12-0.04c0.97-0.01,1.21,0.27,1.19,1.21c-0.06,2.56,0.02,5.12-0.04,7.67
			c-0.02,0.89,0.2,1.17,1.12,1.14c1.64-0.07,1.64-0.01,1.64,1.6c0,1.52,0.06,3.04-0.01,4.56c-0.04,0.81,0.31,0.91,0.98,0.9
			c0.69-0.01,1.18-0.05,1.05-0.94c-0.06-0.43,0.04-0.89-0.02-1.32c-0.39-2.85,0.6-5.6,0.57-8.43c0-0.52,0.29-0.58,0.69-0.58
			c0.76,0.01,1.53-0.06,2.28,0.02c1.04,0.1,1.41-0.19,1.4-1.34c-0.06-9.68,0-19.36-0.07-29.04c-0.01-1.28,0.38-1.64,1.54-1.46
			c0.2,0.03,0.4,0.01,0.6,0.01c2.09,0.01,2.18,0,2.15-2.06c-0.01-1.06,0.79-0.57,1.37-0.92c-1.39-0.62-2.62-1.19-3.87-1.72
			c-0.78-0.33-1.44-0.85-2.1-1.36c-0.31-0.24-0.62-0.57-0.47-1.01c0.15-0.45,0.57-0.48,0.98-0.52c2.23-0.19,4.38,0.31,6.49,0.86
			c3.27,0.85,6.47,1.93,9.4,3.71c1.01,0.62,1.43,0.36,1.44-0.79c0-1.72-0.01-3.44,0.01-5.16c0-0.26-0.2-0.72,0.34-0.72
			c0.5,0,0.37,0.44,0.37,0.72c0.01,4.36,0.61,8.83-0.17,13.05c-0.72,3.89-0.28,7.68-0.48,11.5c-0.21,3.91-0.05,7.84-0.05,11.76
			c0,3.96,0.05,7.92-0.03,11.88c-0.02,1.06,0.41,1.15,1.25,1.13c1.66-0.04,1.66-0.01,1.66-1.64c0-9.32,0.01-18.64-0.01-27.96
			c0-0.69,0.15-1.16,0.7-1.64c1.08-0.94,2.02-2.04,3.09-3c0.56-0.5,0.41-1.1,0.44-1.65c0.13-2.27,0.19-4.55,0.28-6.83
			c0.01-0.26-0.08-0.57,0.24-0.81c0.11,2.51,0.35,4.98,0.27,7.44c-0.04,1.34,0.67,2.03,1.46,2.8c0.68,0.67,1.39,1.31,2.04,2.01
			c0.3,0.32,0.58,0.5,1.03,0.47c0.62-0.05,1.16-0.09,1.15,0.87c-0.01,0.65,0.7,0.38,1.07,0.36c0.68-0.03,1.09,0.08,0.99,0.89
			c-0.03,0.26-0.04,0.67,0.35,0.63c1.02-0.12,0.82,0.57,0.82,1.14c0,2.4,0.02,4.8-0.01,7.2c-0.01,0.68,0.17,0.91,0.87,0.87
			c1.08-0.06,2.16,0.01,3.24-0.03c0.55-0.02,0.84,0.12,0.75,0.72c-0.03,0.2,0,0.4,0,0.6c0.01,3.16,0.34,3.42,3.5,2.97
			c0.63-0.09,0.54-0.46,0.54-0.84c0.01-1.64,0.04-3.28-0.01-4.92c-0.02-0.71,0.13-0.99,0.91-0.96c2,0.06,4,0.06,6,0.01
			c0.71-0.02,0.87,0.23,0.85,0.88c-0.04,1.56,0.01,3.12-0.03,4.68c-0.01,0.65,0.03,1.09,0.87,0.99c1.22-0.14,1.61,0.44,1.52,1.66
			c-0.12,1.47,0.02,2.96-0.05,4.44c-0.04,0.8,0.22,1.12,1,0.99c0.94-0.15,1.25,0.22,1.18,1.17c-0.09,1.15-0.03,2.32-0.01,3.48
			c0,0.25-0.15,0.65,0.23,0.69c0.51,0.06,0.38-0.4,0.38-0.69c0.01-2.32,0.08-4.64-0.02-6.96c-0.05-1.19,0.26-1.69,1.49-1.48
			c0.39,0.07,0.8,0.01,1.2,0.01c1.86,0,1.86,0,2.01,1.86c0.02,0.27-0.07,0.6,0.32,0.67c0.28,0.05,0.69,0.1,0.76-0.16
			c0.18-0.73,0.72-0.5,1.15-0.5c1.8-0.02,3.6-0.03,5.4,0.01c0.7,0.01,1.08-0.16,0.97-0.93c-0.02-0.16,0.02-0.32-0.01-0.48
			c-0.18-1.22,0.08-2.01,1.58-1.69c0.24,0.05,0.73,0.08,0.71-0.24c-0.09-1.37,0.87-1.02,1.59-1.02c1.93-0.01,1.93,0,1.93-1.97
			c0-3.72-0.06-7.44,0.04-11.16c0.03-1.2-0.67-2.21-0.54-3.43c0.08-0.81,0.38-0.87,1.02-0.86c3.6,0.02,7.2,0.04,10.8-0.01
			c0.86-0.01,1.02,0.32,0.93,1.03c-0.64,5.32-0.25,10.66-0.39,15.99c-0.03,1.08-0.01,2.16,0.01,3.23c0.01,0.74-0.15,1.6,1.05,1.6
			c0.42,0,0.3,0.41,0.3,0.65c0.02,0.68-0.01,1.36,0,2.04c0.01,0.33-0.14,0.78,0.43,0.81c0.69,0.04,0.5-0.49,0.5-0.84
			c0.01-3.6,0.05-7.2-0.02-10.8c-0.02-0.98,0.21-1.32,1.23-1.25c1.55,0.09,3.12,0.05,4.68,0.02c0.57-0.01,0.76,0.14,0.74,0.73
			c-0.05,1.07,0.02,2.15-0.02,3.22c-0.02,0.61,0.16,0.85,0.81,0.85c0.59-0.01,0.74-0.21,0.74-0.77c-0.01-7.08-0.01-14.16-0.01-21.24
			c-1.06-2.04-0.49-4.28-0.81-6.41c-0.11-0.7,0.3-1.33,0.07-2.14c-0.25-0.88-0.13-1.77-1.28-2.04c-0.2-0.05-0.29-0.19-0.26-0.52
			c0.15-1.55,0.04-3.21,2.18-3.51c0.1-0.01,0.25-0.15,0.25-0.23c-0.03-1.47,0.43-2.97-0.23-4.4c-0.18-0.39-0.36-0.88,0.16-0.91
			c0.98-0.05,0.65-0.7,0.69-1.18c0.73-8.19,0.5-16.42,1.14-24.63c0.06,1.22,0.13,2.44,0.17,3.66c0.17,5.96,0.32,11.91,0.51,17.87
			c0.04,1.22,0.44,2.42,0.3,3.67c-0.04,0.39,0.09,0.59,0.52,0.58c0.64-0.03,0.68,0.46,0.43,0.79c-1.05,1.4-0.27,2.96-0.4,4.43
			c-0.04,0.48,0.78,0.56,1.23,0.77c0.75,0.35,1.58,0.62,1.09,1.76c-0.1,0.24-0.11,0.6,0,0.83c0.38,0.78,0.05,1.14-0.67,1.31
			c-0.6,0.14-0.67,0.58-0.67,1.09c-0.03,2.18,0.25,4.43-0.19,6.53c-1.03,4.93-0.49,9.89-0.58,14.83
			c-0.11,5.68-0.02,11.36-0.03,17.04c0,0.65-0.03,1.2,0.9,1.1c0.72-0.08,0.52,0.51,0.57,0.91c0.12,0.88-0.35,1.84,0.58,2.63
			c0.28,0.24,0.45,0.42,0.8,0.43c1.97,0.09,2.33-0.24,2.33-2.14c0-3.2,0.02-6.4-0.02-9.6c-0.01-0.8,0.15-1.12,1.04-1.09
			c2.44,0.07,4.88,0.03,7.32,0.02c0.54,0,0.95,0.04,0.86,0.76c-0.09,0.75,0.48,0.56,0.88,0.57c1.99,0.04,1.99,0.04,1.99,2
			c0,3.32-0.01,6.64,0.01,9.96c0,0.41-0.27,1.02,0.58,1c0.84-0.02,0.55-0.64,0.55-1.04c0.02-5.12,0.04-10.24-0.01-15.36
			c-0.01-0.97,0.28-1.19,1.2-1.16c1.96,0.07,3.92,0.05,5.88,0.01c0.68-0.01,0.9,0.18,0.88,0.87c-0.04,2,0.01,4-0.03,6
			c-0.02,0.71,0.24,0.89,0.89,0.84c0.52-0.04,1.02,0.09,1.01-0.75c-0.02-0.75-0.49-1.85,1.05-1.82c0.32,0.01,0.21-0.54,0.21-0.85
			c0.01-1.88,0.06-3.76-0.02-5.64c-0.04-0.96,0.17-1.34,1.22-1.29c1.92,0.09,3.84,0.07,5.76,0.01c0.87-0.03,1.31,0.18,1.16,1.11
			c-0.19,1.08,0.28,1.44,1.32,1.28c0.51-0.08,1.04-0.08,1.56-0.03c0.81,0.07,1.32-0.08,1.19-1.06c-0.09-0.64,0.41-0.55,0.8-0.55
			c1.56,0,3.12-0.04,4.68,0.01c0.8,0.03,1.24-0.14,1.07-1.02c-0.2-1.04,0.28-1.32,1.24-1.2c0.59,0.07,1.2,0.03,1.8,0.01
			c0.59-0.02,1.07-0.06,1.06,0.82c0,0.87,0.78,0.39,1.2,0.47c0.39,0.07,0.78,0.06,0.81-0.56c0.03-0.52-0.33-1.36,0.26-1.52
			c0.86-0.23,1.83-0.15,2.73-0.05c0.46,0.05,0.25,0.6,0.26,0.93c0.05,2.12,0.04,2.12,2.12,2.12c0.2,0,0.4-0.03,0.6,0
			c0.92,0.16,1.33-0.17,1.18-1.14c-0.06-0.43,0-0.88-0.01-1.32c-0.01-0.45,0.18-0.71,0.63-0.63c0.96,0.16,0.99-0.38,0.99-1.12
			c-0.02-8.6,0.01-17.2-0.04-25.8c0-1,0.25-1.42,1.23-1.2c0.63,0.14,1.49-0.47,1.88,0.63c0.08,0.23,0.94,0.43,0.99-0.39
			c0.04-0.64-0.01-1.28,0.01-1.92c0.02-0.42-0.16-0.56-0.56-0.56c-0.48-0.01-0.41-0.39-0.42-0.7c0-0.42,0.31-0.45,0.58-0.39
			c2.15,0.45,3.37-0.79,4.52-2.33c0.63-0.84,1.39-1.59,2.69-1.37c0.65,0.11,1.16,0.17,1.61,0.77c0.64,0.86,1.47,1.56,2.17,2.38
			c0.67,0.79,1.54,0.57,2.33,0.52c0.96-0.06,1.19,0.2,1.29,1.21c1.09,11.95,0.17,23.92,0.48,35.88c0.02,0.81,0.02,0.81,0.72,0.44
			c0.98-0.53,4.04,0.21,4.66,1.19c0.17,0.26,0.1,0.69,0.1,1.04c0,5.32,0,10.64,0,15.96c0,0.2-0.03,0.41,0.01,0.6
			c0.06,0.3-0.24,0.83,0.39,0.79c0.58-0.04,0.29-0.55,0.34-0.85c0.05-0.31,0.01-0.64,0.01-0.96c0-8.6,0.01-17.2-0.02-25.79
			c0-0.94,0.22-1.22,1.18-1.2c3.2,0.06,6.4,0,9.6,0.04c0.79,0.01,0.99-0.21,0.99-1c-0.03-5.72,0-11.44-0.03-17.16
			c0-0.73,0.15-1.31,0.69-1.8c1.61-1.47,2.75-3.41,4.64-4.58c0.31-0.19,0.19-0.49,0.21-0.74c0.19-2.25,0.36-4.51,0.66-6.76
			c0.17,2.18,0.36,4.37,0.5,6.55c0.04,0.53,0.07,0.86,0.69,1.14c0.61,0.28,1.08,0.94,1.5,1.52c0.61,0.84,1.38,1.03,2.37,1.01
			c2.6-0.06,5.2,0.02,7.8-0.04c0.86-0.02,1.29,0.15,1.13,1.1c-0.05,0.27,0.04,0.57-0.01,0.84c-0.17,1,0.23,1.41,1.22,1.23
			c0.85-0.15,1.04,0.28,0.95,1.01c-0.04,0.36-0.01,0.72-0.01,1.08c0.01,0.84-0.26,1.86,0.13,2.46c0.39,0.61,1.48,0.19,2.26,0.21
			c0.64,0.02,0.7,0.33,0.7,0.84c-0.02,1.68,0,3.36,0,5.04c0,5.8,0.01,11.6-0.01,17.4c0,0.71,0.09,1.17,0.94,1.02
			c0.65-0.12,0.86,0.19,0.8,0.8c-0.04,0.32,0.03,0.64-0.01,0.96c-0.12,0.95,0.07,1.56,1.23,1.32c0.62-0.13,0.71,0.23,0.7,0.76
			c-0.03,1.64,0,3.28-0.01,4.92c0,0.47-0.03,0.87,0.64,0.89c0.74,0.02,0.59-0.47,0.59-0.88c0.01-2.2,0.06-4.4-0.02-6.6
			c-0.04-0.99,0.31-1.24,1.22-1.18c1.08,0.07,2.16,0.04,3.24,0.01c0.61-0.02,0.91,0.16,0.82,0.8c-0.03,0.2-0.01,0.4,0,0.6
			c0.02,0.88-0.26,1.95,0.14,2.58c0.41,0.63,1.56,0.21,2.38,0.22c0.83,0.01,0.62,0.56,0.62,0.99c0.01,3.28,0.01,6.56,0.01,9.84
			c0,0.28-0.01,0.56,0.01,0.84c0.02,0.46,0.32,0.59,0.73,0.59c0.5,0,0.44-0.36,0.44-0.67c0-2-0.15-4.01,0.04-6
			c0.24-2.51,0.43-5.01,0.35-7.54c-0.01-0.22-0.03-0.6,0.25-0.59c0.78,0.01,0.81-0.45,0.76-1.02c-0.04-0.46,0.15-0.64,0.62-0.64
			c1.28,0.02,2.56,0.03,3.84-0.01c0.75-0.02,0.7,0.44,0.7,0.94c-0.01,2,0.03,4-0.02,6c-0.02,0.76,0.22,0.92,0.94,0.92
			c2.52,0.01,2.55,0.04,2.56-2.53c0-0.73,0.19-0.97,0.94-0.95c1.48,0.05,2.96-0.02,4.44,0.03c0.7,0.02,1.09-0.14,0.96-0.91
			c-0.15-0.9,0.31-1.06,1.09-1.02c1.12,0.05,2.24,0.03,3.36-0.02c0.57-0.02,0.78,0.13,0.76,0.73c-0.04,1.08,0.05,2.16,0,3.24
			c-0.03,0.72,0.06,1.14,0.95,1.01c0.82-0.12,1.43,0.11,1.23,1.15c-0.12,0.62,0.22,0.78,0.75,0.69c1.05-0.18,1.51,0.23,1.33,1.29
			c-0.17,0.99,0.46,0.95,1.14,0.95c1.57,0.01,1.57,0.03,1.57,1.61c0,1.2,0.04,2.4-0.02,3.6c-0.04,0.75,0.39,0.83,0.88,0.69
			c0.54-0.15,1.48,0.61,1.58-0.61c0.05-0.6,0.03-1.2,0.03-1.8c0-7.76,0.02-15.52-0.02-23.28c-0.01-1,0.26-1.38,1.25-1.24
			c0.39,0.06,0.8,0.04,1.2,0c0.65-0.07,1,0.12,0.88,0.84c-0.08,0.52,0.15,0.75,0.67,0.67c0.08-0.01,0.16,0,0.24,0
			c2.52,0.05,2.52,0.05,2.52,2.55c0,1.56,0.05,3.12-0.01,4.68c-0.04,0.91,0.18,1.22,1.17,1.21c3.96-0.06,7.92,0,11.88-0.05
			c0.96-0.01,1.32,0.19,1.28,1.23c-0.08,2.36,0.05,4.72-0.05,7.07c-0.05,1.17,0.1,1.93,1.49,1.79c0,12.72,0,25.44,0,38.16
			c-0.42,0.22-0.86,0.11-1.3,0.11c-109.54,0.01-219.07,0.01-328.61,0c-0.43,0-0.88,0.11-1.3-0.11C0.24,112,0.24,101.6,0.24,91.2z"/>
		<path fill-rule="evenodd" clip-rule="evenodd" fill="#FEFEFE" d="M0.24,122.4c110.4,0,220.8,0,331.2,0
			c-0.05,0.07,0.12,0.25-0.12,0.24c-0.32-0.01-0.64,0-0.96,0c-109.68,0-219.36,0-329.04-0.01C0.97,122.62,0.51,122.9,0.24,122.4z"/>
		<path fill-rule="evenodd" clip-rule="evenodd" fill="#FDFDFE" d="M51.93,45.37c-2.24,0-4.25,0.13-6.23-0.03
			c-2.17-0.18-4.07-1.27-5.92-2.36c-0.35-0.21-0.71-0.63-0.56-1.06c0.1-0.29,0.55-0.24,0.93-0.26c3.31-0.12,6.3,1.04,9.28,2.23
			C50.25,44.21,51.14,44.47,51.93,45.37z"/>
		<path fill-rule="evenodd" clip-rule="evenodd" fill="#FAFBFC" d="M164.56,84.63c0-1.64,0.03-3.28-0.02-4.91
			c-0.02-0.71,0.26-0.88,0.9-0.85c0.61,0.03,1.06,0.02,1.05,0.87c-0.04,3.27-0.03,6.55,0,9.82c0.01,0.77-0.3,0.92-1,0.92
			c-0.72,0.01-0.98-0.19-0.96-0.94C164.6,87.9,164.56,86.26,164.56,84.63z"/>
		<path fill-rule="evenodd" clip-rule="evenodd" fill="#FBFCFD" d="M98.73,83.05c0,0.59,0,1.19,0,1.78c0,0.33,0.02,0.65-0.46,0.64
			c-0.43-0.01-0.38-0.32-0.38-0.58c0-1.19,0-2.38,0-3.57c0-0.34,0.01-0.67,0.49-0.58c0.35,0.06,0.52,0.22,0.44,0.66
			c-0.11,0.54-0.08,1.1-0.11,1.65C98.71,83.05,98.72,83.05,98.73,83.05z"/>
	</g>
</g>
</svg>
