<svg xmlns="http://www.w3.org/2000/svg" width="2380" height="808" viewBox="0 0 2380 808">
  <path fill-rule="evenodd" clip-rule="evenodd" fill="#0654bd" d="M760.36 335.82c.43 11.15 1.18 22.3 1.14 33.45-.01 4.8 3.44 6.49 5.87 9.19 2.55 2.83 5.51 5.28 8.05 8.12 1.71 1.91 3.55 2.76 6.09 2.5 1.39-.15 3.48-.52 3.29 1.79-.32 3.78 2.12 3.58 4.45 3.37 2.96-.27 4.98.15 4.39 3.85-.15.95-.04 2.44 1.17 2.35 5.35-.4 3.6 3.49 3.63 6.02.12 9.5.17 19-.02 28.5-.06 3.01.64 4.16 3.84 3.91 3.98-.3 8.01.17 11.99-.13 3.39-.26 4.87.55 4.49 4.24-.34 3.3.02 6.66-.12 9.99-.11 2.49.68 3.46 3.35 3.63 13.57.86 13.57.94 13.57-12.71 0-3.5.22-7.02-.07-10.49-.29-3.53.51-4.99 4.51-4.82 8.15.36 16.33.24 24.49.06 2.71-.06 3.39.83 3.33 3.38-.15 6.66.01 13.33-.08 20-.04 2.44.03 4.19 3.34 3.93 4.96-.39 7.24 1.54 6.63 7.13-.65 5.93.04 11.99-.22 17.98-.15 3.44.81 5.03 4.39 4.41 3.71-.64 4.97.79 4.68 4.61-.36 4.81-.15 9.66-.04 14.49.02 1.12-.86 3.12 1.16 3.17 2.01.06 1.38-1.92 1.38-3.11.05-10.17.16-20.33-.04-30.5-.07-3.39.78-4.89 4.37-4.41 1.96.26 3.99.04 5.99.04 8.3-.01 8.31-.01 9.14 7.96.1.96-.17 2.11 1.09 2.48 1.13.33 2.87.58 3.23-.43 1.24-3.45 3.99-2.2 6.2-2.24 7-.12 14-.17 21 .01 3.12.08 4.84-.65 4.32-4.11-.1-.65.07-1.34-.03-2-.76-4.93.29-8.06 6.31-6.84 1.15.23 3.4.49 3.3-1.19-.29-5.4 3.41-4.06 6.28-4.07 8.32-.02 8.32.02 8.32-8.44 0-15.17-.34-30.34.19-45.49.18-5.22-2.79-9.59-2.26-14.78.3-2.96.81-3.95 3.94-3.92 15.17.16 30.33.19 45.5-.01 3.34-.04 3.98 1.18 3.65 4.03-2.59 22.32-1.1 44.75-1.64 67.12-.12 5.16.07 10.32.11 15.48.02 1.7.09 3.95 2.07 3.97 4.36.03 3.49 2.9 3.51 5.42.01 2.17-.02 4.33-.02 6.5.01 1.47-.3 3.18 2.04 3.16 2.46-.02 1.87-1.89 1.88-3.25.04-11.5.02-23 .02-34.5 0-4.17.15-8.34-.04-12.5-.11-2.55.57-3.51 3.29-3.44 7.16.18 14.33.13 21.5.03 2.12-.03 2.92.52 2.83 2.78-.17 4.64.1 9.29-.07 13.93-.1 2.81 1.19 3.24 3.61 3.28 2.73.06 2.86-1.38 2.85-3.44-.03-29.33-.02-58.66-.01-87.99-4.1-8.53-2.43-17.79-3.3-26.72-.33-3.39.58-6.78.06-10.35-.49-3.39-.62-6.02-4.52-6.96-1.24-.3-2.8-1.01-1.29-3.16.73-1.04.73-3.05.29-4.36-1.72-5.21 1.55-6.98 5.45-8.19 3.41-1.06 4.85-3.03 4.3-6.6-.79-5.18 1.66-10.72-1.86-15.65-.54-.75-.3-2.56 1.47-2.41 2.9.25 2.52-1.61 2.69-3.49 2.67-29.33 1.89-58.79 3.5-88.16.29-5.28.04-10.59 1.21-15.92.24 5.22.55 10.43.7 15.65.73 24.82 1.36 49.64 2.14 74.45.16 5.1 1.82 10.1 1.28 15.28-.06.6.23 1.79.41 1.8 6.32.4 2.55 2.87 1.91 5.92-1.07 5.1-.49 10.61-.19 15.93.13 2.37 2.85 2.55 4.58 3.22 3.67 1.43 6.88 2.7 5.33 7.85-.48 1.6-.97 3.88.79 5.56.97.93.02 1.58-.69 1.71-8.21 1.51-6.09 8.46-5.86 13.09.38 7.83 1 16.16-.88 23.21-4.34 16.34-1.58 32.6-2.23 48.84-.65 16.3-.14 32.65-.14 48.98 0 10.67.04 21.33-.03 32-.01 2.51-.16 4.76 3.48 4.29 2.82-.36 2.45 1.71 2.7 3.58.5 3.65-1.54 7.53 2.21 11.03 1.51 1.41 2.57 2.08 4.23 1.97 2.45-.16 4.88-.6 7.3-1.06 2.52-.47 1.64-2.59 1.64-4.06.06-14.5.15-29-.04-43.5-.04-3.56.63-4.95 4.6-4.82 9.82.32 19.66.11 29.5.11 2.32 0 4.85-.45 4.35 3.37-.36 2.78 1.88 2.11 3.41 2.16 8.56.28 8.56.26 8.56 9.06 0 13.67-.03 27.33.04 41 .01 1.54-1.07 3.84 2.16 3.94 3.46.11 2.59-2.29 2.59-4.09.03-21.5.13-43-.08-64.5-.04-3.85 1.07-4.72 4.72-4.6 8.16.28 16.33.21 24.5.02 3.02-.07 4.03.74 3.95 3.89-.23 8.16.09 16.34-.15 24.5-.1 3.22 1.03 3.8 3.97 3.83 3.09.03 4.07-.86 3.94-3.94-.13-2.93-1.66-7.01 4.15-6.74 1.6.08 1.1-2.13 1.11-3.37.04-8.17.15-16.34-.07-24.5-.09-3.31.61-4.7 4.29-4.59 8.49.27 17 .27 25.5.01 3.51-.11 4.54 1.31 4.05 4.35-.76 4.72 1.28 6.24 5.77 5.59 2.13-.31 4.34-.32 6.48-.15 3.14.24 5.28-.27 4.69-4.16-.37-2.44 1.24-2.58 3.11-2.57 6.67.06 13.34-.12 20 .07 3.06.09 4.9-.49 4.2-3.99-.94-4.63 1.23-5.8 5.42-5.26 2.3.29 4.66.11 6.99.04 2.61-.08 4.7-.32 4.75 3.66.04 3.31 3.36 1.36 5.2 1.72 1.86.37 3-.25 3.14-2.6.13-2.13-1.53-5.53 1.3-6.18 3.63-.84 7.69-.68 11.38 0 1.84.34.84 3.25.87 4.98.11 7.58.06 7.58 7.59 7.57h.5c8.07-.01 8.2-.01 8.08-8-.05-3.32.21-5.53 4.45-4.97 3 .4 2.29-2.17 2.3-3.84.04-10.33.02-20.67.02-31 0-26 .07-52-.09-78-.02-3.51.9-5.02 4.37-4.26 2.93.64 6.91-2.12 8.71 2.83.27.74 3.71 1.35 3.95-1.58.24-2.81-.02-5.66.08-8.49.07-1.98-1.2-1.98-2.58-2.11-1.68-.16-1.4-1.53-1.49-2.66-.13-1.64.91-2.15 2.18-1.87 9.45 2.1 14.48-3.83 19.66-10.18 1.98-2.43 3.98-5.1 8.36-5.35 5.57-.32 8.53 2.45 11.59 5.96.98 1.13 1.96 2.27 2.83 3.49 3.62 5.05 8.43 7.13 14.58 6.03 3.48-.63 3.76 1.21 4.04 4.21 4.59 49.95.82 100 2.06 149.98.09 3.52.07 3.52 3.22 1.98 4.41-2.15 17.18 1.14 19.37 5.2.57 1.05.25 2.61.25 3.94.01 22.33.01 44.67.01 67 0 1-.06 2 .02 3 .08 1.05-.45 2.51 1.41 2.58 2.27.09 1.57-1.66 1.66-2.83.1-1.33.04-2.67.04-4 0-35.99.07-71.99-.11-107.98-.02-4.13 1.03-5.32 5.19-5.24 13.16.28 26.32-.02 39.48.2 3.52.06 4.4-.94 4.38-4.42-.16-23.66-.02-47.33-.15-70.99-.02-3.22.62-5.83 3.05-7.96 6.82-5.97 11.29-14.34 19.41-19.02 1.16-.67.57-2.13.66-3.22.76-9.27 1.48-18.55 2.75-27.84.72 9.16 1.46 18.32 2.14 27.49.14 1.95.01 3.3 2.63 4.36 2.53 1.02 4.5 3.88 6.26 6.26 2.66 3.61 5.97 4.49 10.31 4.38 10.83-.29 21.67.04 32.49-.15 3.37-.06 5.06.66 4.43 4.32-.17.97.13 2.02-.05 2.99-.87 4.79.98 6.78 5.83 5.88 2.84-.52 3.3 1.04 3.21 3.45-.14 4.16.12 8.34-.1 12.5-.16 2.91.48 4.03 3.75 4.02 9.13-.03 9.13.15 9.13 9.08 0 29.16.05 58.33-.07 87.49-.01 3.24.42 5.16 4.21 4.47 2.45-.44 3.27.77 3.05 3.11-.14 1.49.15 3.02-.06 4.49-.54 3.86.42 6.11 4.9 5.22 2.84-.56 3.23 1.03 3.18 3.43-.13 6.83.02 13.67-.08 20.5-.03 2.19.4 3.43 2.94 3.43 2.79 0 2.18-1.91 2.18-3.44.03-9.33.14-18.67-.05-28-.07-3.31.63-4.89 4.33-4.66 4.65.29 9.33.2 13.99.02 2.75-.1 3.91.7 3.71 3.63-.24 3.32.11 6.67-.11 9.99-.19 2.94.58 4.04 3.81 4.04 9.37.02 9.36.19 9.35 9.72-.01 12.16-.03 24.33 0 36.49 0 1.28-.44 2.68.57 3.83.89 1.01 2.06 1.08 3.22.75 1.61-.45 1.05-1.9 1.05-2.94.05-9.17-.84-18.44.27-27.47 1.18-9.66 1.43-19.26 1.39-28.92-.01-1.58.49-2.52 2.3-2.42 1.53.08 2.13-.94 1.87-2.27-.98-4.93 2.25-4.46 5.38-4.4 4.16.09 8.34.17 12.5-.04 2.86-.14 3.76.88 3.7 3.71-.15 8.33.12 16.67-.13 25-.1 3.38 1.02 4.1 4.21 4.08 10.3-.07 10.44.06 10.4-10.31-.01-3.27.88-4.31 4.17-4.18 6.16.25 12.33-.05 18.5.11 2.72.07 4.24-.59 3.73-3.57-.69-4.03 1.37-4.7 4.84-4.51 4.49.25 9 .17 13.49-.06 2.63-.14 3.51.57 3.38 3.32-.22 4.49.2 9 .01 13.49-.12 2.88.35 4.41 3.72 3.93 3.68-.53 6.16.6 5.34 5.07-.54 2.96 1.56 2.87 3.39 2.59 4.16-.63 5.89 1.07 5.25 5.16-.58 3.74 1.33 4.26 4.55 4.23 6.77-.08 6.78.1 6.78 6.96 0 4.17.1 8.34-.04 12.5-.1 3.2-.31 5.8 4.44 5.31 3.5-.36 5.99.2 5.95-5.04-.26-34 0-68-.19-102-.02-4.45 1.08-6.1 5.5-5.4 1.79.28 3.67.14 5.49.02 2.06-.14 3.29.46 2.88 2.74-.62 3.51 1.45 3.57 4.08 3.58 10.23.04 10.23.11 10.23 10.35 0 6.83.23 13.68-.08 20.49-.17 3.79 1.42 4.25 4.64 4.22 16.67-.14 33.33.05 50-.15 3.83-.05 5.2.78 5.07 4.9-.31 10.49.07 20.99-.2 31.48-.1 3.96.64 6.07 5.07 5.28 1.13-.2 2.33.06 3.49-.05 2.43-.24 3.06.79 3.02 3.17-.15 7.5-.01 15-.03 22.5-.01 2.07-.29 4.08 2.91 3.82 2.57-.21 1.69 1.95 1.72 3.21.1 4.46.04 8.92.04 14.26 8.5-4.59 17.06-3.4 25.47-3.4 2.48 0 2.49-1.24 2.58-3.09.44-9.34.48-9.36 9.82-9.3 7.5.05 14.99.27 22.48.22 2.58-.02 3.61.83 3.51 3.45-.15 3.83-.1 7.67-.03 11.5.02 1.21-.32 3.3 1.63 2.92 6.53-1.26 12.33 2.64 18.75 2.29 2.91-.16 4.47-.6 3.87-3.83-.09-.48.05-1.01-.02-1.5-1.52-9.62 4.49-12.13 12.72-13.42 1.46-.23 2.99-.05 4.49-.05 5.59.01 5.59.01 6.48 5.77 6.22-6.33 13.84-3.69 21.03-3.78 1.57-.02 2.08.88 2.55 2.4 1.15 3.7 3.03 5.55 7.38 3.16 5.15-2.83 9.2-1.73 13.38 2.61 1.96 2.04 3.16-.71 4.87-.77 2.91-.1 6.74.27 5.92-4.86-.17-1.07 1.14-1.51 2.21-1.48 1.37.04 1.79.87 2.25 2.14.56 1.55 1.69 4.54 2.89.1.5-1.86 2.32-1.54 3.8-1.55 4.33-.01 8.67-.17 13 .05 2.88.15 3.72-.85 3.65-3.67-.17-7.66.03-15.33-.12-23-.06-3.03.98-4.13 4.04-4.07 7.66.16 15.33.15 23 0 2.73-.05 3.88.68 3.92 3.6.06 3.64-1.61 8.13.57 10.7 2.25 2.64 6.84.75 10.39.9 2.01.08 2.71.74 2.72 2.56.01 2 .04 4 .04 6 .02 7.13 2.43 9.17 9.09 6.78 5.1-1.83 9.75-1.23 14.94-.38 5.22.85 10.59.73 16.34-1.17 4.37-1.45 10.83-1.76 16.21.46 2.56 1.05 5.87 5.48 7.29-1.42.4-1.95 3.25-1.3 4.94-1.09 6.71.82 13.31 2.34 20.16 2.08 3.14-.12 4.38-.83 4.24-4.17-.26-5.82.64-11.78-.29-17.46-1-6.09 3.39-7.5 6.82-9.03 3.39-1.52 6.35 2.73 10.26 2.7 1.53-.01.67 3.51.72 5.4.13 5.5.18 11-.01 16.5-.1 2.83.35 4.45 3.71 4.02 4.16-.54 5.67 1.12 5.48 5.62-.42 9.82.06 19.67-.23 29.49-.11 3.76.9 4.65 4.64 4.63 40.5-.15 81-.02 121.5-.21 4.3-.02 5.06 1.21 5.05 5.23-.13 75.17-.14 150.33.02 225.5.01 5-.96 6.52-6.31 6.52-478.83-.14-957.66-.13-1436.48-.13-310.33 0-620.66-.01-930.99.12-5.1 0-6.48-1.11-6.46-6.37.19-75.17.18-150.33.02-225.5-.01-4.47 1.13-5.38 5.44-5.36 44 .17 88 .01 132 .24 5.02.03 5.98-1.41 5.79-6.04-.38-9.48.06-19-.2-28.49-.1-3.74.79-5.8 4.8-5.25 3.54.49 4.52-.91 4.37-4.38-.28-6.32-.03-12.66-.11-19-.02-1.94.24-3.27 2.65-3 1.15.13 2.23-.21 3.33-.79 6.46-3.4 11.67-.3 11.68 6.91.01 6 .13 12-.07 18-.1 3.12.71 4.3 4.09 4.31 6.33.02 12.47-.94 18.68-1.93 2.64-.42 7.04-2.31 7.32 3.69.07 1.51 2.62.87 3.77.13 4.53-2.91 9.6-1.33 14.25-2.16 4.97-.88 8.33 3.1 13.01 2.09 3.47-.75 7.14-.1 10.74-1.27 3.81-1.24 7.81-1 11.62.82 2.17 1.04 4.6.35 6.91.5 2.22.15 3.01-.91 2.79-2.98-.02-.16-.01-.33 0-.5.13-3.82-1.06-8.53.75-11.2 1.81-2.66 6.8-.73 10.38-.85 2.03-.07 2.67-.84 2.68-2.62 0-.5 0-1 .01-1.5.3-11.19.3-11.2 11.7-11.19 4.67 0 9.35.3 13.99-.06 4.37-.33 5.38 1.44 5.2 5.46-.3 6.82.19 13.68-.18 20.49-.23 4.15 1.3 5.13 5.06 4.82 3.47-.29 6.99-.06 10.49-.06 1 0 2.44-.39 2.92.12 2.39 2.5 4.21 4.57 6.28-.48.47-1.15 3.32-.39 3.16 2.01-.18 2.87 1.13 3.66 3.74 3.79 3.01.16 5.53 2.21 8.81-1.26 2.77-2.93 7.93-2.76 11.91-.33 3.63 2.22 6 .73 6.82-2.61.66-2.66 1.92-3.08 4.11-3.1 3.83-.02 7.66-.24 11.49-.19 3.09.04 5.65 1.4 7.54 3.89 2.55-1.13-.49-5.27 3-5.46 5.45-.3 10.9-.63 16.14 1.81 4.4 2.05 5.62 5.3 5.27 9.87-.17 2.18-1.28 5.75.75 6.45 2.96 1.02 7.3 1.41 9.69-.09 3.44-2.17 6.67-1.6 9.93-1.49 3.27.11 4.02-1.08 3.87-3.98-.18-3.49.02-7-.11-10.5-.09-2.47.62-3.59 3.37-3.59 9.66.01 19.32-.12 28.98-.4 3-.08 3.53 1.18 3.56 3.85.11 8.68.22 8.57 8.84 8.72 4.92.08 9.99-.97 14.64 1.81 2 1.19 2.54-.08 2.48-1.99-.09-3 .3-6.04-.1-8.99-.59-4.4 1.25-5.28 5.23-5.02 5.48.35 11.01-.2 16.49.18 3.94.27 4.64-1.18 4.63-4.77-.1-34 .08-68-.11-102-.03-4.67 1.24-6.3 5.77-5.63 1.79.26 3.67.12 5.49.02 1.86-.1 2.95.5 2.61 2.51-.52 3.16.84 3.85 3.85 3.85 10.47.01 10.47.14 10.47 10.58 0 6.67.19 13.34-.06 20-.13 3.45.84 4.51 4.39 4.47 16.83-.19 33.67.03 50.5-.17 3.67-.04 4.9.81 4.8 4.66-.27 10.65.03 21.32-.17 31.98-.07 3.67.51 5.36 4.82 5.1 6.66-.4 6.67-.07 6.68 6.8 0 6.33.25 12.68-.05 18.99-.17 3.63 1.68 3.55 4.25 3.56 2.6.01 4.55.03 4.25-3.57-.31-3.64.4-7.4-.16-10.98-1.62-10.29 3.46-19.94 2.48-30.12-.22-2.28 1.47-2.22 3-2.22 3.5-.01 7.02-.26 10.49.06 3.82.35 4.68-1.08 4.65-4.75-.18-22.5-.11-45-.11-67.5 0-18.67.1-37.33-.07-56-.03-3.54 1.03-4.87 4.49-4.42 1.31.17 2.66.04 4 .04 8.96.03 9.24.04 9.34-8.75.05-4.27 3.03-2.3 5.08-3.25-1.94-2.29-4.67-2.79-7.11-3.79-5.99-2.47-11.92-5.07-16.96-9.26-1.4-1.17-2.89-2.5-2.12-4.6.69-1.89 2.5-1.9 4.2-2.02 9.44-.68 18.53 1.48 27.51 3.8 13.5 3.49 26.61 8.07 38.68 15.3 4.18 2.51 5.82 1.38 5.83-3.54.02-7-.06-14 .04-21 .02-1.2-.97-3.4 1.55-3.3 2.02.08 1.36 1.96 1.36 3.14.05 18.17.04 36.33.05 54.5-6.05 11.68-2.09 24.18-2.74 36.27-.67 12.63-.2 25.32-.21 37.99-.01 23.67.16 47.33-.14 71-.06 4.88 1.61 6.11 5.88 5.5.82-.12 1.69-.16 2.49-.01 3.28.58 3.84-1.02 3.81-3.94-.13-12.5-.05-25-.05-37.5.01-27.17.05-54.33-.04-81.5-.01-3.01.6-5.17 3.02-7.28 4.51-3.92 8.43-8.51 12.89-12.49 2.04-1.82 1.58-4 1.68-5.97.59-10.96.14-21.96 1.47-32.89.29-.42.55-.44.8.07z"/>
</svg>
