<svg xmlns="http://www.w3.org/2000/svg" width="2380.2" height="807.6" viewBox="0 0 2380.2 807.6">
  <path fill="#0149A9" d="M.1 0h2380.1v807.6H.1z"/>
  <path fill="#238AE3" d="M0 12.6c137 0 181.1 81.9 172.1 132.9 0 0 71.5 10 62.5 87.2 0 0 187.3-21.1 223.3 123.1 0 0 114 15 120 135 0 0 153-9 159 84 0 0 276-97.8 364.7 63.7 0 0 127.6-54.5 213.1 7 0 0 97.3-154.7 319.3-61.7 0 0 21-55.8 102-55.8 0 0 54-147.9 198-106.2 0 0 3-198 184.3-169.2 0 0-16.3-160.8 154.7-151.8 0 0 18-108 107-79.2v786H0v-795z"/>
  <path fill="#47AAFF" d="M.1 222.6c126 0 133 105.9 124 132.9 0 0 51.1 17.1 69.1 71.1 0 0 153.8-42.8 207.8 101.3 0 0 132-14 216 102 0 0 123.3-50.8 162.3 34.7 0 0 109.5-69 250.5 9 0 0 170.2-129.2 332.2-21.2 0 0 171.8-61.4 300.8 40.6 0 0 67.1-185 265.3-120.2 0 0 18.2-116.9 162-93 0 0 27.5-59.7 93-59.7 0 0 3-153.3 144-132.3 0 0-6-68.3 52.6-68.2l.4 588H0l.1-585z"/>
  <path fill="#FFF" d="M0 559.6c91.1 0 149.4 0 232.2 68 0 0 230.8-70.4 385.6 46.1 0 0 173.8-74.1 310.9 61.9 0 0 115.4-67.4 270.2-21 0 0 137.1-90.7 313.6 21 0 0 112.7-119 391-54.6 0 0 72-104.4 245.8-76.5 0 0 64.2-76.5 230.8-76.5v279.5H0V559.6z"/>
</svg>
