<svg xmlns="http://www.w3.org/2000/svg" width="350" height="170" viewBox="-14.46 -4.5 350 170">
  <path d="M28.04 95.19v-6.75h2.87V75.6h-2.87v-6.79h16.24v6.79h-2.87v12.84h5.18v-5.53h8.19v12.28H28.04zM56.46 95.19v-6.75h2.87V75.6h-2.87v-6.79h28.17v12.32h-8.19V75.6h-6.61v3.96h4.83v4.9h-4.83v3.99h6.61v-5.53h8.19V95.2H56.46zM101.21 95.86c-2.66 0-5.56-1.05-6.86-2.8v2.13h-7.98v-9.55h7.84c0 2.62 1.85 3.88 4.27 3.88 1.33 0 2.21-.84 2.21-2 0-3.15-14.31-.7-14.31-10.92 0-4.58 4.86-8.47 10.88-8.47 2.66 0 4.86 1.12 6.05 2.8l.04-2.13h7.24V78h-7.14c0-2.62-1.75-3.88-4.16-3.88-1.33 0-2.21.84-2.21 1.99 0 3.15 14.31 1.05 14.31 11.27 0 4.59-4.16 8.48-10.18 8.48zM121.01 95.19v-6.75h2.87V75.6h-2.87v-6.79h28.17v12.32H141V75.6h-6.61v3.96h4.83v4.9h-4.83v3.99H141v-5.53h8.19V95.2h-28.18zM178.8 75.6l-7.84 19.6h-9.62l-7.84-19.6h-2.69v-6.79h16.06v6.79h-2.13l3.01 9.59 3.04-9.59h-2.14v-6.79h12.46v6.79h-2.31zM191.84 95.19v-6.75h2.13l-.59-2.03h-4.9l-.56 2.03h2.13v6.75h-12.49v-6.75h2.31l7.14-19.63h11.06l7.14 19.63h2.66v6.75h-16.03zm-.91-17.07l-1.29 4.48h2.62l-1.33-4.48zM225.41 95.19h-15.89v-6.75h2.87V75.6h-2.87v-6.79h15.89c7.66 0 13.86 5 13.86 13.19s-6.19 13.19-13.86 13.19zm2.52-16.16c0-1.96-.7-3.43-2.52-3.43h-2.52v12.84h2.52c1.82 0 2.52-1.51 2.52-3.46v-5.95zM240.49 95.19v-6.75h2.87V75.6h-2.87v-6.79h28.17v12.32h-8.19V75.6h-6.61v3.96h4.83v4.9h-4.83v3.99h6.61v-5.53h8.19V95.2h-28.17zM285.21 95.86c-2.66 0-5.56-1.05-6.86-2.8v2.13h-7.98v-9.55h7.84c0 2.62 1.85 3.88 4.27 3.88 1.33 0 2.2-.84 2.2-2 0-3.15-14.31-.7-14.31-10.92 0-4.58 4.86-8.47 10.88-8.47 2.66 0 4.87 1.12 6.05 2.8l.04-2.13h7.24V78h-7.14c0-2.62-1.75-3.88-4.17-3.88-1.33 0-2.2.84-2.2 1.99 0 3.15 14.31 1.05 14.31 11.27.01 4.59-4.15 8.48-10.17 8.48z"/>
  <g>
    <path d="M120.99 64.06h28.22v2.9h-28.22z"/>
  </g>
  <g>
    <path d="M240.44 64.06h28.22v2.9h-28.22z"/>
  </g>
</svg>
