<svg xmlns="http://www.w3.org/2000/svg" width="350" height="170" viewBox="-130 -49.5 350 170">
  <path d="M162.08 18.28c0-.59-.41-1.04-.96-1.04h-.99c-.22 0-.31.09-.31.32v1.53c0 .23.09.32.31.32h.99c.55 0 .96-.45.96-1.04v-.09zm.06 1.98c0 .03 0 .06.03.09l.78 1.63c.03.06.05.12.05.19 0 .16-.12.26-.34.26h-.49c-.12-.02-.22-.09-.28-.2l-.72-1.71c-.02-.07-.12-.13-.28-.21h-.77c-.22 0-.31.1-.31.33v1.47c0 .23-.09.32-.31.32h-.34c-.22 0-.31-.09-.31-.32v-5.46c0-.23.09-.33.31-.33h1.96c1.18 0 1.96.81 1.96 2.04v.13c0 .92-.93 1.37-.94 1.77zm3.35-1.08c0-2.73-1.84-4.55-4.66-4.55h-.12c-2.82 0-4.66 1.82-4.66 4.55v.66c0 2.73 1.83 4.54 4.66 4.54h.12c2.82 0 4.66-1.81 4.66-4.54v-.66zm-4.66 6.19h-.12c-3.38 0-5.58-2.21-5.58-5.52v-.66c0-3.31 2.2-5.52 5.58-5.52h.12c3.38 0 5.59 2.2 5.59 5.52v.66c.01 3.31-2.2 5.52-5.59 5.52zm-213.5 22.18c0 4.8-2.83 7.71-7.73 7.71-4.89 0-7.73-2.91-7.73-7.71V24.31c0-.6-.26-.86-.86-.86H-75c-.61 0-.86.25-.86.86v23.56c0 8.66 4.86 14.65 13.45 14.65 6.5 0 8.87-3.35 9.99-3.35.35 0 .6.34.6.94v1.05c0 .6.26.85.87.85h5.14c.61 0 .86-.26.86-.85V24.31c0-.6-.25-.86-.85-.86h-6.01c-.6 0-.86.25-.86.86v23.24zm20.46-9.63c0-4.8 2.83-7.71 7.73-7.71s7.73 2.91 7.73 7.72v23.24c0 .6.25.85.85.85h6.01c.6 0 .86-.26.86-.86V37.59c0-8.66-4.86-14.65-13.45-14.65-6.43 0-8.88 3.36-9.99 3.36-.35 0-.6-.34-.6-.94v-1.05c0-.6-.26-.86-.86-.86h-5.14c-.61 0-.86.25-.86.86v36.85c0 .6.25.85.86.85h6.01c.6 0 .86-.26.86-.86l-.01-23.23zM4.02 61.15V24.31c0-.6-.26-.85-.86-.85h-6c-.61 0-.86.25-.86.85v36.85c0 .6.25.85.86.85h6c.61 0 .86-.26.86-.86zm40.06-36.5c.26-.6 0-1.2-.77-1.2h-6.27c-.57-.01-1.08.33-1.29.86L25.97 51.3l-9.79-26.99c-.21-.53-.73-.87-1.29-.86H8.61c-.77 0-1.02.59-.77 1.2l14.42 36.51c.18.43.69.85 1.38.85h4.64c.68 0 1.2-.43 1.37-.86l14.43-36.5zm23.85 23.39c0 4.8-3.95 7.62-9.01 7.62-3.95 0-6.7-1.28-6.7-4.79 0-3.08 2.15-4.88 6.35-4.88h8.51c.51 0 .85.34.85.86v1.19zm0-9.08c0 .6-.25.86-.85.86H57.8c-7.99 0-13.57 4.19-13.57 11.23 0 6.16 4.38 11.39 12.36 11.39 6.98 0 10.39-3.27 11.51-3.27.34 0 .6.34.6.94v1.05c0 .6.26.85.85.85h5.16c.6 0 .86-.26.86-.86V34.94c0-7.62-5.99-12.35-14.98-12.35-6.45 0-12.06 3-14.47 8.06-.25.51-.07.94.44 1.2l5.15 2.75c.34.18.77.18 1.03-.26 1.46-2.74 3.98-4.8 8.03-4.8 4.44 0 7.15 2.18 7.15 5.77l.01 3.65zm34.91 8.75c0 4.79-2.82 7.71-7.72 7.71-4.89 0-7.72-2.92-7.72-7.71v-9.96c0-4.79 2.83-7.71 7.72-7.71 4.9 0 7.72 2.92 7.72 7.71v9.96zm-9.73 14.81c6.59 0 8.87-3.35 9.99-3.35.34 0 .6.34.6.94v1.05c0 .6.26.85.86.85h5.15c.6 0 .86-.26.86-.86V8.89c0-.6-.26-.86-.86-.86h-6.01c-.6 0-.86.26-.86.86v16.12c0 .6-.25.94-.6.94-1.12 0-2.68-3.02-9.13-3.02-8.59 0-13.45 6-13.45 14.65v10.28c0 8.67 4.86 14.66 13.45 14.66zm31-1.37V24.31c0-.6-.26-.85-.86-.85h-6.02c-.6 0-.85.25-.85.85v36.85c0 .6.25.85.85.85h6.02c.6 0 .86-.26.86-.86zm34.48-11.13c0-13.98-21.21-7.79-21.21-15.17v-1.19c0-3 2.83-4.13 6.52-4.13 3.69 0 6.11 1.6 7.57 4.34.26.43.69.43 1.03.26l5.16-2.75c.51-.25.68-.68.42-1.19-2.39-5.06-8.09-7.61-14.18-7.61-8.76 0-14.6 4.48-14.6 11.75v1.02c0 13.98 21.05 8.39 21.05 15.17v1.28c0 3.09-2.9 4.11-6.68 4.11-3.69 0-6.78-2.05-8.25-4.8-.26-.43-.77-.43-1.12-.25l-5.24 2.74c-.5.26-.68.69-.43 1.2 2.49 5.05 8.84 8.05 15.02 8.05 9.02 0 14.93-3.94 14.93-11.74l.01-1.09z"/>
</svg>
