<svg xmlns="http://www.w3.org/2000/svg" width="350" height="170" viewBox="-173.83 -44.5 350 170">
  <path fill="#aaa" d="M-173.83-44.5h350v170h-350z"/>
  <path d="M-87.29 23.72l1.09 9.74s-2.98-9.14-12.82-9.14c-9.94 0-10.34 10.13-10.34 10.93 0 .9.5 10.64 10.44 10.64s13.02-8.75 13.02-8.75l-1.59 10.24s-.2-2.49-1.89-2.09c-1.69.4-5.17 1.69-9.74 1.69-4.47 0-16.8-1.69-16.8-11.83 0-10.13 12.23-12.02 16.8-12.02s9.14 1.69 9.14 1.69 1.99.98 2.69-1.1m5.07 0h12.52s-3.28.7-3.28 2.69v7.65h15.51V26.8s-.4-3.18-3.18-3.18h12.33s-3.18 1.19-3.18 3.18v16.9s.4 2.68 3.18 2.68h-12.33s3.18-.89 3.18-2.58v-8.65h-15.61v8.55s.1 2.88 3.18 2.88h-12.32s3.18-.39 3.18-2.58V26.7s-.11-2.98-3.18-2.98m35.28 22.66s3.18-.59 4.97-3.67c1.59-2.99 9.64-18.99 9.64-18.99h4.77l10.14 19.69s2.09 3.08 4.47 3.08h-14.81s4.17-1.39 3.48-3.08c-.7-1.69-1.89-4.08-1.89-4.08H-38.2l-2.09 3.78s-1.39 3.48 3.98 3.48h-10.44v-.2h-.19zm9.05-8.25h10.83l-5.47-10.94-5.36 10.94zm35.68-14.41h-12.53s3.28 1.09 3.28 2.98v11.73s-.1 8.84 12.72 8.84 12.22-7.85 12.22-7.85V26.7s.2-2.98 3.48-2.98H8.72s3.29.2 3.48 2.89v12.82s.1 6.36-8.94 6.36-8.65-6.26-8.65-6.26V26.7c-.1 0-.1-2.98 3.18-2.98m20.87 0h9.14l9.84 16.4 9.95-16.4h8.35s-3.18.6-3.18 2.69v17.3s0 2.88 3.48 2.88H43.71s3.08-.6 3.08-2.88v-16L35.07 47.28 23.63 27.7v15.9s.2 2.89 3.18 2.89h-8.36s3.68-.4 3.68-2.89V26.31c-.09 0-.09-1.99-3.47-2.59m64.11 0l1.89 7.56s-2.58-6.06-7.36-6.36h-7.85v9.34h6.16s3.68-.4 3.68-4.57v10.14s-.99-4.47-3.68-4.47h-6.26V45.5h8.55s6.85-.1 8.25-6.17l-1.58 7.26H59.71s3.48-.7 3.48-2.69V26.6s-.5-2.99-3.18-2.99h22.76v.11zm6.37 0h27.63l1.49 8.85s-2.88-7.26-5.67-7.76h-6.65V43.7s.1 2.88 3.48 2.88H96.49s3.48-.9 3.48-2.58V24.92h-6.36s-3.28 0-5.77 7.65l1.3-8.85zM-24.38 58.5v-3.27h3.78c1.09 0 1.69.59 1.69 1.59 0 .99-.5 1.69-1.99 1.69h-3.48zm-1.49 5.27h1.49V59.8h3.68c2.09 0 3.18-1.19 3.18-3.08 0-1.89-1.09-2.88-3.28-2.88h-5.17v9.84h.1v.09zm16.8-4.17h-3.78l1.89-4.27 1.89 4.27zm1.89 4.17h1.59l-4.47-9.84h-1.69l-4.47 9.84h1.59l1.19-2.88h4.77l1.49 2.88zm6.46-5.56v-3.08h4.17c1.19 0 1.69.59 1.69 1.59 0 .7-.39 1.59-1.89 1.59H-.82v-.1h.1zm-1.49 5.56h1.49V59.6h3.77c1.19 0 1.89.5 1.99 2.38.1 1.2.1 1.6.19 1.89h1.6c-.4-.4-.4-.89-.5-2.69 0-1.09-.59-1.99-1.49-2.09 1.09-.39 1.69-1.19 1.69-2.48 0-1.2-.7-2.59-2.68-2.59h-6.16c.1-.08.1 9.75.1 9.75zm13.52-9.83h1.49v9.84h-1.49v-9.84zm7.25 6.46c0 1.69 1.69 2.18 3.18 2.18 1.59 0 2.68-.6 2.68-1.69 0-.89-.7-1.19-1.88-1.49l-2.19-.4c-1.2-.2-2.98-.6-2.98-2.59 0-1.88 1.49-2.98 3.98-2.98 1.99 0 4.08.7 4.17 3.08h-1.49c-.1-.7-.6-1.89-2.98-1.89-1.09 0-2.38.5-2.38 1.59 0 .59.4 1.1 1.58 1.39l2.49.4c.7.1 2.98.49 2.98 2.48 0 2.49-2.18 3.18-4.27 3.18-2.19 0-4.57-.7-4.57-3.48h1.58v.2h.1z"/>
</svg>
