<svg xmlns="http://www.w3.org/2000/svg" width="350" height="170" viewBox="-174.5 -44.5 350 170">
  <path fill="#1C1C1A" d="M-100.01 50.39v-9.62c-1.8 1.6-5.55 1.67-8.86 2.29-3.3.68-6.3 2.32-6.3 6.29 0 4.05 3.08 5.04 6.53 5.04 2.09 0 3.68-.43 4.89-1.1v6.49c-2.74 1.32-5.84 1.85-8.86 1.85-7.36 0-13.21-3.74-13.21-11.82 0-8.92 6.6-11.56 13.21-12.47 6.53-.99 12.61-.76 12.61-5.18 0-4.65-3.16-5.34-6.91-5.34-4.06 0-6.68 1.67-7.06 5.95h-10.66c.61-10.14 9.54-13.19 18.25-13.19 7.73 0 17.04 1.75 17.04 11.21V50.4l-10.67-.01zm43.49-15.87c-.67-4.42-3.45-6.79-7.88-6.79-6.84 0-9.09 7.02-9.09 12.81 0 5.65 2.18 12.43 8.86 12.43 4.95 0 7.81-3.2 8.48-8.01h10.29c-1.36 10.44-8.49 16.16-18.71 16.16-11.71 0-19.59-8.38-19.59-20.2 0-12.27 7.21-21.35 19.82-21.35 9.17 0 17.57 4.88 18.25 14.94h-10.43v.01zm34.84-14.94c12.24 0 20.12 8.24 20.12 20.82 0 12.5-7.88 20.73-20.12 20.73-12.17 0-20.05-8.23-20.05-20.73 0-12.58 7.88-20.82 20.05-20.82zm0 33.4c7.28 0 9.46-6.33 9.46-12.58 0-6.32-2.17-12.65-9.46-12.65-7.22 0-9.39 6.33-9.39 12.66 0 6.24 2.18 12.57 9.39 12.57zM3.84 5.63H14.5v54.43H3.84V5.63zm38.11 59.39c-2.32 6.33-6 8.92-13.37 8.92-2.17 0-4.35-.16-6.52-.38v-8.92c2.03.15 4.13.46 6.23.38 3.68-.38 4.88-4.27 3.68-7.4L18.3 20.66h11.42l8.78 26.98h.15l8.49-26.98h11.03L41.95 65.02zm35.79-44.37h7.81v7.24h-7.81V47.4c0 3.66.9 4.58 4.51 4.58 1.12 0 2.17-.08 3.3-.3v8.46c-1.79.3-4.13.38-6.23.38-6.54 0-12.24-1.53-12.24-9.38V27.9h-6.46v-7.24h6.46V8.83h10.66v11.82zm21.03 22.34c.3 6.86 3.61 9.98 9.54 9.98 4.27 0 7.73-2.67 8.41-5.1h9.38c-3 9.29-9.38 13.26-18.16 13.26-12.24 0-19.83-8.54-19.83-20.74 0-11.81 8.04-20.81 19.83-20.81 13.22 0 19.59 11.29 18.84 23.41H98.77zm17.34-6.87c-.98-5.49-3.3-8.39-8.49-8.39-6.76 0-8.71 5.34-8.86 8.39h17.35z"/>
</svg>
