<svg version="1.1" id="Layer_1" xmlns="http://www.w3.org/2000/svg" xmlns:xlink="http://www.w3.org/1999/xlink" width="86.7px" height="86.7px" viewBox="6.7 6.7 86.7 86.7">
<g>
	<path fill="#fff" d="M93.3,14c0-0.5-0.2-1-0.6-1.4l-5.4-5.4c-0.8-0.8-2-0.8-2.8,0l-3.1,3.1l-0.9-0.9c-0.5-0.6-1.3-0.9-2.1-0.9c-0.8,0-1.5,0.3-2.1,0.9L64.7,21.1H28V10.6c0-1.6-1.3-2.9-2.9-2.9c-1.6,0-2.9,1.3-2.9,2.9v10.5H11.6c-1.6,0-2.9,1.3-2.9,2.9c0,1.6,1.3,2.9,2.9,2.9h10.5v36.7L17,68.9L16.8,69c-0.3,0.3-0.5,0.6-0.7,1L7,89.1c-0.5,1.1-0.3,2.5,0.6,3.4c0.6,0.6,1.3,0.9,2.1,0.9c0.4,0,0.9-0.1,1.3-0.3l19.3-9.2c0.3-0.1,0.6-0.3,0.8-0.6l5.4-5.4H73v10.5c0,1.6,1.3,2.9,2.9,2.9c1.6,0,2.9-1.3,2.9-2.9V77.9h10.5c1.6,0,2.9-1.3,2.9-2.9c0-1.6-1.3-2.9-2.9-2.9H78.8V35.3l11.7-11.7c1.1-1.1,1.1-3,0-4.2l-0.9-0.9l3.1-3.1C93.1,15,93.3,14.5,93.3,14z M28,27h30.8L28,57.8V27z M15.9,84.1l4.3-8.9l4.7,4.6L15.9,84.1z M42.2,72L73,41.2V72L42.2,72L42.2,72z M73.8,32L33.2,72.6c-0.1,0.1-0.1,0.1-0.2,0.2l-4.8,4.8l-5.9-5.9L68,26.2l10.5-10.5l5.9,5.9L73.8,32z M87.1,15.5l-2.6-2.6l1.5-1.5l2.6,2.6L87.1,15.5z"/>
</g>
</svg>
