<svg version="1.1" xmlns="http://www.w3.org/2000/svg" xmlns:xlink="http://www.w3.org/1999/xlink"
width="88.7px" height="88.7px" viewBox="5.8 6.7 88.7 88.7">
<g fill="#fff">
	<path d="M94.5,57.8V43.1l-10-3c-0.7-2.2-1.4-4.2-2.5-6.2l5.2-9.3L76.8,14.1l-9.3,5.1c-2-1-4-1.8-6.2-2.5l-3-10.1H43.5l-3,10.1c-2.2,0.7-4.2,1.5-6.2,2.5L25,14.2L14.6,24.5l5.1,9.3c-1,2-2.5,4-3.1,6.2l-10.8,3v14.7l10.8,3c0.7,2.2,1.8,4.2,2.8,6.2l-5,9.3l10.5,10.4l9.4-5.1c2,1,4.1,2.4,6.2,3l3,10.7h14.7l3-10.7c2.2-0.7,4.2-1.8,6.2-2.8l9.3,5l10.4-10.4L82.1,67c1-2,1.7-4.1,2.4-6.2L94.5,57.8z M50.9,77.8c-15.1,0-27.3-12.2-27.3-27.3c0-15.1,12.2-27.3,27.3-27.3c15.1,0,27.3,12.2,27.3,27.3S66,77.8,50.9,77.8z"/>
	<path d="M52.9,39.7L52.9,39.7c-1-0.3-2,0.3-2.2,1.3l-5.2,19c-0.3,1,0.3,2,1.3,2.2l0,0c1,0.3,2-0.3,2.2-1.3l5.2-19C54.4,41,53.8,40,52.9,39.7z"/>
	<path d="M40.8,43c0.7-0.7,0.7-1.8,0-2.6l0,0c-0.7-0.7-1.8-0.7-2.6,0l-8,8l-1.3,1.3c-0.7,0.7-0.7,1.8,0,2.6l1.3,1.3l8,8c0.7,0.7,1.8,0.7,2.6,0l0,0c0.7-0.7,0.7-1.8,0-2.6L34,52.3c-0.7-0.7-0.7-1.8,0-2.6L40.8,43z"/>
	<path d="M71.4,49.7l-1.3-1.3l-8-8c-0.7-0.7-1.8-0.7-2.6,0l0,0c-0.7,0.7-0.7,1.8,0,2.6l6.7,6.7c0.7,0.7,0.7,1.8,0,2.6L59.6,59c-0.7,0.7-0.7,1.8,0,2.6l0,0c0.7,0.7,1.8,0.7,2.6,0l8-8l1.3-1.3C72.1,51.6,72.1,50.4,71.4,49.7z"/>
</g>
</svg>
