<svg version="1.1" xmlns="http://www.w3.org/2000/svg" xmlns:xlink="http://www.w3.org/1999/xlink" width="88.8px" height="74.3px" viewBox="5.5 12.8 88.8 74.3">
<g fill="#fff">
	<path d="M92.3,13.3c-0.6-0.3-1.3-0.5-2-0.5c-6.3,0-74.4,0-80.7,0c-0.7,0-1.5,0.2-2,0.6c-1.2,0.6-2,1.9-2,3.4c0,4.2,0,8.1,0,11.7c0.2-0.1,0.4-0.3,0.6-0.4c1.1-0.6,2.3-0.9,3.6-0.9l0,0V17h80.6v46.5H51V83c0,1.4-0.5,2.8-1.2,4h8.3h8.4c0.6,0,1.2-0.6,1.2-1.2v-1.1c0-0.6-0.6-1.2-1.2-1.2h-2.6c-1.4-1.5-2.3-4.5-2.8-7.7c14.4,0,26.7,0,29.1,0c1,0,1.9-0.4,2.7-1c0.8-0.7,1.4-1.8,1.4-3.1c0-50.5,0-50.5,0-54.9C94.4,15.2,93.6,14,92.3,13.3z"/>
	<path d="M45.8,30.8C47.1,31.6,45.3,30.5,45.8,30.8L45.8,30.8z"/>
	<path d="M45.8,30.8c-0.6-0.3-1.3-0.5-2-0.5c-6.3,0-27.9,0-34.2,0c-0.7,0-1.5,0.2-2,0.6c-1.2,0.6-2,1.9-2,3.4c0,2.9,0,7.1,0,11.8c0.2-0.1,0.4-0.3,0.6-0.4c1.1-0.6,2.3-0.9,3.6-0.9l0,0V34.5h34.1v43.3H32.5V83c0,1.5-0.5,2.9-1.3,4.1c5.3,0,10.3,0,12.7,0c1,0,1.9-0.4,2.7-1c0.8-0.7,1.4-1.8,1.4-3.1c0-8.8,0-17.4,0-26.2c0-3.4,0-19.2,0-22.6C48,32.8,47.1,31.6,45.8,30.8z"/>
	<path d="M27.3,48.4C28.5,49.1,26.7,48.1,27.3,48.4L27.3,48.4z"/>
	<path d="M27.3,48.4c-0.6-0.3-1.3-0.5-2-0.5C19,48,16,48,9.7,48c-0.7,0-1.5,0.2-2,0.6c-1.3,0.6-2.1,1.8-2.1,3.3c0,8.8,0,12.4,0,21.1c0,3.3,0,6.6,0,10c0,2.3,1.8,4.2,4.1,4.2c6.3,0,9.3,0,15.6,0c1,0,1.9-0.4,2.7-1c0.8-0.7,1.4-1.8,1.4-3.1c0-8.8,0-18.4,0-27.2c0-3.4,0-0.6,0-4C29.3,50.4,28.5,49.1,27.3,48.4z M17.4,84.4c-1,0-1.8-0.8-1.8-1.8c0-1,0.8-1.8,1.8-1.8c1,0,1.8,0.8,1.8,1.8C19.3,83.6,18.5,84.4,17.4,84.4z M25.2,77.9H9.7V52h15.5L25.2,77.9L25.2,77.9z"/>
</g>
</svg>
