<svg version="1.1" xmlns="http://www.w3.org/2000/svg" xmlns:xlink="http://www.w3.org/1999/xlink" width="182.8px" height="208.6px" viewBox="144 52 182.8 208.6">
	<g>
		<path fill="#fff" d="M299.9,217.4c-9.9-0.8-21-23.7-32-23.5c-14.4,0.2-35.5,24.5-59.2,24.1 c-12.1-0.2-25.1-4.6-25.5-23c-0.3-15.3,14.7-31.3,33.7-30.8c25.3,0.6,37.8,22.7,50.4,22.8c12.4,0.1,27-19.3,39.5-19.6 c6.7-0.2,11.8,6.3,12.3,15.2C319.9,196.1,311.4,218.3,299.9,217.4 M245,226.5c0-1.4,0.4-2.2,1.4-3.1c5.5-5.5,11.4-8.8,18-8.6 c10.6,0.3,11,2.7,14.1,8.9c0.6,1.3,0.3,2.3-0.1,3c-0.2,0.3-1.4,1.5-1.8,1.5c-1,0-1.4-0.4-1.8-1.4c-2.5-6.3-6.3-6.3-11-6.3 c-7.3,0-10.4,3.5-14.7,7.1c-1.1,0.9-2.1,1.5-2.9,0.9C245.5,227.8,245,227.1,245,226.5 M282.8,238.7c-11.2,9.4-41.6,14.7-56.1,2.8 c-1.4-1.2-1.5-3-0.5-4c0.7-0.8,1.3-1.1,2.2-1.6c1.1-0.6,2.4-0.4,3.3,0.5c5.7,5.3,32.6,9.7,48.8-1.2c0.6-0.4,1.4-0.7,2-0.4 c0.5,0.2,0.8,0.5,0.9,1C283.5,236.7,283.5,238.1,282.8,238.7 M308.6,115c-23.3-28.4-42.1-30.9-53.9-37.7 c-8.5-4.8-16.3-13.4-26.3-25.3c-0.7,6.4-1.4,12.9-5.6,17.6c-8.3,9.3-19.5,15.1-28.7,19.6C170.8,100.6,144,127.3,144,170 c0,20.7,8,42.9,23,60c16,18.2,40,30.7,68.4,30.6c25.4-0.1,46.3-8.4,62-22c18.4-15.9,29.4-39.1,29.4-68.7 C326.8,148.3,320.4,129.4,308.6,115"/>
	</g>
</svg>
