<svg version="1.1" xmlns="http://www.w3.org/2000/svg" xmlns:xlink="http://www.w3.org/1999/xlink" width="28.8px" height="17.4px" viewBox="5.6 7.3 28.8 17.4">
<g fill="#fff">
	<path d="M19.9,12.6c1.7,0,3.1,1.4,3.1,3.2c0,1.8-1.4,3.2-3.1,3.2s-3.1-1.4-3.1-3.2C16.8,14,18.2,12.6,19.9,12.6 M19.9,10.9c-2.7,0-4.9,2.2-4.9,4.9c0,2.7,2.2,4.9,4.9,4.9s4.9-2.2,4.9-4.9C24.8,13.1,22.6,10.9,19.9,10.9L19.9,10.9z"/>
	<path d="M20,9c0.8,0,1.6,0.1,2.4,0.3c2.4,0.5,4.8,1.8,7.3,3.8c1.2,1,2.1,1.9,2.8,2.7l0.1,0.1c0,0,0,0,0,0.1l0,0.1c0,0,0,0,0,0l-0.1,0.1c-0.3,0.3-0.6,0.6-0.9,0.9c-1.8,1.8-3.6,3.2-5.5,4.2c-1.4,0.8-2.8,1.2-4.1,1.5C21.4,22.9,20.7,23,20,23c-0.8,0-1.6-0.1-2.4-0.3c-2.4-0.5-4.8-1.8-7.3-3.8c-1.2-1-2.1-1.9-2.8-2.7c-0.1-0.1-0.1-0.2,0-0.3c0.2-0.3,0.5-0.6,0.9-0.9c1.8-1.8,3.6-3.2,5.5-4.2c1.4-0.8,2.8-1.2,4.1-1.5C18.6,9.1,19.3,9,20,9 M20,7.3c-0.8,0-1.6,0.1-2.5,0.2c-1.5,0.3-2.9,0.8-4.5,1.6c-2.1,1.1-4.1,2.6-6,4.5c-0.4,0.4-0.7,0.7-1,1c-0.6,0.8-0.6,1.7,0,2.5c0.8,1,1.8,1.9,3.1,3c2.7,2.2,5.4,3.6,8,4.2c0.9,0.2,1.9,0.3,2.8,0.3c0.8,0,1.6-0.1,2.5-0.2c1.5-0.3,2.9-0.8,4.5-1.6c2.1-1.1,4.1-2.6,6-4.5c0.3-0.3,0.6-0.7,0.9-1l0,0c0.2-0.2,0.3-0.4,0.4-0.6l0.1-0.2l0-0.3l0-0.1l0-0.3l-0.1-0.3c-0.1-0.3-0.2-0.6-0.4-0.9l0,0c-0.8-0.9-1.8-1.9-3-2.9c-2.7-2.2-5.4-3.6-8-4.2C21.9,7.4,20.9,7.3,20,7.3L20,7.3z"/>
</g>
</svg>
