<svg version="1.1" xmlns="http://www.w3.org/2000/svg" xmlns:xlink="http://www.w3.org/1999/xlink"
width="92px" height="81px" viewBox="4 10.5 92 81">
<g fill="#fff">
	<path d="M42.4,59.4V65l-20-8.7v-4.8l20-8.7v5.7l-14,5.4L42.4,59.4z"/>
	<path d="M54.8,42.7l-5.6,22.9c-0.2,0.8-0.3,1.4-0.5,1.8s-0.4,0.8-0.6,1c-0.3,0.2-0.7,0.4-1.2,0.4c-1.4,0-2-0.6-2-1.8c0-0.3,0.1-1.1,0.4-2.3l5.6-22.9c0.3-1.2,0.6-2.1,0.8-2.5c0.3-0.5,0.8-0.7,1.6-0.7c0.7,0,1.2,0.2,1.5,0.5c0.4,0.3,0.5,0.8,0.5,1.3C55.2,40.9,55.1,41.6,54.8,42.7z"/>
	<path d="M77.6,56.3l-20,8.7v-5.6l14-5.5l-14-5.4v-5.6l20,8.6V56.3z"/>
	<path d="M90.5,10.5h-81C6.5,10.5,4,13,4,16v70c0,3,2.5,5.5,5.5,5.5h81c3.1,0,5.5-2.5,5.5-5.5V16C96,13,93.6,10.5,90.5,10.5z M76.7,14.2c2,0,3.7,1.7,3.7,3.7c0,2-1.7,3.7-3.7,3.7c-2,0-3.7-1.7-3.7-3.7C73,15.8,74.7,14.2,76.7,14.2z M66.6,14.2c2,0,3.7,1.7,3.7,3.7c0,2-1.7,3.7-3.7,3.7c-2,0-3.7-1.7-3.7-3.7C62.9,15.8,64.6,14.2,66.6,14.2z M90.5,86h-81V25.2h81V86z M86.8,21.5c-2,0-3.7-1.7-3.7-3.7c0-2,1.7-3.7,3.7-3.7c2,0,3.7,1.7,3.7,3.7C90.5,19.9,88.9,21.5,86.8,21.5z"/>
</g>
</svg>
